<svg width="267" height="171" viewBox="0 0 267 171" xmlns="http://www.w3.org/2000/svg" xmlns:xlink="http://www.w3.org/1999/xlink">
    <defs>
        <path id="9pi84ccnta" d="M0 0h7.647v7.647H0z"/>
        <path id="gx1ddmwnsc" d="M0 0h13.765v10.706H0z"/>
        <path id="zzwepfpj8e" d="M0 0h4.154v12.047H0z"/>
        <path id="rmm4zkfvfg" d="M0 0h23.886v9.952H0z"/>
        <path id="nrnblmb9gi" d="M0 0h47.253v38.235H0z"/>
        <path d="M0 5.116c4.586 1.618 11.394 2.716 19.697 2.716 11.196 0 19.725-1.99 23.683-4.574C39.175 1.404 32.026 0 23.22 0 11.635 0 2.9 2.43 0 5.116" id="nspc8yppwk"/>
        <path id="gado8llzzn" d="M0 0h59.045v23.088H0z"/>
        <path id="n31aptv2bp" d="M0 0h14.826v16.68H0z"/>
        <path id="flzqoj9c2r" d="M0 0h19.459v20.386H0z"/>
        <linearGradient x1="0%" y1="50%" x2="99.998%" y2="50%" id="l7yigwg88l">
            <stop stop-color="#FFF" offset="0%"/>
            <stop stop-color="#D4873B" offset="100%"/>
        </linearGradient>
    </defs>
    <g fill="none" fill-rule="evenodd">
        <path d="M53.442 105.91a1 1 0 1 0-1.413-1.413 1 1 0 0 0 1.413 1.414M65.02 94.333a1 1 0 1 0-1.413-1.414 1 1 0 0 0 1.413 1.414M76.6 82.755a1 1 0 1 0-1.415-1.414 1 1 0 0 0 1.415 1.414M42.613 128.92a.999.999 0 1 0-1.414 1.414 1 1 0 1 0 1.414-1.414m11.578-11.58a1 1 0 1 0-1.414 1.414 1 1 0 0 0 1.414-1.413m-23.156 23.157a.999.999 0 1 0 0 1.414.999.999 0 0 0 0-1.414m34.735-34.736a1 1 0 1 0-1.414 1.414 1 1 0 0 0 1.414-1.414m11.578-11.578a.999.999 0 1 0-1.414 1.414.999.999 0 1 0 1.414-1.414m11.578-11.578a.999.999 0 1 0 0 1.414.998.998 0 0 0 0-1.414M43.88 142.662a.999.999 0 1 0-1.414-1.414.999.999 0 1 0 1.414 1.414m11.578-11.578a1 1 0 1 0-1.414-1.415 1 1 0 0 0 1.414 1.415m-24.57 21.742a.998.998 0 0 0 0 1.413.999.999 0 1 0 1.414-1.413.998.998 0 0 0-1.414 0m36.148-33.32a1 1 0 1 0-1.413-1.415 1 1 0 0 0 1.413 1.415m11.578-11.579a1 1 0 1 0-1.414-1.415 1 1 0 1 0 1.414 1.415M90.192 96.35a1 1 0 1 0-1.414-1.415.999.999 0 0 0 0 1.414.999.999 0 0 0 1.414.001m34.07-23.303a.999.999 0 1 0 1.415 1.414.999.999 0 1 0-1.414-1.414m11.578-11.579a.999.999 0 1 0 1.414 1.414.999.999 0 1 0-1.414-1.414m-23.156 23.157a.999.999 0 1 0 1.414 1.414.999.999 0 1 0-1.414-1.414m34.734-34.735a.999.999 0 1 0 1.414 1.414.999.999 0 1 0-1.414-1.414m11.578-11.578a.999.999 0 1 0 1.414 1.414.999.999 0 1 0-1.414-1.414m11.578-11.578a.999.999 0 1 0 1.414 1.414.998.998 0 0 0 0-1.414.998.998 0 0 0-1.414 0m-70.82 32.865a.999.999 0 1 0-1.414-1.414.999.999 0 1 0 1.414 1.414m11.578-11.578a.999.999 0 1 0-1.414-1.414.999.999 0 1 0 1.414 1.414M88.177 71.176a.999.999 0 1 0-1.414-1.414.999.999 0 1 0 1.414 1.414m34.734-34.734a.999.999 0 1 0-1.414-1.414.999.999 0 1 0 1.414 1.414m11.578-11.578a.999.999 0 1 0-1.414-1.414.999.999 0 1 0 1.414 1.414m11.578-11.579a.999.999 0 1 0-1.414-1.414.999.999 0 1 0 1.414 1.414m11.578-11.578a.999.999 0 1 0-1.413-1.414.999.999 0 1 0 1.413 1.414m-46.977 57.744a.999.999 0 1 0 1.414 1.414.998.998 0 0 0 0-1.414.998.998 0 0 0-1.414 0m11.578-11.578a.999.999 0 1 0 1.414 1.414.998.998 0 0 0 0-1.414.998.998 0 0 0-1.414 0M99.09 71.029a.999.999 0 1 0 1.414 1.414.998.998 0 0 0 0-1.414.998.998 0 0 0-1.414 0m34.734-34.735a1.001 1.001 0 1 0 1.416 1.415 1.001 1.001 0 0 0-1.416-1.415m11.578-11.578a1.001 1.001 0 1 0 1.417 1.415 1.001 1.001 0 0 0-1.417-1.415m11.579-11.578a1.001 1.001 0 1 0 1.416 1.415 1.001 1.001 0 0 0-1.416-1.415m-45.046 60.054a1 1 0 1 0 1.415-1.414 1 1 0 1 0-1.415 1.414m11.578-11.578a1 1 0 1 0 1.415-1.414 1 1 0 1 0-1.415 1.414M100.357 84.77a.998.998 0 0 0 1.413 0 .999.999 0 1 0-1.414 0m34.735-34.734a1 1 0 1 0 1.415-1.414 1 1 0 0 0-1.415 1.414m11.579-11.578a.999.999 0 1 0 1.414-1.414.999.999 0 1 0-1.414 1.414m11.578-11.578a.999.999 0 1 0 1.414-1.414.999.999 0 1 0-1.414 1.414M171.24 15.3a.999.999 0 1 0-1.414-1.414.999.999 0 1 0 1.414 1.414M83.397 169.704a.999.999 0 1 0-1.415 1.414.999.999 0 1 0 1.415-1.414m11.579-11.578a1 1 0 1 0-1.415 1.413 1 1 0 0 0 1.415-1.413m-23.158 23.156a.999.999 0 1 0-1.414 1.414.999.999 0 1 0 1.414-1.414m34.736-34.734a1 1 0 1 0-1.415 1.413 1 1 0 0 0 1.415-1.413m11.578-11.579a1 1 0 1 0-1.414 1.414.999.999 0 1 0 1.414-1.414m11.578-11.578a.998.998 0 0 0-1.414 0 .999.999 0 1 0 1.414 0m-72.235 32.866a.999.999 0 1 0-1.414-1.414.999.999 0 1 0 1.414 1.414m11.578-11.579a.999.999 0 1 0-1.414-1.414.999.999 0 1 0 1.414 1.414m-24.57 21.743a.999.999 0 1 0 1.414 1.414.999.999 0 1 0-1.414-1.414M80.63 133.1a.999.999 0 1 0-1.414-1.415.999.999 0 1 0 1.414 1.414m11.578-11.578a.999.999 0 1 0-1.414-1.414.999.999 0 1 0 1.414 1.414m11.578-11.578a.999.999 0 1 0-1.414-1.414.999.999 0 1 0 1.414 1.414m-33.984 46.164a1 1 0 1 0-1.415 1.414 1 1 0 0 0 1.415-1.414m11.578-11.577a1 1 0 1 0-1.416 1.413 1 1 0 0 0 1.416-1.413m-23.157 23.155a1 1 0 1 0-1.414 1.417 1 1 0 0 0 1.414-1.417m34.735-34.734a1 1 0 1 0-1.414 1.414 1 1 0 0 0 1.414-1.414m11.578-11.578a1 1 0 1 0-1.414 1.414 1 1 0 0 0 1.414-1.414m11.578-11.578a.999.999 0 1 0-1.414 1.414.999.999 0 1 0 1.414-1.414M71.07 169.85a.999.999 0 1 0-1.414-1.414.999.999 0 1 0 1.414 1.414m11.579-11.578a.999.999 0 1 0-1.415-1.414.999.999 0 1 0 1.415 1.414m-24.57 21.742a.999.999 0 1 0 1.414 0 .999.999 0 0 0-1.415 0m36.149-33.32a.999.999 0 1 0-1.414-1.414.999.999 0 1 0 1.414 1.414m11.578-11.578a.999.999 0 1 0-1.414-1.414.999.999 0 1 0 1.414 1.414m11.578-11.578a.999.999 0 1 0-1.414-1.414.999.999 0 1 0 1.414 1.414m35.484-23.303a.998.998 0 0 0-1.414 0 .999.999 0 1 0 1.414 0m11.578-11.578a.999.999 0 1 0-1.414 1.414 1 1 0 1 0 1.414-1.414m-23.156 23.156a.998.998 0 0 0-1.414 0 .999.999 0 1 0 1.414 0m34.735-34.735a1 1 0 1 0-1.415 1.414 1 1 0 0 0 1.415-1.414M187.6 65.5a1 1 0 1 0-1.414 1.414A1 1 0 0 0 187.6 65.5m11.578-11.578a1 1 0 1 0-1.414 1.415 1 1 0 0 0 1.414-1.415m-73.65 32.866a.999.999 0 1 0 1.414-1.414.999.999 0 1 0-1.414 1.414m11.578-11.578a1 1 0 1 0 0-1.414.999.999 0 0 0 0 1.414m-23.156 23.156a.999.999 0 1 0 1.414-1.414.999.999 0 1 0-1.414 1.414m34.735-34.734a1 1 0 1 0 1.414-1.414 1 1 0 0 0-1.414 1.414m11.578-11.579a1.001 1.001 0 1 0 1.415-1.416 1.001 1.001 0 0 0-1.415 1.416m11.578-11.579a1 1 0 1 0 1.415-1.414 1 1 0 1 0-1.415 1.414m12.993-11.578a.999.999 0 1 0-1.414-1.414.998.998 0 0 0 0 1.414.998.998 0 0 0 1.414 0M137.857 86.64a.999.999 0 1 0 1.415 1.414.999.999 0 1 0-1.415-1.414m11.579-11.578a.999.999 0 1 0 1.414 1.414.999.999 0 1 0-1.414-1.414m-23.157 23.156a.998.998 0 0 0 0 1.414.999.999 0 1 0 0-1.414m34.735-34.734a.999.999 0 1 0 1.414 1.414.999.999 0 1 0-1.414-1.414m11.578-11.578a.999.999 0 1 0 1.414 1.414.999.999 0 1 0-1.414-1.414m11.578-11.578a.999.999 0 1 0 1.414 1.414.999.999 0 1 0-1.414-1.414m-45.046 60.055a.999.999 0 1 0 1.414-1.414.999.999 0 1 0-1.414 1.414m11.578-11.579a.999.999 0 1 0 1.414-1.414.999.999 0 1 0-1.414 1.414m-23.156 23.157a.999.999 0 1 0 1.414-1.414.999.999 0 1 0-1.414 1.414m34.734-34.735a.999.999 0 1 0 1.414-1.414.999.999 0 1 0-1.414 1.414m11.578-11.578a.999.999 0 1 0 1.414-1.414.999.999 0 1 0-1.414 1.414m11.579-11.578a.999.999 0 1 0 1.414-1.414.999.999 0 1 0-1.414 1.414m12.992-11.578a.999.999 0 1 0-1.414 0 .999.999 0 0 0 1.414 0m-87.843 154.402a.999.999 0 1 0 0 1.414.999.999 0 0 0 0-1.414m11.578-11.578a.999.999 0 1 0 0 1.414.999.999 0 0 0 0-1.414m-23.156 23.156a.999.999 0 1 0-1.414 1.412.999.999 0 0 0 1.414-1.412m34.734-34.734a.999.999 0 1 0 0 1.414.999.999 0 0 0 0-1.414m11.578-11.578a.999.999 0 1 0 0 1.414.998.998 0 0 0 0-1.414m11.579-11.58a.999.999 0 1 0 0 1.414.998.998 0 0 0 0-1.413m-72.235 32.866a1 1 0 1 0-1.414-1.414 1 1 0 0 0 1.414 1.414m11.578-11.578a.999.999 0 0 0 0-1.414.997.997 0 0 0-1.414 0 .999.999 0 1 0 1.414 1.414M71.671 193.61a1 1 0 1 0 1.414 1.414 1 1 0 0 0-1.414-1.414m36.15-33.32a.999.999 0 0 0 0-1.414.997.997 0 0 0-1.415 0 .999.999 0 1 0 1.414 1.414m11.579-11.58a.999.999 0 1 0-1.415-1.413 1 1 0 1 0 1.415 1.414m11.578-11.578a.999.999 0 1 0-1.414-1.414.998.998 0 0 0 0 1.414.998.998 0 0 0 1.414 0M96.99 183.298a.999.999 0 1 0-1.414 1.414.999.999 0 1 0 1.414-1.414m11.578-11.579a.999.999 0 1 0-1.414 1.414.999.999 0 1 0 1.414-1.414m-23.156 23.157A.999.999 0 1 0 84 196.29a.999.999 0 1 0 1.414-1.414m34.735-34.735a.999.999 0 1 0-1.415 1.414.999.999 0 1 0 1.415-1.414m11.578-11.578a.999.999 0 1 0-1.414 1.414.999.999 0 1 0 1.414-1.414m11.578-11.578a.999.999 0 1 0-1.414 1.414.999.999 0 1 0 1.414-1.414M98.258 197.04a.999.999 0 1 0-1.414 0 .999.999 0 0 0 1.414 0m11.579-11.578a1 1 0 1 0-1.414-1.414 1 1 0 0 0 1.414 1.414m-24.571 21.742a.999.999 0 1 0 1.414 1.414.999.999 0 1 0-1.414-1.414m36.15-33.32A1 1 0 1 0 120 172.47a1 1 0 0 0 1.414 1.414m11.578-11.579a.999.999 0 1 0-1.414-1.414.999.999 0 1 0 1.414 1.414m11.578-11.578a.999.999 0 1 0-1.414-1.414.999.999 0 1 0 1.414 1.414m35.484-23.303a.999.999 0 1 0 0 1.414.998.998 0 0 0 0-1.414m11.578-11.579a1 1 0 1 0-1.414 1.414 1 1 0 0 0 1.414-1.414m-23.156 23.157a.999.999 0 1 0 0 1.414.998.998 0 0 0 0-1.414m34.735-34.735a1 1 0 1 0-1.416 1.413 1 1 0 0 0 1.416-1.413m11.578-11.579a1.001 1.001 0 1 0-1.415 1.416 1.001 1.001 0 0 0 1.415-1.416m11.578-11.578a1 1 0 1 0-1.414 1.414 1 1 0 0 0 1.414-1.414m-72.235 32.866a.999.999 0 1 0-1.414-1.414.999.999 0 1 0 1.414 1.414m11.578-11.578a.999.999 0 1 0-1.414-1.414.999.999 0 1 0 1.414 1.414m-23.156 23.156a.999.999 0 1 0-1.414-1.414.999.999 0 1 0 1.414 1.414m34.734-34.734a1 1 0 1 0-1.414-1.415 1 1 0 0 0 1.414 1.415m11.578-11.578a1 1 0 1 0-1.413-1.415 1 1 0 0 0 1.413 1.415m11.578-11.578a1 1 0 1 0-1.413-1.415 1 1 0 0 0 1.413 1.415m11.579-11.58a.999.999 0 1 0-1.414 0 .998.998 0 0 0 1.413 0m-45.562 57.745a1 1 0 1 0-1.415 1.414 1 1 0 0 0 1.415-1.414m11.578-11.578a1 1 0 1 0-1.415 1.413 1 1 0 0 0 1.415-1.413m-23.156 23.156a1 1 0 1 0-1.415 1.414 1 1 0 0 0 1.415-1.414m34.734-34.734a.999.999 0 1 0-1.414 1.414.999.999 0 1 0 1.414-1.414m11.578-11.579a.999.999 0 1 0-1.414 1.414.999.999 0 1 0 1.414-1.414m11.579-11.578a.999.999 0 1 0-1.415 1.414.999.999 0 1 0 1.415-1.414m-45.046 60.055a.999.999 0 1 0-1.414-1.414.999.999 0 1 0 1.414 1.414m11.578-11.578a.999.999 0 1 0-1.414-1.414.999.999 0 1 0 1.414 1.414m-23.157 23.156a.999.999 0 1 0-1.414-1.414.999.999 0 1 0 1.414 1.414m34.735-34.734A.999.999 0 1 0 189.47 103a.999.999 0 1 0 1.414 1.414m11.578-11.578a.999.999 0 1 0-1.414-1.414.999.999 0 1 0 1.414 1.414m11.578-11.578a.999.999 0 1 0-1.414-1.414.999.999 0 1 0 1.414 1.414m11.578-11.579a.999.999 0 1 0-1.414-1.414.999.999 0 1 0 1.414 1.414m-87.843 154.4a1 1 0 1 0-1.415 1.414 1 1 0 0 0 1.415-1.413m11.578-11.578a.999.999 0 1 0-1.413 1.414.995.995 0 0 0 1.413 0 .999.999 0 0 0 0-1.414m-23.156 23.156a1 1 0 1 0-1.415 1.414 1 1 0 0 0 1.415-1.414m34.735-34.734a.999.999 0 1 0-1.414 1.414.995.995 0 0 0 1.414 0 .999.999 0 0 0 0-1.414m11.578-11.579a.999.999 0 1 0-1.414 1.414.995.995 0 0 0 1.414 0 .999.999 0 0 0 0-1.414m11.578-11.578a.999.999 0 1 0-1.414 1.414.999.999 0 1 0 1.414-1.414m-46.46 58.641a1.001 1.001 0 0 0 0 1.416.997.997 0 0 0 1.414-.002.999.999 0 1 0-1.414-1.414m11.578-11.578a.999.999 0 0 0 0 1.414.995.995 0 0 0 1.414 0 .999.999 0 1 0-1.414-1.414m-23.156 23.156a1.001 1.001 0 1 0 1.416 1.416 1.001 1.001 0 0 0-1.416-1.416m34.734-34.734a.999.999 0 0 0 0 1.414.995.995 0 0 0 1.414 0 .999.999 0 1 0-1.414-1.414m11.578-11.578a.999.999 0 0 0 0 1.414.995.995 0 0 0 1.414 0 .999.999 0 1 0-1.414-1.414m11.578-11.579a.999.999 0 1 0 1.415 1.414.999.999 0 1 0-1.414-1.414m-72.088 20.538a.999.999 0 1 0-1.414-1.414.999.999 0 1 0 1.414 1.414m11.578-11.579a.999.999 0 1 0-1.414-1.414.999.999 0 1 0 1.414 1.414m-24.57 21.743a.999.999 0 1 0 1.414 1.417.999.999 0 0 0-1.415-1.417m36.149-33.32a.999.999 0 1 0-1.414-1.415.999.999 0 1 0 1.414 1.414m11.578-11.578a.999.999 0 1 0-1.414-1.414.999.999 0 1 0 1.414 1.414m11.578-11.578a.999.999 0 1 0-1.414-1.414.999.999 0 1 0 1.414 1.414m-33.984 46.166a.999.999 0 1 0-1.414 1.414.999.999 0 1 0 1.414-1.414m11.578-11.578a.999.999 0 1 0-1.414 1.414.999.999 0 1 0 1.414-1.414m-23.156 23.156a.999.999 0 1 0-1.414 1.414.999.999 0 1 0 1.414-1.414m34.734-34.734a.999.999 0 1 0-1.414 1.414.999.999 0 1 0 1.414-1.414m11.578-11.578a.999.999 0 1 0-1.414 1.414.999.999 0 1 0 1.414-1.414m11.578-11.578a.999.999 0 1 0-1.414 1.414.999.999 0 1 0 1.414-1.414m-45.046 60.054a.999.999 0 1 0-1.414-1.414 1 1 0 1 0 1.414 1.414m11.578-11.578a.999.999 0 1 0-1.414-1.414.999.999 0 1 0 1.414 1.414m-24.57 21.742a1 1 0 1 0 1.415 1.414 1 1 0 0 0-1.416-1.414m36.15-33.32a.999.999 0 0 0 0-1.414.999.999 0 1 0 0 1.414m11.578-11.578a.999.999 0 0 0 0-1.414.999.999 0 1 0 0 1.414m11.578-11.578a.999.999 0 0 0 0-1.414 1 1 0 1 0 0 1.414m35.484-23.305a.999.999 0 1 0-1.414 1.414.999.999 0 1 0 1.414-1.414m11.578-11.578a.999.999 0 1 0-1.414 1.414.999.999 0 1 0 1.414-1.414m-23.156 23.156a.999.999 0 1 0-1.414 1.414.999.999 0 1 0 1.414-1.414m34.734-34.734a.999.999 0 1 0-1.414 1.414.999.999 0 1 0 1.414-1.414m11.578-11.578a.999.999 0 1 0-1.413 1.414.999.999 0 1 0 1.413-1.414m11.579-11.578a.999.999 0 1 0-1.414 1.414.999.999 0 1 0 1.414-1.414m-46.46 58.64a1 1 0 1 0 1.415 1.414 1 1 0 0 0-1.415-1.414m11.578-11.578a1 1 0 1 0 1.415 1.414 1 1 0 0 0-1.415-1.414m-23.156 23.156a.999.999 0 1 0 1.414 1.414 1 1 0 1 0-1.414-1.414m34.734-34.734a.998.998 0 0 0 .001 1.414.999.999 0 1 0 1.414-1.414 1 1 0 0 0-1.415 0m11.58-11.578a.999.999 0 1 0 1.414 0 .999.999 0 0 0-1.415 0m11.578-11.578a.999.999 0 1 0 1.414 0 .999.999 0 0 0-1.414 0m12.992-11.578a.999.999 0 1 0-1.414 1.414.999.999 0 1 0 1.414-1.414m-85.08 32.115a.999.999 0 1 0-1.415-1.414 1 1 0 1 0 1.414 1.414m11.578-11.578a.999.999 0 1 0-1.414 0 .999.999 0 0 0 1.414 0m-23.156 23.156a.999.999 0 1 0-1.414-1.414.999.999 0 1 0 1.414 1.414m34.735-34.734a.999.999 0 1 0-1.414 0 .999.999 0 0 0 1.414 0m11.578-11.579a.999.999 0 1 0-1.414 0 .999.999 0 0 0 1.414 0m11.578-11.578a.999.999 0 1 0-1.414 0 .999.999 0 0 0 1.414 0m11.579-11.578a.998.998 0 0 0-.001-1.414.999.999 0 1 0-1.414 1.414 1 1 0 0 0 1.415 0m-45.564 57.744a.999.999 0 1 0-1.414 1.414.999.999 0 1 0 1.414-1.414m11.579-11.578a.999.999 0 1 0-1.414 1.414.999.999 0 1 0 1.414-1.414m-23.157 23.156a.999.999 0 1 0-1.414 1.414.999.999 0 1 0 1.414-1.414m34.735-34.734a.999.999 0 1 0-1.414 1.414.999.999 0 1 0 1.414-1.414m11.578-11.578a.999.999 0 1 0-1.414 1.414.999.999 0 1 0 1.414-1.414m11.578-11.578a.999.999 0 1 0-1.414 1.414.999.999 0 1 0 1.414-1.414m-45.046 60.054a1 1 0 1 0-1.414-1.415 1 1 0 0 0 1.414 1.415m11.578-11.579a.999.999 0 1 0-1.414-1.414 1 1 0 1 0 1.414 1.414m-23.156 23.158a.999.999 0 1 0-1.414-1.414 1 1 0 1 0 1.414 1.414m34.734-34.736a.999.999 0 1 0-1.414-1.414 1 1 0 1 0 1.414 1.414m11.578-11.578a.999.999 0 1 0-1.414 0 .999.999 0 0 0 1.414 0m11.578-11.578a1 1 0 1 0-1.414-1.414 1 1 0 0 0 1.414 1.414m11.579-11.578a1 1 0 1 0-1.414-1.414 1 1 0 0 0 1.414 1.414M56.208 142.514a.999.999 0 1 0-1.414 1.414.999.999 0 1 0 1.414-1.414m11.578-11.578a.999.999 0 1 0-1.414 1.414.999.999 0 1 0 1.414-1.414M44.63 154.092a.999.999 0 1 0-1.414 1.414.999.999 0 1 0 1.414-1.414m34.734-34.734a.999.999 0 1 0-1.414 1.414.999.999 0 1 0 1.414-1.414m11.578-11.578a.999.999 0 1 0-1.414 1.414.999.999 0 1 0 1.414-1.414m11.579-11.578a.999.999 0 1 0-1.414 1.414.999.999 0 1 0 1.413-1.414m-72.235 32.865a.999.999 0 1 0-1.414 0 .999.999 0 0 0 1.414 0m11.58-11.578a.999.999 0 0 0-.002-1.414.999.999 0 1 0-1.414 1.414 1 1 0 0 0 1.415 0m-24.571 21.742a.999.999 0 1 0 1.414 1.414.999.999 0 1 0-1.414-1.414" fill="#80D8A9"/>
        <g transform="translate(113.176 124.824)">
            <mask id="lp62u5ocyb" fill="#fff">
                <use xlink:href="#9pi84ccnta"/>
            </mask>
            <path d="M1.587 6.41.151 2.974C-.273 1.957.228.8 1.27.387a5.455 5.455 0 0 1 5.54.9L7.647 2 7.56 3.081C7.398 5.047 6.113 6.757 4.242 7.5c-1.042.413-2.233-.074-2.655-1.09" fill="#42210B" mask="url(#lp62u5ocyb)"/>
        </g>
        <path d="m115.976 129.952-1.15-2.75c-.339-.814.063-1.738.896-2.07a4.37 4.37 0 0 1 4.43.721l.672.57-.072.865c-.13 1.572-1.156 2.94-2.656 3.535-.832.331-1.783-.058-2.12-.871" fill="#7F3401"/>
        <path d="M119.277 129.412c.474.002.95-.302 1.114-.76l-.197.425c.197-.265.368-.553.506-.858.083-.18.154-.378.11-.574-.037-.179-.167-.322-.29-.455-.237-.254-.48-.51-.79-.664a1.796 1.796 0 0 0-.671-.17c-.422-.026-.892.093-1.12.456a1.219 1.219 0 0 0-.158.52c-.057.48.034.99.301 1.393.266.4.719.683 1.195.687" fill="#FFF" opacity=".456"/>
        <g transform="translate(104 123.294)">
            <mask id="rnk7o56m6d" fill="#fff">
                <use xlink:href="#gx1ddmwnsc"/>
            </mask>
            <path d="M9.573 7.53c.864 1.199 2.986 2.123 4.192 1.831-2.197-1.363-1.907-1.729-2.699-2.922l-.015-.02.562-.237c.71-.298 1.437-.903 1.624-2.006-1.021-.675-1.98-.332-3.038.138-.306-.943-.218-1.665-.015-2.617.082-.383.314-1.235.657-1.697C9.502.485 8.333 2.72 8.363 4.538L3.296 6.953c-.873.417-1.684.76-2.493 1.128a1.37 1.37 0 0 0-.665 1.847c.318.653 1.09.95 1.768.677L9.573 7.53z" fill="#AC7B46" mask="url(#rnk7o56m6d)"/>
        </g>
        <path d="M106.929 132.947c.312-.174.608-.388.923-.557.315-.17.646-.295.96-.471.547-.308 1.022-.767 1.527-1.167.275-.22.615-.432.93-.296.214.093.36.328.56.461.2.13.53.074.557-.194-.113-.073-.08-.292.024-.386.102-.091.238-.109.358-.162a.733.733 0 0 0 .326-.32.6.6 0 0 0 .074-.394c-.029-.136-.134-.254-.25-.246-.067.005-.127.045-.191.06-.16.05-.33-.042-.445-.182-.115-.138-.185-.32-.252-.495-.117-.313-.238-.627-.262-.968-.02-.275.028-.551.08-.821.142-.683.34-1.345.585-1.985-.077.131-.157.263-.238.392-.522.96-.87 2.208-.855 3.32l-4.451 2.53c-.767.438-1.48.797-2.19 1.183-.565.306-.827 1.066-.638 1.751.932-.406 1.961-.55 2.868-1.053" fill="#7F3401"/>
        <path d="m93.85 140.094.914 3.593c.27 1.06-.398 2.136-1.494 2.397-1.971.47-4.046-.173-5.367-1.668l-.727-.82.249-1.056c.453-1.915 1.982-3.424 3.952-3.894 1.095-.261 2.2.386 2.473 1.448" fill="#42210B"/>
        <path d="m92.515 141.322.73 2.875c.218.85-.317 1.706-1.193 1.917-1.577.377-3.236-.14-4.294-1.334l-.582-.657.2-.843c.362-1.535 1.585-2.738 3.16-3.116.876-.21 1.762.308 1.979 1.158" fill="#7F3401"/>
        <path d="M88.96 141.66c-.473-.071-.994.155-1.22.577l.256-.385c-.236.23-.447.486-.627.762-.105.164-.207.349-.19.543.011.182.12.339.225.485.199.282.406.567.69.762.196.13.418.214.65.263.416.088.904.04 1.18-.281.12-.135.187-.307.234-.48.123-.464.106-.971-.103-1.403-.21-.43-.621-.772-1.096-.843" fill="#FFF" opacity=".43"/>
        <path d="M94.318 140.882c-.673-1.24-2.624-2.394-3.853-2.287 1.964 1.577 1.625 1.882 2.23 3.106l.011.022-.584.145c-.74.184-1.544.651-1.887 1.66.908.77 1.898.583 3.006.282.164.926-.028 1.59-.365 2.454-.134.347-.483 1.118-.888 1.5 1.387-.272 2.857-2.21 3.09-3.914l5.324-1.579c.92-.268 1.767-.482 2.613-.715.737-.206 1.15-.946.922-1.64-.22-.655-.935-1.039-1.64-.875l-7.979 1.841z" fill="#AC7B46"/>
        <path d="M100.667 139.14c-.37.117-.728.278-1.098.394-.37.114-.754.178-1.124.3-.647.21-1.236.583-1.849.895-.334.17-.736.32-1.065.132-.225-.127-.355-.386-.558-.551-.204-.165-.576-.165-.642.096.116.093.047.303-.08.377-.124.075-.277.069-.416.102a.762.762 0 0 0-.405.257.545.545 0 0 0-.134.381c.012.138.113.27.242.283.074.01.147-.02.22-.026.182-.02.359.1.464.256.11.156.162.348.213.535.088.328.178.66.157 1-.016.276-.107.541-.202.8a11.376 11.376 0 0 1-.915 1.864c.103-.118.21-.234.315-.35.708-.856 1.266-2.036 1.4-3.138l5.26-1.744c.91-.298 1.748-.533 2.583-.793.668-.206 1.061-.915.948-1.622-1.087.239-2.244.21-3.314.551" fill="#7F3401"/>
        <path d="m100.78 133.951-1.478 3.422c-.437 1.01-1.63 1.485-2.668 1.059-1.863-.768-3.128-2.49-3.264-4.458l-.076-1.084.847-.702a5.466 5.466 0 0 1 5.552-.838c1.04.426 1.525 1.592 1.088 2.601" fill="#42210B"/>
        <path d="m99.285 133.349-1.182 2.738c-.35.81-1.305 1.188-2.135.846-1.492-.611-2.502-1.992-2.611-3.567l-.063-.865.678-.562a4.369 4.369 0 0 1 4.443-.67 1.576 1.576 0 0 1 .87 2.08" fill="#7F3401"/>
        <path d="M97.45 132.874c-.364-.324-.957-.447-1.426-.254l.471-.15c-.353.044-.7.122-1.035.228-.195.064-.403.147-.516.307-.105.145-.113.327-.118.501-.006.328-.012.667.107.977.084.21.225.402.392.57.302.305.753.545 1.2.458.188-.037.36-.13.511-.234.407-.284.721-.684.815-1.133a1.329 1.329 0 0 0-.402-1.27" fill="#FFF" opacity=".456"/>
        <path d="M102.207 134.795c.23-1.322-.557-3.269-1.55-3.854.545 2.282.108 2.33-.163 3.603l-.004.023-.53-.207c-.668-.26-1.553-.335-2.41.253.225 1.087 1.088 1.48 2.103 1.85-.427.802-.967 1.21-1.737 1.693-.307.194-1.03.596-1.563.672 1.21.544 3.473-.147 4.663-1.333l4.96 1.678c.854.29 1.62.587 2.397.867.678.242 1.432-.104 1.671-.763.227-.621-.088-1.305-.716-1.565l-7.12-2.917z" fill="#AC7B46"/>
        <path d="M107.267 138.076c-.348-.117-.712-.197-1.058-.318-.348-.118-.677-.276-1.027-.391-.615-.201-1.27-.26-1.91-.378-.349-.063-.743-.177-.895-.474-.103-.205-.062-.447-.13-.663-.068-.217-.353-.417-.545-.275.038.123-.13.225-.267.21-.135-.017-.25-.102-.376-.152a.786.786 0 0 0-.453-.041c-.121.026-.243.083-.307.184-.067.097-.061.24.032.318.055.043.125.061.184.095.152.084.222.257.22.419-.002.163-.066.318-.127.47-.11.265-.22.536-.42.752-.162.177-.377.305-.589.428-.544.305-1.12.556-1.717.763.146-.024.29-.046.433-.065 1.011-.201 2.079-.694 2.778-1.36l4.999 1.611c.861.281 1.634.566 2.416.836.629.212 1.314-.054 1.61-.588-.967-.412-1.842-1.042-2.851-1.381" fill="#7F3401"/>
        <g>
            <path d="M17.448 135.848a27.45 27.45 0 0 0-6.839 3.577 10.002 10.002 0 0 0-3.148 3.768c-.94 1.934-1.622 4-2.024 6.135l-.244 1.286a12.28 12.28 0 0 0 4.663-2.87 21.465 21.465 0 0 0 2.347-2.72l2.3-3.168a48.639 48.639 0 0 1 4.315-5.158l1.433-1.493-.122-.304-2.681.947zM9.013 131.234c-1.091 0-2.163.331-3.098.957l-.575.389a11.556 11.556 0 0 1-3.286 1.533 1.58 1.58 0 0 0-.762.498l-.253.299.34.155a8.86 8.86 0 0 0 2.561.728l.411.052a13.63 13.63 0 0 0 2.823.055l2.36-.203c.613-.05 1.235-.132 1.848-.24l4.809-.836 3.022-.688-4.513-1.672a16.302 16.302 0 0 0-5.687-1.027" fill="#603813"/>
            <path d="M4.27 134.516c.528-.112 1.443-.668 1.767-.967.317-.296.728-.548 1.12-.74.41-.196 1.024-.423 1.477-.485.467-.065.987-.036 1.458-.032.945.007 1.85.193 2.755.456.935.273 1.775.744 2.71 1.02.5.144 1.01.288 1.523.344l.035.002c.148.017-.538 1.422-1.2 1.956-.75.61-1.662.985-2.568 1.332-.504.193-1.013.383-1.544.498-1.208.266-2.485.144-3.668-.22-1.18-.366-2.278-.96-3.31-1.635-.54-.354-1.074-.736-1.68-.967-.364-.14-.753-.223-1.068-.45.702.04.997.14 2.192-.112" fill="#42210B"/>
            <path d="m15.059 134.554-1.811-.676a5.91 5.91 0 0 1-.56-.245l-.008-.004a7.623 7.623 0 0 0-3.446-.823c-.796 0-1.579.227-2.266.658l-.131.08a4.759 4.759 0 0 0-1.644 1.758l1.945 2.27 3.746.472 4.175-3.49z" fill="#BA4E04"/>
            <path d="M15.412 134.567c-.68-.302-1.157-.593-1.837-.889-.68-.293-1.434-.724-2.147-.876a8.103 8.103 0 0 0-2.245-.126 5.302 5.302 0 0 0-1.951.561c-.583.31-1.243 1.081-1.625 1.546a6.184 6.184 0 0 0-.408.63c-.06.113.332-.67.37-.734.773-1.25 1.93-2.052 3.243-2.244.72-.106 1.122-.203 1.846-.125.765.08 1.865.36 2.585.653.833.34 1.998.912 2.825 1.28.177.077-.503.392-.656.324" fill="#FFC34B"/>
            <path d="M7.177 133.759c.555-.112 1.133-.124 1.706-.132.807-.013 1.649-.011 2.38.271.547.211 1.042.577 1.645.585l.074.027c-.494.12-1.02-.027-1.529.004-.192.013-.379.05-.57.071-.343.038-.69.02-1.032.003-.242-.01-.487-.023-.73-.036-.203-.01-.403-.02-.605-.04-.424-.042-.841-.125-1.267-.167-.424-.041-.867-.04-1.266.083-.088.027-.188.06-.271.025.369-.361.91-.583 1.465-.694" fill="#EA793B"/>
            <path d="M11.275 133.045c.21.034.412.094.614.155.894.27 1.749.626 2.65.874l-.002.044a3.573 3.573 0 0 1-.632.209.755.755 0 0 1-.156.02.859.859 0 0 1-.293-.06 13.51 13.51 0 0 1-1.189-.47c-.172-.076-.34-.152-.513-.22-.29-.117-.595-.207-.896-.296a43.666 43.666 0 0 0-1.352-.302c-.722-.15-1.403-.08-2.236.073 1.516-.326 2.365-.296 4.005-.027" fill="#603813"/>
            <path d="M8.946 134.626c.298-.02.598-.043.89-.12.265-.07.519-.177.785-.243.399-.102.816-.102 1.228-.111a26.29 26.29 0 0 0 5.702-.755c.927-.228 1.46.183.936.335-.525.153-1.014.43-1.53.625-.773.296-1.596.403-2.384.654-1.9.608-3.618 2.057-5.602 1.982-.459-.019-.91-.118-1.357-.218-1.12-.25-2.255-.507-3.278-1.05-.709-.38-1.347-.888-1.982-1.39-.118-.096-.246-.204-.277-.36a22.01 22.01 0 0 0 6.87.651" fill="#7F3401"/>
            <path fill="#F96806" d="m19.97 134.082.038-.162-1.071.39z"/>
            <path d="m15.654 125.526-.079-.023-2.593-1.078.282.901a9.985 9.985 0 0 0 1.357 2.764 7.25 7.25 0 0 0 2.304 2.116l3.62 2.076.226-.11-1.89-4.05c-.634-1.361-1.838-2.331-3.227-2.596" fill="#603813"/>
            <path d="M18.965 128.803c-.119-.331-.203-.68-.374-.981-.29-.503-.783-.812-1.265-1.085-.463-.263-.939-.513-1.446-.652-.568-.158-1.173-.18-1.708-.435a2.417 2.417 0 0 1-1.15-1.205l-.04-.02c.464.613.357 1.526.616 2.272.164.475.475.874.65 1.34.123.333.178.692.273 1.035.229.84.734 1.616 1.454 1.997.453.239.968.31 1.431.526.193.09.377.206.566.297.868.425 1.85.405 2.799.377-.455-1.236-1.363-2.225-1.806-3.466" fill="#42210B"/>
            <path d="m13.5 126.547.119 1.042c.262.978.914 1.933 1.522 2.706.287.362 1.018.583 1.413.791.821.437 1.724.666 2.638.672h.02l-.115-1.018a5.161 5.161 0 0 0-1.182-2.777 3.909 3.909 0 0 0-1.615-1.139c-.494-.183-2.284-.375-2.8-.277" fill="#D65803"/>
            <path d="M16.54 128.989c.123.112.404.358.527.468.154.135.325.27.46.423.132.154.643.557 1.212 1.434.317.488.45 1.11.469.94.03-.265-.087-.708-.173-.903-.169-.4-.83-1.157-.964-1.34a3.396 3.396 0 0 0-.44-.467c-.334-.297-.668-.59-1.002-.883-.338-.297-.667-.63-1.03-.89-.195-.136-1.062-.583-1.216-.608-1.046-.182-1.097-.143-.493.038.283.087.552.197.808.322 1.006.492 1.513 1.184 1.841 1.466" fill="#FFC34B"/>
            <path d="M14.577 126.525c.467-.023.94.04 1.387.184.138.043.273.096.397.169.113.066.218.15.317.236a8.14 8.14 0 0 1 1.492 1.666c.095.14.186.284.259.436.134.28.206.588.261.895.004.023.008.047-.008.064-.026.032-.073-.007-.097-.04-.308-.464-.65-.913-1.074-1.261-.283-.233-.605-.42-.849-.7-.09-.104-.17-.222-.259-.326-.154-.182-.342-.326-.528-.471-.194-.155-.39-.306-.586-.458-.227-.178-.469-.362-.75-.398l.038.004zM14.95 127.985c.519.331.977.802 1.424 1.267.19.195.378.391.568.584.14.145.278.29.409.447.267.331.492.727.823.951-.361-.073-.723-.144-1.087-.22-.218-.043-.441-.089-.643-.212-.356-.223-.605-.666-.963-.886-.133-.082-.278-.134-.388-.257a1.143 1.143 0 0 1-.14-.223 50.653 50.653 0 0 1-.933-1.868c.319.089.634.227.93.417M14.28 127.292l.016.028c-.01-.003-.022-.01-.033-.01l.018-.018z" fill="#EA793B"/>
            <path d="M19.828 131.891c-.178-.065-.37-.103-.524-.219-.158-.12-.261-.315-.421-.43-.091-.067-.194-.106-.298-.144l-.651-.242a.833.833 0 0 1-.251-.126c-.06-.05-.106-.114-.164-.164-.118-.1-.272-.13-.415-.175-.3-.1-.567-.282-.832-.463-.144-.1-.29-.197-.435-.294-.217-.15-.436-.299-.628-.48-.227-.207-.415-.454-.603-.698a62.201 62.201 0 0 0-.53-.692c-.094-.122-.189-.244-.247-.39-.071-.167-.091-.352-.132-.528-.093-.406-.425-.804-.621-1.162-.106-.19-.508-1.068-.614-1.259.158.77.794 2.177.772 2.926-.013.408-.06.837.097 1.206.141.34.435.577.728.766.561.363 1.174.617 1.753.95.719.414 1.377.95 2.095 1.369.719.418 1.533.72 2.344.621-.06-.193-.245-.307-.423-.372" fill="#7F3401"/>
            <path fill="#F96806" d="m18.174 132.028 2.316 1.032.212-.082.069-.216z"/>
            <path d="m25.937 121.942-.05-.66-1.24.668a7.073 7.073 0 0 0-3.05 3.183 3.107 3.107 0 0 0-.295 1.625l.386 4.34.318.136 2.036-3.06c.301-.453.588-.923.85-1.4a8.581 8.581 0 0 0 1.045-4.832" fill="#603813"/>
            <path d="M21.884 127.42c-.007-.33.123-.675.173-1.003.084-.547.404-1.007.729-1.432.31-.41.638-.812 1.025-1.132.436-.36.944-.615 1.322-1.047.347-.398.56-.937.59-1.49l.031-.033c-.2.711.188 1.456.208 2.203.013.473-.123.937-.123 1.411.002.334.073.663.103.999.076.813-.103 1.681-.596 2.29-.311.386-.727.652-1.054 1.02-.136.153-.255.323-.389.48-.604.705-.78 1.195-1.602 1.545-.779.115-.394-2.564-.417-3.81" fill="#42210B"/>
            <path d="m25.682 123.378.26 1.03c.1 1.032-.163 2.208-.455 3.195-.137.463-.738.98-1.03 1.346a6.14 6.14 0 0 1-2.206 1.752l-.019.01-.252-1.005a5.535 5.535 0 0 1 .113-3.116 4.377 4.377 0 0 1 1.09-1.76c.395-.383 1.986-1.326 2.499-1.452" fill="#D65803"/>
            <path d="m23.818 126.489-.326.666c-.095.19-.206.388-.275.59-.071.2-.405.795-.623 1.863-.12.592-.023 1.231-.104 1.08-.122-.235-.17-.701-.16-.92.015-.45.364-1.44.425-1.669a3.57 3.57 0 0 1 .243-.625c.205-.419.414-.836.62-1.256.21-.423.397-.874.643-1.27.132-.213.785-1.001.917-1.091.912-.614.972-.6.475-.173a6.29 6.29 0 0 0-.64.645c-.76.892-.992 1.754-1.195 2.16" fill="#FFC34B"/>
            <path d="M22.414 127.744c.165-.697.423-1.37.768-1.999.06-.11.125-.224.205-.322.089-.111.194-.207.302-.295a4.053 4.053 0 0 1 1.204-.684l.032-.019c-.245.139-.4.388-.543.627l-.374.613c-.115.197-.235.392-.311.606-.043.126-.075.255-.12.379-.123.333-.35.615-.526.925-.265.459-.416.972-.531 1.49-.01.037-.037.086-.073.072-.02-.01-.027-.033-.03-.055a3.141 3.141 0 0 1-.083-.865c.012-.16.043-.316.08-.473M25.198 124.68c-.01.007-.018.017-.027.023a.195.195 0 0 0 .003-.031l.024.007z" fill="#EA793B"/>
            <path d="M23.289 128.018c.065-.184.144-.36.224-.535l.327-.715c.257-.567.518-1.141.885-1.623.21-.275.454-.516.719-.72-.065.647-.14 1.292-.233 1.935a.977.977 0 0 1-.053.243c-.057.147-.175.247-.27.369-.254.325-.334.793-.59 1.12-.144.185-.334.31-.52.434-.31.204-.62.41-.93.613.228-.317.306-.74.44-1.12" fill="#EA793B"/>
            <path d="M22.438 130.03c.097-.163.119-.366.217-.527.054-.091.13-.164.206-.235l.47-.45c.065-.063.13-.125.173-.205.035-.065.054-.138.086-.201.066-.13.19-.213.293-.306.221-.198.39-.454.556-.71.09-.137.182-.277.27-.415.136-.21.272-.416.378-.644.12-.263.2-.545.28-.825l.223-.787a1.82 1.82 0 0 0 .084-.423c.004-.168-.04-.334-.063-.5-.052-.38.098-.842.148-1.22.026-.202.08-1.098.108-1.3.117.712.039 2.145.303 2.773.143.342.325.687.312 1.062-.01.341-.179.653-.368.927-.355.52-.793.97-1.172 1.468-.476.627-.856 1.33-1.33 1.96-.472.626-.561 1.54-1.282 1.762-.01-.184.015-1.048.108-1.205" fill="#7F3401"/>
            <path d="m33.732 128.377 4.694-3.28-.076-.01a19.76 19.76 0 0 0-5.55.125c-1.99.325-3.788 1.514-5.063 3.35l-.168.239a17.676 17.676 0 0 1-3.164 3.481l4.617-1.61 4.71-2.295z" fill="#603813"/>
            <path d="M36.307 126.43c-.483.12-1.467-.004-1.856-.14-.38-.134-.824-.19-1.226-.197-.42-.01-1.019.04-1.422.17-.415.135-.836.374-1.227.574-.783.395-1.461.934-2.11 1.546-.672.63-1.184 1.398-1.856 2.03-.355.335-.723.675-1.128.936l-.03.019c-.117.073 1.011 1.047 1.777 1.256.865.236 1.775.196 2.665.135.499-.035.997-.075 1.484-.188 1.11-.261 2.126-.9 2.965-1.712.84-.813 1.518-1.799 2.106-2.829.31-.54.604-1.103 1.02-1.56.245-.274 1.304-.667 1.476-.997-.569.324-1.545.689-2.638.957" fill="#42210B"/>
            <path d="m27.002 131.594 1.312-1.392c.138-.147.27-.301.393-.463l.006-.007a7.93 7.93 0 0 1 2.677-2.243c.69-.35 1.45-.499 2.21-.427l.144.015c.747.07 1.466.35 2.085.813l-.83 2.849-3.066 2.067-4.931-1.212z" fill="#BA4E04"/>
            <path d="M27.144 131.652c.46-.514.754-.937 1.217-1.449.461-.504.94-1.148 1.474-1.561.527-.41 1.2-.783 1.804-1.033a5.066 5.066 0 0 1 1.79-.383c.581-.008 1.38.31 1.848.506.122.05.442.24.543.315.087.06-.493-.378-.547-.41a3.981 3.981 0 0 0-3.41-.367c-.626.221-.99.312-1.56.674-.602.38-1.411 1.05-1.908 1.575-.572.609-1.34 1.532-1.898 2.155-.119.135.543.093.647-.022" fill="#FFC34B"/>
            <path d="M29.124 130.654c.472-.248.698-.82 1.036-1.252.453-.583 1.115-.918 1.757-1.23.456-.217.919-.433 1.408-.54.486-.105 1.013-.093 1.466.13-.051.068-.144.074-.225.081-.372.032-.72.206-1.038.418-.317.214-.61.464-.924.677-.151.1-.306.19-.46.28-.188.11-.376.22-.561.33-.264.153-.53.31-.815.406-.16.055-.325.09-.482.155-.417.17-.768.53-1.207.602l.045-.057z" fill="#EA793B"/>
            <path d="M28.674 129.129c.129-.151.261-.3.41-.425 1.15-.979 1.796-1.372 3.11-1.66-.71.187-1.268.397-1.762.866-.11.103-.797.758-.917.895-.194.223-.39.447-.565.693-.105.147-.202.302-.301.455-.226.349-.463.689-.716 1.006a.75.75 0 0 1-.2.19.593.593 0 0 1-.13.042 2.37 2.37 0 0 1-.581.042l-.02-.046c.59-.649 1.098-1.393 1.672-2.058" fill="#603813"/>
            <path d="M32.192 129.2a4.415 4.415 0 0 1-.815.303c-.256.058-.515.072-.768.132-.387.094-.746.288-1.104.47a24.077 24.077 0 0 1-5.211 1.94c-.886.217-1.188.851-.681.75.514-.1 1.04-.068 1.56-.122.78-.085 1.532-.367 2.306-.496 1.874-.312 3.911.25 5.595-.745.389-.23.74-.535 1.09-.835.87-.757 1.751-1.525 2.424-2.51.469-.683 1.87-2.457 1.837-2.614-1.856 1.094-4.19 2.795-6.233 3.727" fill="#7F3401"/>
            <path d="M41.96 137.804a14.98 14.98 0 0 1-1.078-.751l-2.042-1.558c-1.17-.893-2.524-1.436-3.92-1.574a14.322 14.322 0 0 0-3.43.078l-2.094.306a14.432 14.432 0 0 1-3.26.098l-1.637-.14-.094.222 10.096 4.066c1.217.493 2.471.922 3.721 1.28l.746.214c2.218.636 4.475.782 6.727.431a13.988 13.988 0 0 0-2.091-1.627l-1.643-1.045z" fill="#603813"/>
            <path d="M41.135 139.228c-.575-.296-1.472-1.289-1.763-1.774-.286-.478-.688-.924-1.088-1.287-.415-.377-1.058-.85-1.557-1.066-.52-.22-1.122-.335-1.665-.47-1.085-.268-2.17-.294-3.279-.215-1.146.08-2.234.446-3.382.525-.61.044-1.232.08-1.834.002l-.045-.008c-.172-.023.24 2.002.853 2.892.697 1.008 1.641 1.766 2.584 2.482.525.401 1.06.796 1.634 1.1 1.316.702 2.81.916 4.265.791 1.451-.126 2.868-.576 4.23-1.148.716-.302 1.43-.642 2.188-.764.451-.073.921-.07 1.342-.269-.815-.156-1.18-.114-2.483-.791" fill="#42210B"/>
            <path d="m28.04 135.61 2.406-.303c.253-.03.504-.078.751-.139l.015-.004a8.82 8.82 0 0 1 4.454.046c.98.262 1.883.82 2.616 1.62l.14.15c.726.788 1.263 1.78 1.561 2.879l-2.99 2.375-4.733-.61-4.22-6.013z" fill="#BA4E04"/>
            <path d="M28.253 136.644c.863-.132 1.487-.317 2.352-.445.858-.122 1.839-.38 2.706-.336.855.041 1.836.252 2.648.531.742.254 1.53.683 2.15 1.212.61.519 1.198 1.58 1.54 2.212.087.164.275.655.33.83.042.142-.231-.85-.264-.932-.61-1.63-1.78-2.872-3.268-3.48-.814-.334-1.262-.564-2.125-.696-.91-.135-2.256-.155-3.166-.04-1.051.13-2.544.422-3.592.585-.225.034.494.59.69.559" fill="#FFC34B"/>
            <path d="M31.247 137.507c.69.168 1.371-.258 2.059-.424.928-.224 1.885.025 2.805.285.65.182 1.306.375 1.902.715.6.343 1.145.85 1.451 1.526-.106.029-.207-.051-.298-.12-.42-.315-.922-.448-1.422-.508-.496-.063-1-.057-1.497-.118a13.53 13.53 0 0 1-.702-.117c-.282-.056-.563-.109-.846-.162-.397-.076-.798-.152-1.174-.312-.211-.09-.415-.205-.628-.28-.571-.204-1.218-.13-1.741-.466l.09-.019z" fill="#EA793B"/>
            <path d="M23.45 147.31a14.623 14.623 0 0 0 1.4 3.536 23.2 23.2 0 0 0 4.832 6.053l.06-.338c.34-1.848.448-3.741.327-5.624l-.113-1.733a13.293 13.293 0 0 0-.69-3.45 15.616 15.616 0 0 0-2.947-5.17l-1.418-1.651-2.117-2.985-.456.123.3 5.79c.094 1.841.372 3.674.822 5.45" fill="#603813"/>
            <path d="M22.591 135.686v.003l-.006-.005.006.002zM22.334 135.948c.22.09.297.369.37.607.288.975.964 1.773 1.696 2.446.734.674 1.541 1.259 2.215 1.996 1.388 1.518 2.106 3.557 2.79 5.532.304.885.615 1.78.692 2.718.097 1.176-.174 2.346-.297 3.52-.125 1.196-.097 2.405-.066 3.609-.226-.731-.478-1.5-1.033-2.004-.222-.2-.482-.348-.732-.51-2.147-1.382-3.559-3.766-4.382-6.263-.414-1.253-.7-2.586-.516-3.896.09-.656.298-1.29.407-1.944a6.66 6.66 0 0 0-.52-3.892c-.289-.617-.682-1.237-.624-1.919" fill="#42210B"/>
            <path d="m23.352 140.662-.262 1.335a12.842 12.842 0 0 0 .105 5.448 6.291 6.291 0 0 0 1.083 2.314 12.02 12.02 0 0 0 4.068 3.455l.033.019.652-1.732a8.895 8.895 0 0 0 .24-5.513 7.67 7.67 0 0 0-1.878-3.282 6.189 6.189 0 0 0-2.596-1.596l-1.445-.448z" fill="#D65803"/>
            <path d="M24.407 141.465c.061.809.574 1.391 1.074 1.921-.025-.025.068.074.086.098.02.021.136.16.07.078.055.064.04.054.085.15.036.07.017.033.01.015.026.06.051.125.074.187.158.39.312.78.468 1.17.311.785.625 1.57.938 2.354.14.349.305.711.4 1.07.095.368.121.756.173 1.132.13.943.32 1.875.572 2.789.078.28.241.65.498.778.254.126.245-.236.197-.404-.209-.764-.378-1.54-.492-2.327-.065-.42-.103-.846-.18-1.259a6.382 6.382 0 0 0-.348-1.151c-.304-.782-.618-1.558-.928-2.335-.312-.784-.583-1.62-.967-2.362-.204-.4-.47-.721-.768-1.033a5.199 5.199 0 0 1-.245-.269c-.057-.066.019.074-.008-.008-.032-.093.046.098.002.012-.03-.062.05.216.04.056a1.403 1.403 0 0 0-.432-.857c-.197-.168-.338-.074-.319.195" fill="#FFC34B"/>
            <path d="M24.979 141.227a7.475 7.475 0 0 1 2.096 1.504c.186.187.365.388.507.613.13.205.231.43.327.654.536 1.258.903 2.59 1.096 3.95.042.305.076.612.074.919-.006.56-.13 1.109-.283 1.648-.012.037-.026.084-.064.095-.068.024-.113-.074-.12-.148-.139-1.008-.334-2.02-.747-2.939-.275-.62-.648-1.199-.82-1.857-.062-.246-.098-.498-.16-.744-.109-.422-.293-.818-.48-1.21-.195-.41-.387-.825-.584-1.237-.226-.482-.471-.984-.896-1.289l.054.041zM23.65 142.466c0 .02 0 .04-.002.059l-.046-.05.049-.009zM23.999 142.234c.437.45.824.963 1.138 1.53.549.997.877 2.128 1.198 3.248.138.468.272.936.408 1.405.1.348.2.696.271 1.054.145.74.167 1.538.507 2.19-.521-.465-1.043-.935-1.566-1.4-.312-.281-.631-.568-.848-.95-.383-.675-.402-1.562-.785-2.238-.142-.247-.334-.467-.402-.754a1.92 1.92 0 0 1-.033-.46c.01-1.21.05-2.419.112-3.625" fill="#EA793B"/>
            <path d="m29.716 131.478-5.31 1.676 1.711.132c1.023.08 2.058.05 3.077-.087l2.078-.277a16.068 16.068 0 0 1 3.589-.076c.592.053 1.18.17 1.751.346a12.125 12.125 0 0 0 2.881-3.885l2.048-4.358-6.997 4.41-4.828 2.119zM21.188 129.697c-.042.251-.078.506-.1.764l-.339-.47.562 1.21-.123-1.504z" fill="#A84502"/>
            <g transform="translate(23.367 120.235)">
                <mask id="lzb5erx01f" fill="#fff">
                    <use xlink:href="#zzwepfpj8e"/>
                </mask>
                <path d="M2.355 7.785a23.32 23.32 0 0 1-.806 1.548L0 12.047a15.974 15.974 0 0 0 3.435-3.554l.163-.228c.072-.103.147-.2.222-.3.393-1.484.443-3.068.13-4.591L3.26-.001l.143 2.14a11.459 11.459 0 0 1-1.047 5.646" fill="#A84502" mask="url(#lzb5erx01f)"/>
            </g>
            <path fill="#A84502" d="m18.174 132.028 2.316 1.032.212-.082.069-.216zM19.97 134.082l.038-.162-1.071.39z"/>
            <path d="M7.471 148.517c.352-.58.644-1.925.66-2.498.013-.56.143-1.166.31-1.697.175-.555.5-1.323.828-1.791.342-.484.807-.927 1.211-1.354.805-.85 1.732-1.502 2.728-2.08 1.028-.6 2.152-.927 3.18-1.525.546-.319 1.104-.65 1.588-1.064l.035-.03c.136-.119.768 1.799.673 2.892-.11 1.244-.558 2.418-1.023 3.561-.26.639-.527 1.275-.876 1.864-.794 1.344-1.983 2.389-3.3 3.126-1.317.739-2.762 1.188-4.22 1.503-.767.165-1.549.296-2.262.635-.428.201-.832.478-1.291.555.626-.602.962-.78 1.76-2.097" fill="#42210B"/>
            <path d="m17.136 138.044-2.163 1.216c-.227.127-.46.242-.697.342l-.013.006c-1.403.592-2.677 1.532-3.732 2.755a6.88 6.88 0 0 0-1.464 2.952l-.051.213a7.682 7.682 0 0 0-.006 3.357l3.598.158 3.705-3.398.823-7.601z" fill="#BA4E04"/>
            <path d="M17.27 138.434c-.807.407-1.435.627-2.238 1.043-.797.411-1.765.784-2.489 1.35-.714.554-1.455 1.333-2.02 2.069a8.319 8.319 0 0 0-1.258 2.356c-.274.82-.266 2.1-.25 2.856.003.195.078.736.117.92a38.39 38.39 0 0 1-.225-.97c-.264-1.786.136-3.575 1.12-5.005.541-.785.81-1.255 1.492-1.892.716-.672 1.862-1.507 2.7-1.958.967-.527 2.39-1.178 3.37-1.675.212-.107-.139.813-.32.906" fill="#FFC34B"/>
            <path d="M9.841 145.297c.328-.654.764-1.214 1.2-1.763.62-.78 1.271-1.572 2.108-1.944.623-.278 1.354-.327 1.828-.886l.082-.042c-.266.601-.815.932-1.181 1.45-.137.198-.248.416-.377.622-.23.366-.514.673-.799.977-.2.216-.4.432-.603.648-.167.181-.331.36-.506.527-.37.355-.773.654-1.143 1.01-.37.353-.712.771-.907 1.292-.042.113-.09.242-.188.283-.053-.76.158-1.522.486-2.174" fill="#EA793B"/>
            <path d="M13.255 140.325c.212-.147.448-.26.682-.372 1.036-.496 2.132-.864 3.157-1.386l.042.045a3.871 3.871 0 0 1-.325.763.66.66 0 0 1-.113.157.967.967 0 0 1-.311.19c-.486.208-.987.385-1.495.542-.222.068-.446.134-.666.214-.364.13-.713.3-1.064.469-.212.104-1.292.752-1.463.856-.77.468-1.28 1.127-1.833 2.002.957-1.642 1.716-2.346 3.39-3.48" fill="#603813"/>
            <path d="M12.162 144.601c.243-.3.481-.607.67-.952.171-.311.302-.65.474-.96.266-.47.624-.866.97-1.263a36.99 36.99 0 0 0 4.299-6.083c.612-1.084 1.407-1.219 1.081-.588-.33.636-.522 1.344-.808 2.008-.425.997-1.046 1.875-1.518 2.846-1.142 2.345-1.438 5.27-3.21 7.084-.412.418-.882.756-1.352 1.093-1.168.836-2.356 1.683-3.68 2.167-.92.333-1.885.488-2.846.639-.18.027-.377.05-.53-.06a29.16 29.16 0 0 0 6.45-5.93" fill="#7F3401"/>
            <path d="m19.732 137.52-.201.206a46.647 46.647 0 0 0-4.086 4.848l-2.22 3.035a21.37 21.37 0 0 1-2.362 2.718 12.68 12.68 0 0 1-5.532 3.16l-.658.175 6.868-1.135a9.034 9.034 0 0 0 4.208-1.897l.617-.495a30.6 30.6 0 0 1 1.467-6.553 21.122 21.122 0 0 1 1.899-4.062M17.315 135.01l1.898-.633-2.301.468-4.86.764c-.641.1-1.29.176-1.931.225l-2.38.183a15.921 15.921 0 0 1-3.01-.054l-.415-.046a10.607 10.607 0 0 1-2.813-.72L0 134.58l3.617 2.52a11.205 11.205 0 0 0 5.907 1.991c.288-.246.587-.48.905-.692a28.155 28.155 0 0 1 6.886-3.39M17.655 132.282l-1.796-1.054a8.22 8.22 0 0 1-2.594-2.44 11.305 11.305 0 0 1-1.494-3.108l-.866-2.826.488 4.398c.125 1.095.346 2.175.662 3.223.972.178 1.929.44 2.866.789l2.734 1.018z" fill="#A84502"/>
            <path d="M35.55 139.006c-.363-.12-.722-.247-1.06-.438-.306-.173-.587-.393-.893-.563-.465-.258-.974-.39-1.477-.531a32.557 32.557 0 0 1-6.784-2.786c-1.075-.59-1.84-.224-1.239.138.605.367 1.13.88 1.71 1.296.868.628 1.849 1.03 2.744 1.604 2.166 1.394 3.885 3.817 6.337 4.347.566.122 1.145.135 1.723.145 1.438.03 2.895.057 4.294-.326.97-.267 1.886-.724 2.8-1.178.171-.086.354-.186.432-.377-2.899.039-5.804-.412-8.588-1.33" fill="#7F3401"/>
            <g transform="translate(23.367 135.425)">
                <mask id="1r6z1d2ayh" fill="#fff">
                    <use xlink:href="#rmm4zkfvfg"/>
                </mask>
                <path d="M23.035 5.592c-1.165.23-2.331.348-3.496.348-1.549 0-3.092-.206-4.619-.616l-.758-.202c-1.3-.35-2.6-.768-3.866-1.245L0 0l1.975 2.724L3.392 4.33c.455.516.873 1.061 1.258 1.628-.004-.006.803 1.134 1.495 2.71 1.606 1.238 5.667 2.022 9.942.235l7.8-3.482-.852.17z" fill="#A84502" mask="url(#1r6z1d2ayh)"/>
            </g>
            <path d="M21.188 129.697c-.042.251-.078.506-.1.764l-.339-.47.562 1.21-.123-1.504z" fill="#A84502"/>
            <path d="m21.585 144.404-.622-8.876-.366-.103-1.33 1.293a22.62 22.62 0 0 0-2.306 4.938 33.515 33.515 0 0 0-1.462 6.869c-.049.455-.091.91-.122 1.368l-.318 4.911 3.884-2.583c.064-.044.124-.09.185-.135 1.392-1.057 2.576-2.034 2.679-3.859.023-.406-.131-3.452-.222-3.823" fill="#42210B"/>
            <path d="M29.089 136.714c1.135-.09 2.25-.322 3.382-.438.253-.027.511-.052.765-.044 2 .055 3.006.214 4.67.954-.922-.374-1.696-.616-2.589-.602-.198.005-1.442.028-1.678.05-.382.04-.763.076-1.14.146-.225.043-.448.098-.67.151-.51.117-1.023.216-1.542.286a1.066 1.066 0 0 1-.36.008.833.833 0 0 1-.175-.061 3.892 3.892 0 0 1-.673-.4l.01-.05z" fill="#603813"/>
            <path d="M21.332 140.538a15.877 15.877 0 0 1-.362 2.074c-.174.714-.423 1.397-.665 2.088a16.158 16.158 0 0 0-.596 2.204c-.14.708-.26 1.424-.427 2.126-.29 1.22-.76 2.44-1.663 3.307-.391.376-.842.681-1.282.994-.08.141-.162.284-.24.426.482-.378 1.043-.657 1.556-.972.869-.53 1.5-1.273 1.955-2.21.475-.98.736-2.049 1.054-3.093a14.54 14.54 0 0 1 .546-1.51c.228-.532.477-1.062.56-1.646.083-.603.019-1.231 0-1.84-.022-.597-.042-1.196-.063-1.795 0-.027.013-.021.027-.008l-.347-4.733-.006-.002c.094 1.529.12 3.065-.047 4.59" fill="#A84502"/>
            <path d="M20.814 140.313c-.333 1.352-.81 2.648-1.203 3.975-.19.634-.359 1.279-.484 1.936-.132.702-.215 1.417-.355 2.116-.39 1.962-1.27 3.7-2.156 5.417.46-.353.916-.71 1.297-1.174.82-1.007 1.192-2.37 1.444-3.69.14-.73.25-1.469.397-2.198.15-.729.36-1.428.589-2.131.463-1.422.763-2.87.879-4.385.103-1.398.077-2.8 0-4.2l-.101-.03c.231 1.461.04 2.948-.307 4.364" fill="#A84502"/>
            <path d="m22.09 144.382-.243-3.196c.019.491.033.98.051 1.47.023.643.082 1.303-.075 1.935-.135.54-.393 1.036-.612 1.542a16.964 16.964 0 0 0-.598 1.698c-.31 1.023-.601 2.063-1.117 3.004-.5.915-1.182 1.586-2.075 2.098-.562.32-1.168.619-1.663 1.036l-.18.311 3.712-2.27c.067-.042.13-.086.196-.13l.313-.223c-.006-.017-.008-.037.006-.048.765-.59 1.003-1.609 1.273-2.494l.994-3.25c.014-.049.076.015.064.054-.346 1.14-.696 2.281-1.044 3.42-.22.717-.434 1.489-.929 2.053 1.164-.866 2.07-1.78 2.163-3.279.024-.396-.14-3.37-.235-3.731M16.976 145.405c.326-.98.72-1.934 1.123-2.883a94.535 94.535 0 0 0 2.152-5.526l-.245.229a22.137 22.137 0 0 0-2.388 4.922 32.065 32.065 0 0 0-1.515 6.84l-.006.056c.038-.215.074-.43.116-.644.194-1.014.438-2.017.763-2.994" fill="#A84502"/>
            <path d="M17.627 151.272c.536-1.131.96-2.307 1.187-3.558.121-.664.212-1.333.36-1.989.153-.67.35-1.328.565-1.98.81-2.481 1.896-5.067 1.445-7.762l-.133-.035-.967.924a75.565 75.565 0 0 1-1.09 3.028c-.731 1.897-1.604 3.742-2.21 5.696-.432 1.39-.697 2.828-.91 4.273-.008.084-.015.165-.021.248l-.102 1.54c.15-1.076.307-2.155.565-3.21.244-.99.584-1.934 1.059-2.82.242-.454.501-.9.686-1.386.184-.494.296-1.014.446-1.522.597-2.024 1.58-3.917 1.868-6.04.007-.057.075-.01.069.032-.158 1.154-.52 2.252-.915 3.333-.357.981-.744 1.951-1.026 2.962-.142.512-.262 1.03-.471 1.515-.206.475-.47.915-.707 1.373-.96 1.86-1.259 3.995-1.543 6.072-.004.037-.033.03-.05.01l-.154 2.304c.256-.227.53-.432.807-.632.427-.786.857-1.567 1.242-2.376" fill="#A84502"/>
            <path d="m21.29 134.9-.245 1.169A17.906 17.906 0 0 1 19.737 140c-.416.89-.762 1.816-1.038 2.772l-1.372 4.775-1.75 7.257 2.147-7.318 1.422-4.653c.24-.788.504-1.571.793-2.342l.394-1.059a13.04 13.04 0 0 0 .691-2.701l.266-1.83z" fill="#2D1102"/>
            <g transform="translate(0 120.235)">
                <mask id="whwr54f9cj" fill="#fff">
                    <use xlink:href="#nrnblmb9gi"/>
                </mask>
                <path d="m38.57 19.707-.753-.203a39.451 39.451 0 0 1-3.758-1.217l-10.194-3.861.094-.209 1.654.13c1.096.086 2.204.055 3.291-.093l2.114-.288a15.257 15.257 0 0 1 3.465-.075 8.093 8.093 0 0 1 3.96 1.494l2.06 1.48c.355.253.72.493 1.09.713l1.66.992c.745.446 1.454.963 2.11 1.546a16.602 16.602 0 0 1-6.792-.41zm-13.693-1.11 1.445 1.653a15.575 15.575 0 0 1 3.002 5.184c.388 1.107.625 2.271.704 3.454l.115 1.74a22.613 22.613 0 0 1-.333 5.633l-.062.34a23.344 23.344 0 0 1-4.923-6.065 14.558 14.558 0 0 1-1.426-3.545 27.722 27.722 0 0 1-.839-5.46l-.304-5.803.464-.123 2.157 2.992zM21.909 5.491c.628-1.42 1.632-2.565 2.908-3.312l1.181-.694.048.687a9.61 9.61 0 0 1-.996 5.027c-.25.495-.522.985-.81 1.456L22.3 11.84l-.302-.143-.369-4.514a3.513 3.513 0 0 1 .28-1.69zm-1.59 6.816-3.662-2.108a7.32 7.32 0 0 1-2.33-2.148 10.114 10.114 0 0 1-1.372-2.803l-.285-.916 2.623 1.095.08.024c1.402.267 2.622 1.251 3.264 2.633l1.907 4.111-.225.112zm-1.663 4.733a47.766 47.766 0 0 0-4.151 5.096l-2.214 3.132c-.679.96-1.44 1.864-2.259 2.685a11.738 11.738 0 0 1-4.488 2.838l.235-1.273c.39-2.11 1.042-4.15 1.948-6.06a9.804 9.804 0 0 1 3.03-3.722 26.128 26.128 0 0 1 6.58-3.536l2.581-.936.12.3-1.382 1.476zm-2.126-2.803-4.78.818c-.608.106-1.228.185-1.837.234l-2.348.199c-.932.078-1.875.059-2.806-.055l-.408-.05a8.845 8.845 0 0 1-2.544-.712l-.341-.152.252-.292a1.57 1.57 0 0 1 .76-.488 11.625 11.625 0 0 0 3.266-1.499l.573-.378a5.565 5.565 0 0 1 3.077-.938c1.925 0 3.83.338 5.654 1.004l4.487 1.638-3.005.67zm11.056-5.309.172-.226c1.3-1.72 3.139-2.836 5.17-3.142a21.967 21.967 0 0 1 5.672-.115l.077.007-4.797 3.079-4.812 2.15-4.716 1.513a17.254 17.254 0 0 0 3.234-3.266zm18.919 11.036a15.016 15.016 0 0 0-2.84-2.203l-1.662-.992a14.021 14.021 0 0 1-1.031-.677l-2.06-1.477a8.887 8.887 0 0 0-4.357-1.644 16.047 16.047 0 0 0-3.645.078l-2.11.287a14.56 14.56 0 0 1-3.124.09l-1.738-.137 5.392-1.731 4.903-2.187 7.107-4.554-2.656-.29a22.774 22.774 0 0 0-5.871.116c-2.246.34-4.273 1.574-5.712 3.474l-.172.225a16.262 16.262 0 0 1-3.606 3.489l1.627-2.665c.3-.493.584-1.006.846-1.52A10.633 10.633 0 0 0 26.894 2.1L26.744 0l-2.332 1.367c-1.435.84-2.565 2.13-3.268 3.727a4.481 4.481 0 0 0-.36 2.17l.333 4.117-1.72-3.712c-.757-1.628-2.188-2.792-3.836-3.12l-4.28-1.787.869 2.784c.347 1.105.85 2.137 1.501 3.066a8.236 8.236 0 0 0 2.608 2.404l1.805 1.04-2.746-1.003A17.24 17.24 0 0 0 9.394 10c-1.24 0-2.459.37-3.519 1.07l-.574.38a10.847 10.847 0 0 1-3.037 1.397 2.416 2.416 0 0 0-1.162.748l-1.103 1.267 1.484.663c.887.398 1.82.657 2.772.776l.41.049a14.387 14.387 0 0 0 2.966.058l2.347-.197a22.54 22.54 0 0 0 1.902-.241l4.793-.823 2.266-.503-1.87.68c-2.404.874-4.69 2.1-6.788 3.648-1.396 1.027-2.54 2.432-3.31 4.062a25.491 25.491 0 0 0-2.025 6.3l-.505 2.738.656-.182c2.052-.569 3.96-1.696 5.513-3.259a21.667 21.667 0 0 0 2.355-2.801l2.212-3.133a47.497 47.497 0 0 1 4.074-4.998l1.796-1.919.367.102.298 5.702c.1 1.908.392 3.813.868 5.657a15.49 15.49 0 0 0 1.522 3.778c1.493 2.63 3.401 4.909 5.67 6.772l.54.445.333-1.792c.36-1.934.476-3.914.344-5.885l-.113-1.737a14.095 14.095 0 0 0-.756-3.716 16.545 16.545 0 0 0-3.181-5.493l-1.407-1.602-1.956-2.718 10.206 3.868c1.253.475 2.542.893 3.831 1.24l.754.202a17.476 17.476 0 0 0 8.041.267l.846-.17-.75-.736z" fill="#F96806" mask="url(#whwr54f9cj)"/>
            </g>
            <path d="M23.277 133.248a.653.653 0 0 0-.218-.04c-.348.013-.64-.43-.594-.794.016-.125-.283-.181-.338-.079-.137.26-.609.435-.83.071a.264.264 0 0 0-.316-.098c-.114.044-.14.195-.2.308-.114.212-.364.297-.594.337-.063.012-.131.021-.182.068-.097.084-.08.248-.03.371.051.125.124.249.106.38-.025.19-.212.298-.31.458-.046.067-.061.181.01.218.029.017.064.011.098.007.228-.023.487.049.591.26.106.208.044.513.226.655.11.085.272.062.395-.008.122-.07.22-.18.337-.265.318-.243.744-.287 1.126-.183.116.03.273.056.322-.06a.247.247 0 0 0 .012-.108c-.018-.266-.104-.545-.006-.791.073-.185.236-.31.397-.416a.176.176 0 0 0 .075-.072c.035-.07-.004-.194-.077-.22" fill="#7F3401"/>
            <path d="M22.785 133.609a.367.367 0 0 0-.158-.03c-.248.009-.457-.36-.424-.664.012-.104-.203-.151-.24-.063-.1.215-.435.36-.594.056-.044-.085-.15-.12-.226-.082-.08.04-.101.163-.143.255-.08.18-.259.251-.422.282-.048.01-.095.019-.133.057-.068.07-.055.208-.02.312.035.102.087.206.074.317-.014.156-.15.246-.221.379-.031.056-.042.149.006.182.023.014.048.01.072.007.162-.019.346.04.423.215.074.175.03.429.16.547.08.07.196.052.283-.007.087-.06.157-.15.238-.223a.832.832 0 0 1 .807-.151c.083.028.197.045.23-.05.01-.026.008-.059.008-.09-.012-.22-.074-.452-.004-.66.054-.151.168-.256.284-.345a.14.14 0 0 0 .054-.06c.024-.059-.005-.163-.054-.184" fill="#42210B"/>
        </g>
        <g>
            <path d="M64.699 91.316c-15.721 0-26.677 4.73-26.677 8.976 0 4.245 10.956 8.976 26.677 8.976 15.72 0 26.677-4.731 26.677-8.976 0-4.246-10.957-8.976-26.677-8.976" fill="#FFC34B"/>
            <path d="M64.699 112.103c-14.312 0-29.523-4.14-29.523-11.811v2.216l2.777 26.386a31.156 31.156 0 0 0 5.164 14.173c10.418 15.436 32.76 15.427 43.165-.02a31.122 31.122 0 0 0 5.149-14.172l2.79-26.722v-1.861c0 7.671-15.21 11.81-29.522 11.81" fill="#A84502"/>
            <path d="m43.739 143.929.716 4.162c.414 2.394 1.786 4.634 3.909 6.556 7.885 7.141 24.796 7.136 32.67-.008 2.12-1.923 3.49-4.163 3.899-6.556l.708-4.144c-10.444 14.253-31.46 14.253-41.902-.01" fill="#D65803"/>
            <path d="M68.252 100.307c8.852 0 16.04 1.5 20.265 3.481.195-.135.403-.269.576-.408-3.67-2.644-12.661-4.917-24.353-4.917-11.698 0-20.692 2.274-24.358 4.92 1.075.868 2.62 1.675 4.527 2.392 2.913-2.872 11.696-5.468 23.343-5.468" fill="#D4883C"/>
            <g transform="translate(44.816 100.955)">
                <mask id="eqwiwkfo3m" fill="#fff">
                    <use xlink:href="#nspc8yppwk"/>
                </mask>
                <path d="M0 5.116c4.586 1.618 11.394 2.716 19.697 2.716 11.196 0 19.725-1.99 23.683-4.574C39.175 1.404 32.026 0 23.22 0 11.635 0 2.9 2.43 0 5.116" fill="url(#l7yigwg88l)" mask="url(#eqwiwkfo3m)"/>
            </g>
            <g>
                <path d="M52.662 106.402c.803-1.225 1.745-1.604 2.937-2.31 1.078-.636 2.276-2.574 3.648-2.56l-.646-.14c.568.621-2.362 1.952-2.784 2.279-.572.442-1.103.948-1.646 1.427-.554.488-1.656 1.834-2.43 1.78l.644.142c-.215-.487-.001-.665.528-.865-.094.036-.489-.216-.669-.148-.438.166-.786.353-.554.875.048.11.54.137.645.143.815.056 1.384-.774 1.962-1.286.822-.728 1.629-1.547 2.537-2.171.439-.303 3.368-1.54 2.211-2.118-.95-.475-2.261.904-2.851 1.406-.732.623-1.28 1.035-2.14 1.47-.879.446-1.55 1.114-2.088 1.94.026-.042.625.244.696.136M58.73 107.086c.422-1.49 2.664-2.635 3.821-3.548 1.067-.846 2.138-2.78 3.515-2.955l-.573-.16c.42 1.078-2.531 3.177-3.272 3.816-.607.522-1.249.992-1.876 1.49-.148.114-1.55 1.398-1.576 1.332-.066-.168-.734-.202-.683-.076.71 1.801 2.372-.617 2.92-1.069 1.168-.964 2.35-1.88 3.456-2.924.611-.577 2.104-1.493 1.714-2.494-.06-.15-.449-.178-.573-.161-1.556.195-2.372 1.932-3.536 2.873-1.243 1.003-3.57 2.094-4.034 3.738-.038.134.65.303.698.138M64.245 108.182c.571-.586 1.008-1.223 1.477-1.887.532-.755 1.21-1.113 1.82-1.759.517-.542.744-1.305 1.203-1.903.41-.536 1.754-2.409 2.46-2.313-.172-.044-.346-.09-.519-.136.729 1.057-3.105 4.017-3.864 4.73-.712.667-1.134 1.437-1.647 2.261-.184.295-.379.776-.654.974-.477.342-.531-.055-.083-.35-.102.067-.528-.247-.697-.136-.938.615.652 1.474 1.476.622.98-1.009 1.4-2.393 2.46-3.373.637-.589 1.27-1.174 1.874-1.797.456-.469 1.84-1.546 1.945-2.224.087-.56-.115-.573-.546-.693-.792-.223-1.1.258-1.612.823-.603.666-1.264 1.328-1.725 2.105-.354.597-.536 1.07-1.076 1.54-1.168 1.02-1.907 2.267-2.988 3.378.053-.055.575.262.696.138M69.25 108.336c.85-1.37 1.983-2.583 3-3.827l1.462-1.792c.139-.17.526-.514.395-.615-.163-.122-.517.346-.566.41-.682.883-1.058 2.017-1.743 2.925-.807 1.073-1.762 1.996-2.826 2.808-.1.075.5.318.662.195 1.464-1.118 2.716-2.468 3.669-4.06.217-.363.39-.748.6-1.114.126-.295.294-.564.506-.806.161-.111.325-.22.488-.326.066-.234-.03-.298-.21-.434-.868-.654-1.742.954-2.122 1.419-1.351 1.654-2.883 3.258-4.01 5.08-.055.088.581.324.696.137M75.87 106.614c.578-.298.739-.862.933-1.45.204-.616.7-1.122.806-1.762.024-.147-.673-.278-.698-.137-.097.58-.525 1-.728 1.54-.236.623-.331 1.29-.974 1.624-.05.026.483.279.661.185M50.793 104.006c.742-.368.966-.924 1.476-1.516.106-.126-.537-.34-.662-.196-.484.563-.689 1.125-1.392 1.473-.205.103.423.317.578.239" fill="#D4883C"/>
                <path d="M52.373 106.253c.803-1.226 1.745-1.604 2.937-2.31 1.077-.635 2.276-2.574 3.648-2.559l-.648-.141c.568.62-2.36 1.953-2.782 2.278-.572.444-1.104.948-1.647 1.427-.553.49-1.655 1.835-2.431 1.782l.646.142c-.217-.488-.001-.666.528-.865-.096.034-.489-.216-.67-.148-.438.164-.787.352-.555.875.05.11.542.135.647.143.814.056 1.384-.774 1.961-1.287.823-.728 1.63-1.548 2.537-2.17.44-.304 3.369-1.541 2.212-2.119-.95-.476-2.261.905-2.851 1.405-.733.625-1.28 1.036-2.14 1.472-.879.446-1.55 1.114-2.09 1.937.028-.04.626.247.698.138M58.44 106.937c.422-1.49 2.665-2.635 3.82-3.548 1.069-.845 2.139-2.78 3.517-2.955l-.573-.16c.42 1.077-2.533 3.177-3.272 3.816-.608.522-1.249.992-1.876 1.49-.148.114-1.55 1.4-1.577 1.333-.065-.168-.733-.203-.682-.077.71 1.801 2.372-.617 2.92-1.069 1.167-.963 2.35-1.879 3.456-2.924.611-.576 2.104-1.492 1.714-2.494-.06-.15-.449-.176-.574-.161-1.556.197-2.372 1.932-3.535 2.872-1.244 1.004-3.57 2.095-4.034 3.74-.038.134.65.302.696.137M63.956 108.033c.57-.587 1.007-1.221 1.476-1.887.533-.755 1.21-1.112 1.822-1.757.515-.544.743-1.307 1.2-1.905.411-.536 1.754-2.407 2.461-2.312l-.518-.137c.727 1.057-3.106 4.017-3.864 4.73-.712.669-1.134 1.439-1.648 2.261-.183.295-.378.776-.653.974-.477.342-.531-.054-.084-.348-.101.067-.528-.249-.696-.138-.938.615.652 1.474 1.476.623.98-1.01 1.4-2.394 2.46-3.374.637-.589 1.27-1.174 1.874-1.797.456-.469 1.84-1.546 1.945-2.224.087-.56-.116-.572-.548-.693-.79-.223-1.098.258-1.61.823-.604.667-1.264 1.327-1.726 2.105-.354.597-.537 1.072-1.075 1.542-1.168 1.018-1.907 2.265-2.988 3.377.052-.055.575.26.696.137M68.962 108.188c.848-1.37 1.982-2.584 2.998-3.828.488-.598.974-1.196 1.463-1.792.137-.17.526-.515.395-.614-.163-.124-.517.346-.566.408-.683.884-1.06 2.018-1.744 2.927-.806 1.072-1.761 1.995-2.825 2.806-.1.076.5.319.66.196 1.466-1.117 2.718-2.467 3.67-4.06.217-.363.391-.747.6-1.114.126-.295.295-.564.507-.806.161-.11.324-.22.488-.327.066-.232-.03-.297-.212-.433-.866-.655-1.741.954-2.12 1.42-1.351 1.653-2.883 3.256-4.011 5.08-.056.087.582.323.697.137M75.581 106.466c.577-.3.739-.863.933-1.45.204-.618.698-1.122.805-1.762.024-.147-.673-.279-.697-.138-.097.58-.525 1-.73 1.539-.234.624-.33 1.291-.973 1.626-.048.025.482.278.662.185M50.504 103.857c.742-.369.964-.923 1.474-1.517.107-.124-.536-.339-.66-.196-.484.565-.69 1.127-1.392 1.474-.207.103.423.316.578.24" fill="#7F3401"/>
                <path d="M50.77 105.34a.575.575 0 0 1 .261-.208.343.343 0 0 1-.26.207m.212-.904c-.912-.044-1.295 1.137-.473 1.493.98.425 1.341-.526.875-1.095-.06-.181-.222-.39-.402-.398" fill="#42210B"/>
                <path d="M52.063 104.944c-.18.002-.108-.058.183-.171-.028.122-.085.189-.183.17m.352-.83c-.014-.016-.032-.017-.048-.029l-.015-.004c-.048-.028-.097-.059-.15-.044-.023.006-.048.02-.07.028-.034 0-.06-.012-.093-.007-.05.007-.062.046-.088.076-.334.154-.63.438-.55.841.078.398.559.694.942.639.844-.12.702-1.24.072-1.5M53.32 102.626c-.098.022-.11.118-.095.225-.311.359.074 1.033.75 1.008.432-.017.651-.235.501-.686-.183-.546-.65-.658-1.157-.547M56.076 101.757a.507.507 0 0 1 .172-.145c.035.008.068.032.1.02a.306.306 0 0 1-.272.125m.55-.685c-.08-.117-.181-.22-.283-.218-1.23.037-1.07 1.677.06 1.554.845-.093.713-.997.222-1.336M56.654 106.47c.17-.058.335-.043.502-.021.006-.002.01.007.016.005-.13.042-1.02.19-.518.016m.39-.69c-.427-.051-1.08-.131-.999.546.053.448.403.811.793.917 1.054.289.89-1.363.206-1.462M58.071 104.754c-.016-.008-.026-.03-.041-.035-1.032-.334-.842 1.606.303 1.485.421-.046.766-.41.653-.865-.116-.463-.518-.589-.915-.585M60.217 103.146c.07-.01.131-.02.168-.024l.007.008c-.051-.008-.116.008-.175.016m-.075-.756c-.004 0-.01-.009-.014-.007-.409.048-.97.063-.89.707a.926.926 0 0 0 .769.808c1.116.177 1.024-1.382.135-1.508M61.376 100.943l-.004-.001h-.002a.502.502 0 0 0-.325.152c-.044.044-.052.116-.037.195-.17.534.572 1.355 1 .892.404-.439-.109-1.279-.632-1.238M62.624 106.386c-.12.02-.151.104-.148.2-.388.273-.319 1.384.593 1.486 1.182.132.797-1.899-.445-1.686M64.435 105.44a.9.9 0 0 1 .368-.249.694.694 0 0 1-.368.25m-.1-1.293c-.117-.02-.045.242.08.439-.85.386-.623 1.757.39 1.505 1.21-.303.413-1.79-.47-1.944M66.443 102.513c-.11-.114-.242-.16-.304 0-.134.346-.44 1.42.344 1.365.68-.047.576-1.012.286-1.372-.177-.22-.296-.143-.326.007M68.004 101.202c.081-.005.161-.01.25-.003-.127.14-.254.207-.25.003m-.534-.357c-.081.703.562 1.691 1.272.924.752-.812-.359-1.305-1.094-1.246-.107.009-.134.093-.131.192a.236.236 0 0 0-.047.13M71.67 101.928c-.027-.004-.048-.028-.076-.023-.854.186-.42 1.447.345 1.313.823-.144.467-1.44-.27-1.29M70.107 104.326c.115-.184.289-.263.52-.234.002.001.002-.004.003-.004.03.024.059.06.09.068a2.897 2.897 0 0 0-.613.17m.313-.82c-.032-.023-.06-.059-.093-.064-1.02-.183-.834 1.201-.082 1.445 1.262.41 1.093-1.157.175-1.382M69.028 105.083c-.057.007-.074.05-.104.08-.094-.024-.184-.013-.237.115-.139.335-.207.737.082 1.02.284.275.928.33 1.248.093.297-.223.326-.602.15-.914-.24-.427-.71-.458-1.139-.394M68.573 107.395a.55.55 0 0 1-.074.6c-.356.144-.405.022-.15-.366.286.022.036-.64-.235-.66-.94-.073-.738 1.5.022 1.697 1.07.275 1.242-.97.694-1.635-.302-.366-.49.082-.257.364M73.245 106.606c-.147.016-.21.082-.19.196.073-.135-.041-.365-.174-.501.039.011.075.038.115.025.491.066.574.16.249.28m-.607-.91c-.167.055-.073.343.087.511-.043-.005-.086-.007-.111.041-.387.717.57 1.516 1.19.874.743-.765-.329-1.702-1.166-1.426M73.998 104.435c-.114.08-.09.253-.02.403-.06.1-.053.282.074.423.33.364 1.266.853 1.245-.07-.017-.673-.736-1.151-1.3-.756M75.54 102.749c-.124.038-.16.14-.163.253-.217.218-.344.485-.213.805.118.284.43.504.72.344.61-.334.45-1.65-.345-1.402M76.604 101.553c-.044.01-.06.06-.054.126-.047.026-.071.088-.007.25.138.344.919 1.31 1.153.483.194-.683-.598-.972-1.092-.86" fill="#42210B"/>
                <path d="M60.09 101.434c-.094-.028-.12.032-.123.113-.106-.118-.22-.178-.247-.034-.097.539.367 1.051.912.821a.117.117 0 0 0 .05-.084c.028-.39-.229-.706-.592-.816M78.282 103.73l-.044.225c-.052.261.418.786.486.437l.044-.225c.052-.26-.417-.784-.486-.436M77.807 104.829c-.351 0-.11.673.213.673.352 0 .11-.673-.213-.673M79.376 104.71h-.088c-.192 0 .069.642.27.642h.088c.191 0-.071-.643-.27-.643M79.837 103.98c-.298 0-.039.662.236.662.297 0 .038-.662-.236-.662M78.406 105.785c-.237 0 .028.65.256.65.238 0-.028-.65-.256-.65M76.984 105.922c-.098 0-.09.134-.042.278-.03-.02-.06-.055-.089-.055h-.444c-.229 0 .037.649.259.649h.443c.104 0 .097-.134.05-.28.028.02.057.054.085.054.22 0-.047-.646-.262-.646M74.217 103.831c.29 0 .03-.66-.237-.66-.292 0-.032.66.237.66M75.362 102.088c-.33 0-.078.668.223.668.33 0 .078-.668-.223-.668M78.894 102.548h-.356c-.228 0 .038.647.259.647h.355c.228 0-.037-.647-.258-.647M74.117 106.812c-.316 0-.062.665.228.665.316 0 .06-.665-.228-.665M71.464 107.437v.044c0 .242.475.724.475.316v-.045c0-.24-.475-.724-.475-.315M74.91 105.826c-.047 0-.06.038-.079.067a.572.572 0 0 0-.2.077c-.057.032-.048.122-.019.223-.034-.02-.065-.053-.1-.053-.293 0-.033.66.236.66.116 0 .13-.11.107-.234.042.027.085.054.121.034l.23-.077c.085-.008.08-.116.047-.238-.022-.194-.175-.46-.343-.46M76.932 105.525l.133-.045c.15-.05-.141-.698-.344-.63l-.133.045c-.15.051.142.699.344.63M70.251 102.497h-.088c-.286 0-.024.66.24.66h.088c.286 0 .022-.66-.24-.66M71.281 103.076h-.266c-.335 0-.086.67.22.67h.268c.334 0 .084-.67-.222-.67M68.602 104.345c-.244 0 .022.651.254.651.245 0-.02-.651-.254-.651M66.479 106.276c-.281 0-.018.658.24.658.283 0 .02-.658-.24-.658M67.875 106.19c.06-.043.121-.086.18-.13.26-.189-.085-.797-.337-.63.161-.033-.083-.63-.277-.63-.187 0 .065.62.262.637-.101.073-.202.145-.303.22-.193.14-.049.514.14.627a.602.602 0 0 0-.141.22c-.1.233.32.79.418.558.04-.161.136-.252.288-.271.191-.068-.007-.518-.23-.6M65.892 107.27c-.218 0 .046.647.262.647.218 0-.047-.646-.262-.646M64.051 103.3h-.088c-.344 0-.097.67.218.67h.088c.341 0 .096-.67-.218-.67M62.75 104.657c-.272 0-.007.657.245.657.272 0 .008-.657-.244-.657M61.41 106.386c.199 0-.064-.642-.268-.642h-.044c-.199 0 .063.642.267.642h.044zM61.41 106.417c-.216 0 .05.646.263.646.216 0-.048-.646-.262-.646M62.032 105.837l-.044.044c-.21.212.193.796.44.547l.044-.045c.209-.212-.194-.797-.44-.546M63.698 105.549c-.352 0-.11.673.214.673.35 0 .11-.673-.214-.673M64.978 102.763c-.32 0-.065.666.228.666.318 0 .063-.666-.228-.666M59.112 103.893c-.272 0-.007.656.245.656.272 0 .008-.656-.245-.656M61.563 103.296c.337 0 .087-.67-.22-.67-.335 0-.087.67.22.67M63.068 103.118h.621c.352 0 .111-.673-.213-.673h-.62c-.352 0-.112.673.212.673M64.16 102.415c-.2 0 .062.643.267.643.199 0-.065-.643-.268-.643M57.667 103.298c-.36 0-.124.676.209.676.36 0 .123-.676-.21-.676M56.91 104.374c.314 0 .058-.666-.23-.666-.315 0-.059.666.23.666M55.116 104.75c-.175 0-.088.318.055.508-.004.001-.01-.005-.012-.002l-.045.044c-.162.165.234.742.343.63l.046-.045c.097-.098-.008-.332-.129-.49.23-.018-.028-.645-.258-.645M56.06 105.237c-.317 0-.062.666.228.666.316 0 .06-.666-.228-.666" fill="#FC4D10"/>
                <path d="M57.156 104.36a.615.615 0 0 0-.37.208c-.035.028-.035.077-.047.118-.066-.156-.187-.303-.324-.303h-.088c-.32 0-.066.665.225.665h.09c.068 0 .097-.04.118-.086.08.187.24.34.37.235a.607.607 0 0 1 .37-.207c.276-.096-.047-.733-.344-.63M58.543 103.746c-.417 0-.293.68.054.68.417 0 .29-.68-.054-.68M59.029 102.606c0-.366-.564-.568-.564-.1v.225c0 .367.564.569.564.1v-.225zM55.954 103.192c.189 0-.072-.64-.27-.64-.011 0-.007.016-.015.02a.43.43 0 0 0-.094-.169l-.133-.134c-.327-.332-.355.285-.145.497l.133.134c.143.147.226.106.26 0 .067.15.17.292.264.292" fill="#FC4D10"/>
                <path d="M54.784 101.633c-.368 0-.133.677.206.677.367 0 .134-.677-.206-.677M53.305 101.732c-.294 0-.033.66.235.66.295 0 .034-.66-.235-.66M51.85 102.671c-.342 0-.094.67.218.67.34 0 .094-.67-.219-.67M52.463 103.305c-.304 0-.045.663.233.663.305 0 .047-.663-.233-.663M51.527 103.532c-.276 0-.013.658.242.658.276 0 .012-.658-.242-.658" fill="#FC4D10"/>
                <path d="M60.52 101.452c-.096-.028-.122.032-.124.114-.107-.119-.22-.179-.247-.034-.098.539.366 1.05.911.82a.113.113 0 0 0 .05-.083c.028-.391-.227-.707-.59-.817M78.71 103.75l-.044.224c-.051.26.418.786.488.437l.044-.225c.05-.26-.418-.784-.488-.437M78.235 104.847c-.351 0-.11.673.215.673.351 0 .11-.673-.215-.673M79.804 104.728h-.087c-.193 0 .07.642.269.642h.088c.191 0-.07-.642-.27-.642M80.266 103.999c-.298 0-.038.662.235.662.298 0 .038-.662-.235-.662M78.836 105.804c-.237 0 .027.65.256.65.238 0-.028-.65-.256-.65M77.413 105.94c-.098 0-.09.134-.042.279-.03-.02-.06-.055-.089-.055h-.444c-.23 0 .036.649.258.649h.445c.102 0 .097-.136.049-.28.028.02.056.054.084.054.22 0-.045-.647-.26-.647M74.645 103.85c.292 0 .03-.66-.237-.66-.292 0-.031.66.237.66M75.79 102.107c-.33 0-.078.668.223.668.33 0 .079-.668-.223-.668M79.322 102.566h-.354c-.23 0 .036.648.258.648h.354c.23 0-.036-.648-.258-.648M74.545 106.83c-.316 0-.061.666.23.666.316 0 .06-.666-.23-.666M71.894 107.455v.045c0 .241.475.724.475.315v-.044c0-.24-.475-.725-.475-.316M75.338 105.844c-.047 0-.058.039-.078.068a.544.544 0 0 0-.2.078c-.056.03-.049.121-.018.222-.036-.02-.066-.054-.101-.054-.294 0-.033.66.237.66.116 0 .13-.109.106-.234.041.028.085.053.122.034l.23-.076c.085-.008.08-.117.046-.238-.022-.194-.175-.46-.344-.46M77.36 105.544l.133-.045c.152-.051-.141-.699-.343-.63l-.132.045c-.153.051.14.699.342.63M70.68 102.516h-.089c-.285 0-.023.659.24.659h.088c.286 0 .024-.66-.24-.66M71.71 103.095h-.267c-.335 0-.084.67.222.67h.266c.334 0 .084-.67-.222-.67M69.032 104.364c-.245 0 .021.651.253.651.246 0-.02-.651-.253-.651M66.908 106.294c-.28 0-.019.658.24.658.282 0 .02-.658-.24-.658M68.305 106.21l.18-.132c.26-.188-.087-.796-.338-.629.161-.033-.084-.63-.277-.63-.188 0 .064.62.262.636l-.302.22c-.194.14-.05.515.14.627a.603.603 0 0 0-.143.22c-.1.234.32.79.42.558.039-.16.136-.251.286-.27.192-.068-.007-.518-.228-.6M66.321 107.29c-.219 0 .047.646.261.646.22 0-.045-.647-.26-.647M64.48 103.319h-.089c-.343 0-.096.67.218.67h.088c.342 0 .097-.67-.218-.67M63.18 104.676c-.272 0-.008.657.243.657.272 0 .008-.657-.243-.657M61.838 106.405c.199 0-.063-.642-.268-.642h-.044c-.199 0 .065.642.267.642h.045zM61.84 106.435c-.217 0 .048.646.262.646.216 0-.049-.646-.262-.646M62.46 105.856l-.044.044c-.21.212.194.797.44.547l.045-.046c.21-.21-.194-.796-.44-.545M64.126 105.567c-.351 0-.11.673.214.673.352 0 .11-.673-.214-.673M65.407 102.782c-.32 0-.066.665.227.665.319 0 .064-.665-.227-.665M59.542 103.912c-.274 0-.01.656.243.656.273 0 .009-.656-.243-.656M61.993 103.315c.336 0 .087-.67-.22-.67-.337 0-.089.67.22.67M63.497 103.137h.622c.351 0 .11-.673-.215-.673h-.62c-.352 0-.11.673.213.673M64.588 102.433c-.2 0 .064.644.267.644.199 0-.063-.644-.267-.644M58.095 103.317c-.36 0-.124.676.209.676.36 0 .123-.676-.21-.676M57.338 104.392c.315 0 .06-.666-.23-.666-.314 0-.059.666.23.666M55.544 104.768c-.174 0-.088.318.055.509-.002.001-.01-.005-.012-.003l-.044.045c-.162.165.234.742.344.63l.045-.045c.096-.098-.007-.332-.13-.49.23-.018-.027-.646-.258-.646M56.488 105.256c-.317 0-.062.666.229.666.316 0 .06-.666-.23-.666" fill="#953D17"/>
                <path d="M57.584 104.379a.619.619 0 0 0-.37.208c-.034.028-.033.075-.046.117-.065-.154-.188-.302-.325-.302h-.088c-.319 0-.064.665.227.665h.09c.066 0 .095-.04.116-.087.081.188.241.341.37.235a.61.61 0 0 1 .37-.207c.276-.095-.045-.733-.344-.63M58.97 103.765c-.416 0-.29.68.055.68.417 0 .292-.68-.054-.68M59.457 102.625c0-.367-.562-.568-.562-.1v.226c0 .366.562.567.562.099v-.225zM56.382 103.211c.19 0-.072-.641-.27-.641-.01 0-.006.017-.014.02a.464.464 0 0 0-.094-.168l-.132-.134c-.328-.332-.356.285-.147.497l.133.134c.143.147.227.106.26 0 .069.15.172.292.264.292" fill="#953D17"/>
                <path d="M55.212 101.652c-.367 0-.133.677.208.677.366 0 .132-.677-.208-.677M53.733 101.75c-.294 0-.033.66.237.66.293 0 .034-.66-.237-.66M52.278 102.69c-.341 0-.094.67.218.67.34 0 .095-.67-.218-.67M52.892 103.323c-.304 0-.046.663.234.663.303 0 .045-.663-.234-.663M51.955 103.551c-.276 0-.013.657.243.657.276 0 .013-.657-.243-.657" fill="#953D17"/>
                <g transform="translate(35.176 88.906)">
                    <mask id="01rwez1zuo" fill="#fff">
                        <use xlink:href="#gado8llzzn"/>
                    </mask>
                    <path d="M29.533 19.61c-15.688 0-26.148-4.205-26.148-8.516 0-4.31 10.46-9.114 26.148-9.114 15.687 0 26.207 4.804 26.207 9.114 0 4.311-10.52 8.516-26.207 8.516m0-19.61C15.25 0 1.36 3.538.073 11.094c-1.307 7.677 15.177 11.994 29.46 11.994 14.283 0 30.546-4.283 29.46-11.994C57.928 3.538 43.816 0 29.533 0" fill="#FFE086" mask="url(#01rwez1zuo)"/>
                </g>
                <path d="M54.568 108.34c-5.72-.33-8.766-1.503-11.892-3.307-.33-.19-1.709-.592-1.955-.281-.448.567.367 1.755 1.339 2.262 3.585 1.871 7.782 3.203 13.48 3.607.536.037 1.653-.376 1.568-1.09-.11-.917-2.096-1.166-2.54-1.191" fill="#FFF"/>
                <path d="m86.797 108.11-1.456 20.298c-.422 5.879-1.832 11.378-4.015 16.097-1.547 3.348-3.435 6.05-5.53 8.122 4.027-1.953 7.662-5.015 10.44-9.211a31.978 31.978 0 0 0 5.138-14.391l2.784-27.135V100c0 3.405-2.901 6.126-7.361 8.11" fill="#893903"/>
                <path d="m43.642 128.428-1.483-20.525c-4.205-1.965-6.92-4.612-6.92-7.903v2.25l2.77 26.793a31.97 31.97 0 0 0 5.153 14.392c2.602 3.921 5.95 6.862 9.668 8.82-1.947-2.016-3.705-4.584-5.162-7.728-2.186-4.718-3.6-10.218-4.026-16.099" fill="#D65803"/>
                <path d="M81.326 144.505c2.182-4.72 3.594-10.218 4.016-16.098l1.455-20.297c-2.361 1.05-5.162 1.89-8.196 2.518l-.824 17.779c-.272 5.88-1.186 11.379-2.598 16.098-1.357 4.541-3.12 7.897-5.076 10.088a25.398 25.398 0 0 0 5.692-1.967c2.095-2.07 3.983-4.773 5.531-8.12" fill="#A84502"/>
                <path d="M53.406 144.527c-1.414-4.718-2.33-10.218-2.604-16.099l-.84-17.978c-2.904-.65-5.563-1.501-7.803-2.547l1.483 20.525c.426 5.881 1.84 11.38 4.026 16.1 1.457 3.143 3.215 5.711 5.162 7.727 1.74.917 3.563 1.61 5.429 2.096-1.867-2.19-3.546-5.463-4.853-9.824" fill="#F96806"/>
                <path d="m59.465 128.428-.278-16.642c-3.195-.24-6.329-.689-9.225-1.336l.84 17.978c.275 5.881 1.19 11.38 2.603 16.1 1.31 4.36 2.987 7.632 4.853 9.823 1.352.353 2.727.588 4.112.716-.763-2.164-1.45-5.673-1.972-10.54-.507-4.718-.834-10.218-.933-16.099" fill="#E86105"/>
                <path d="M69.117 128.407c-.097 5.88-.425 11.38-.929 16.099-.528 4.928-1.224 8.472-1.997 10.633a25.485 25.485 0 0 0 3.911-.546c1.957-2.192 3.72-5.548 5.078-10.087 1.412-4.72 2.324-10.22 2.596-16.099l.824-17.778c-2.91.603-6.037 1.009-9.207 1.21l-.276 16.568z" fill="#BA4E04"/>
                <path d="m69.117 128.407.276-16.567c-1.563.1-3.134.153-4.695.153-1.833 0-3.681-.07-5.51-.208l.278 16.644c.098 5.88.425 11.38.932 16.099.522 4.865 1.21 8.375 1.972 10.54 1.27.115 2.547.147 3.821.071.773-2.16 1.47-5.705 1.997-10.633.504-4.72.832-10.22.929-16.099" fill="#D65803"/>
            </g>
        </g>
        <g>
            <g transform="translate(56.653 93.791)">
                <mask id="soo1ytxcwq" fill="#fff">
                    <use xlink:href="#n31aptv2bp"/>
                </mask>
                <path d="M12.122 0H2.704S-.385 3.28.04 8.11c0 0 .874-1.002 1.567-1.523.126-.095.3.014.276.171-.166 1.09-.023 4.363 5.53 9.921 5.553-5.558 5.696-8.83 5.53-9.92-.024-.158.15-.267.276-.172.693.52 1.567 1.522 1.567 1.522C15.21 3.281 12.122 0 12.122 0" fill="#E77836" mask="url(#soo1ytxcwq)"/>
            </g>
            <path d="M64.831 88.926v.003s-6.255 5.105 0 13.897v-.003c6.255-8.792 0-13.897 0-13.897" fill="#FFE697"/>
            <path d="M64.877 93.016v.002s-4.17 3.062 0 8.337v-.002c4.17-5.275 0-8.337 0-8.337" fill="#FFF"/>
            <path d="m57.09 91.043.706 1.095c.301.466.9.758 1.554.758h9.378c.654 0 1.253-.292 1.554-.758l.707-1.095h-13.9z" fill="#949494"/>
            <path d="m57.09 91.043.706 1.095c.301.466.9.758 1.554.758h9.378c.654 0 1.253-.292 1.554-.758l.707-1.095h-13.9z"/>
            <path d="m56.138 88.254.896 1.641c.38.7 1.14 1.139 1.968 1.139H70.88c.829 0 1.588-.44 1.969-1.139l.895-1.641H56.138z" fill="#4D4D4D"/>
            <path d="m56.138 88.254.896 1.641c.38.7 1.14 1.139 1.968 1.139H70.88c.829 0 1.588-.44 1.969-1.139l.895-1.641H56.138z" stroke="#424242" stroke-width="2"/>
            <g transform="translate(67.855 75.403)">
                <mask id="zfrz3xeg1s" fill="#fff">
                    <use xlink:href="#flzqoj9c2r"/>
                </mask>
                <path d="M5.433 0s14.933 5.193 13.983 20.386c0 0-12.573-12.968-19.416-10.193L5.433 0z" fill="#E04F24" mask="url(#zfrz3xeg1s)"/>
            </g>
            <path d="M56.32 75.64s-14.932 5.193-13.982 20.386c0 0 12.572-12.968 19.415-10.193L56.321 75.64zM71.949 46.973C70.178 42.456 67.764 38.047 64.51 34l-.002.018-.002-.018c-3.22 4.005-5.617 8.365-7.383 12.833 3.443-.836 8.64-1.4 14.826.14" fill="#E04F24"/>
            <path d="M71.925 47.275h.002l-.208-.517c-8.292-2.082-15.009-.137-15.009-.137l-.263.655h.001c-6.853 17.36-3.746 36.206-2.644 41.526.178.858.95 1.471 1.844 1.471h17.077c.894 0 1.666-.613 1.844-1.47 1.102-5.32 4.21-24.167-2.644-41.528" fill="#FFF"/>
            <path d="M70.59 60.154a6.023 6.023 0 1 1-12.046 0 6.023 6.023 0 0 1 12.046 0" fill="#E77836"/>
            <path d="M69.664 60.154a5.096 5.096 0 1 1-10.193 0 5.096 5.096 0 0 1 10.193 0" fill="#3EC2E5"/>
            <path d="M69.177 59.499a4.633 4.633 0 1 1-9.266 0 4.633 4.633 0 0 1 9.266 0" fill="#3EC2E5"/>
            <path d="M69.223 60.809a4.633 4.633 0 1 1-9.266 0 4.633 4.633 0 0 1 9.266 0z"/>
            <path d="M64.264 78.356c-5.213 11.43 0 21.312 0 21.312s5.212-9.882 0-21.312" fill="#E04F24"/>
        </g>
    </g>
</svg>
