<svg width="37" height="36" viewBox="0 0 37 36" xmlns="http://www.w3.org/2000/svg" xmlns:xlink="http://www.w3.org/1999/xlink">
    <defs>
        <path d="M0 1.799c1.612.57 4.007.955 6.926.955 3.937 0 6.937-.7 8.328-1.608C13.776.494 11.262 0 8.166 0 4.09 0 1.019.854 0 1.799" id="0yq2meccma"/>
        <path id="a14rpcvmid" d="M0 0h20.763v8.119H0z"/>
        <linearGradient x1="0%" y1="50%" x2="99.998%" y2="50%" id="nfwe26bx8b">
            <stop stop-color="#FFF" offset="0%"/>
            <stop stop-color="#D4873B" offset="100%"/>
        </linearGradient>
    </defs>
    <g transform="translate(.857)" fill="none" fill-rule="evenodd">
        <rect fill="#FFF" opacity=".299" width="36" height="36" rx="5"/>
        <path d="M15.524 6.328c-5.528 0-9.38 1.663-9.38 3.156s3.852 3.156 9.38 3.156c5.528 0 9.381-1.663 9.381-3.156s-3.853-3.156-9.38-3.156" fill="#FFC34B"/>
        <path d="M15.524 13.637c-5.032 0-10.381-1.455-10.381-4.153v.78l.976 9.278c.192 1.82.83 3.523 1.816 4.984a9.108 9.108 0 0 0 15.179-.007 10.944 10.944 0 0 0 1.81-4.984l.982-9.396v-.655c0 2.698-5.349 4.153-10.382 4.153" fill="#A84502"/>
        <path d="m8.154 24.829.251 1.464c.146.841.629 1.63 1.375 2.305 2.773 2.511 8.72 2.51 11.489-.003.745-.676 1.226-1.464 1.37-2.306l.25-1.457a9.097 9.097 0 0 1-14.735-.003" fill="#D65803"/>
        <path d="M16.774 9.49c3.113 0 5.64.527 7.126 1.224.068-.048.141-.095.202-.144-1.29-.93-4.452-1.73-8.563-1.73-4.114 0-7.276.8-8.566 1.731.378.305.921.589 1.592.841 1.025-1.01 4.113-1.923 8.209-1.923" fill="#D4883C"/>
        <g transform="translate(8.533 9.717)">
            <mask id="rift8bih5c" fill="#fff">
                <use xlink:href="#0yq2meccma"/>
            </mask>
            <path d="M0 1.799c1.612.57 4.007.955 6.926.955 3.937 0 6.937-.7 8.328-1.608C13.776.494 11.262 0 8.166 0 4.09 0 1.019.854 0 1.799" fill="url(#nfwe26bx8b)" mask="url(#rift8bih5c)"/>
        </g>
        <g>
            <path d="M11.292 11.633c.282-.431.613-.564 1.032-.812.38-.224.8-.906 1.283-.9l-.227-.05c.2.218-.83.686-.979.801-.201.156-.388.334-.579.502-.194.172-.582.645-.855.626l.227.05c-.076-.171 0-.234.186-.304-.033.013-.172-.076-.235-.052-.155.058-.277.124-.195.308.016.038.19.048.226.05.287.02.487-.272.69-.452.29-.256.573-.544.893-.764.154-.106 1.184-.542.777-.745-.334-.167-.795.318-1.002.495-.258.219-.45.364-.753.517-.309.157-.545.391-.734.682.009-.015.22.086.245.048M13.426 11.873c.148-.523.936-.926 1.343-1.247.375-.298.752-.978 1.236-1.04l-.202-.056c.148.38-.89 1.118-1.15 1.342-.214.184-.44.35-.66.524-.052.04-.545.492-.554.468-.023-.059-.258-.07-.24-.026.25.633.834-.217 1.027-.376.41-.34.826-.661 1.215-1.028.215-.203.74-.525.603-.877-.021-.053-.158-.063-.202-.057-.547.069-.834.68-1.243 1.01-.437.353-1.255.737-1.419 1.315-.013.047.229.106.246.048M15.365 12.259c.2-.207.354-.43.52-.664.186-.265.424-.391.64-.618.18-.191.26-.46.422-.67.144-.188.617-.847.865-.813l-.182-.048c.256.372-1.092 1.413-1.36 1.663-.25.235-.398.506-.578.796-.065.103-.134.272-.23.342-.168.12-.187-.02-.03-.123-.035.024-.185-.087-.244-.048-.33.216.229.519.518.219.345-.355.493-.842.866-1.186.223-.207.446-.413.659-.632.16-.165.646-.544.684-.782.03-.197-.041-.202-.193-.244-.278-.078-.386.09-.566.29-.213.234-.445.466-.607.74-.124.21-.189.376-.378.542-.411.358-.671.796-1.051 1.187.018-.02.202.092.245.049M17.125 12.313c.299-.482.697-.909 1.054-1.346l.515-.63c.049-.06.185-.18.138-.216-.057-.043-.181.121-.198.144-.24.31-.373.71-.613 1.028-.284.378-.62.702-.994.988-.035.026.175.111.233.068a5.079 5.079 0 0 0 1.29-1.427c.076-.128.137-.263.21-.392.045-.104.104-.198.179-.284l.171-.114c.024-.082-.01-.105-.074-.153-.305-.23-.612.336-.746.5-.475.58-1.014 1.145-1.41 1.786-.02.03.205.114.245.048M19.453 11.707c.203-.105.26-.303.328-.51.071-.216.245-.394.283-.62.009-.05-.236-.097-.245-.047-.034.203-.185.351-.256.541-.083.22-.117.454-.343.571-.017.01.17.098.233.065M10.634 10.79c.261-.13.34-.325.52-.533.036-.044-.19-.12-.233-.069-.17.198-.243.396-.49.518-.072.036.149.111.203.084" fill="#D4883C"/>
            <path d="M11.19 11.58c.282-.43.614-.564 1.033-.812.379-.223.8-.905 1.282-.9l-.227-.05c.2.219-.83.687-.979.802-.2.156-.388.333-.579.501-.194.172-.582.646-.855.627l.228.05c-.077-.172 0-.234.185-.304-.033.012-.172-.076-.235-.052-.154.058-.277.124-.195.307.017.039.19.048.227.05.286.02.487-.272.69-.452.289-.256.573-.544.892-.763.154-.107 1.184-.542.778-.745-.335-.167-.796.318-1.003.494-.258.22-.45.364-.753.518a1.911 1.911 0 0 0-.734.681c.01-.014.22.087.245.048M13.323 11.82c.149-.523.938-.926 1.344-1.247.376-.297.752-.978 1.236-1.039l-.201-.056c.148.379-.89 1.117-1.15 1.342-.214.183-.44.349-.66.523-.052.04-.545.493-.555.47-.023-.06-.258-.072-.24-.028.25.634.834-.217 1.027-.376.41-.338.826-.66 1.215-1.028.215-.202.74-.524.603-.877-.02-.052-.158-.062-.202-.056-.547.069-.834.68-1.243 1.01-.437.353-1.255.736-1.419 1.315-.013.047.23.106.245.048M15.263 12.206c.2-.206.354-.43.519-.663.187-.266.426-.391.64-.618.182-.192.262-.46.423-.67.144-.189.617-.847.865-.813l-.182-.048c.256.372-1.092 1.412-1.359 1.663-.25.235-.399.506-.58.795-.064.104-.132.273-.229.342-.168.12-.187-.018-.03-.122-.035.024-.185-.087-.244-.048-.33.216.229.518.519.219.344-.355.492-.842.865-1.187.224-.207.446-.412.659-.632.16-.164.647-.543.684-.782.03-.196-.04-.2-.193-.243-.278-.079-.386.09-.566.29-.212.234-.444.466-.607.74-.125.21-.189.376-.378.542-.41.358-.67.796-1.05 1.187.018-.02.202.092.244.048M17.023 12.26c.298-.481.697-.908 1.055-1.345l.514-.63c.048-.06.185-.181.139-.217-.057-.043-.182.122-.2.144-.24.311-.372.71-.612 1.03a5.09 5.09 0 0 1-.994.986c-.035.027.176.112.232.07a5.07 5.07 0 0 0 1.291-1.429c.076-.127.137-.262.211-.391.044-.104.104-.199.178-.284a8.81 8.81 0 0 1 .172-.115c.023-.081-.011-.104-.075-.152-.304-.23-.612.335-.746.499-.474.582-1.013 1.145-1.41 1.787-.02.03.205.113.245.048M19.351 11.655c.203-.105.26-.303.328-.51.072-.217.245-.394.283-.62.008-.051-.237-.097-.245-.048-.034.204-.185.352-.257.541-.082.22-.116.454-.342.572-.017.01.17.098.233.065M10.533 10.738c.26-.13.339-.325.518-.534.038-.043-.189-.119-.232-.068-.17.198-.243.396-.49.518-.072.036.15.11.204.084" fill="#7F3401"/>
            <path d="M10.885 11.559a.408.408 0 0 1 .186-.142.244.244 0 0 1-.186.142m.152-.618c-.652-.03-.926.776-.338 1.02.7.29.958-.36.625-.748-.043-.123-.159-.266-.287-.272" fill="#42210B"/>
            <path d="M11.321 11.427c-.127.001-.076-.04.13-.118-.02.084-.06.13-.13.118m.249-.573c-.01-.01-.022-.01-.034-.019l-.01-.002c-.034-.02-.07-.04-.107-.031-.016.004-.034.014-.05.02-.023 0-.041-.009-.065-.005-.035.004-.043.031-.062.052-.236.106-.446.301-.389.579.055.273.395.477.666.44.598-.083.497-.854.051-1.034M11.523 10.305c-.034.008-.039.041-.033.079-.11.126.026.363.264.354.151-.005.228-.082.175-.24-.064-.193-.228-.232-.406-.193M12.706 10.314a.36.36 0 0 1 .123-.101c.025.005.049.022.072.013a.22.22 0 0 1-.195.088m.392-.48c-.057-.082-.129-.154-.202-.152-.877.026-.764 1.173.044 1.088.603-.066.509-.699.158-.935M12.911 11.919a.74.74 0 0 1 .354-.016c.003 0 .007.005.01.004-.09.03-.717.135-.364.012m.275-.493c-.3-.037-.76-.094-.702.39.037.32.283.58.557.655.74.206.625-.974.145-1.045" fill="#42210B"/>
            <path d="M13.415 11.08c-.01-.005-.017-.021-.027-.025-.682-.238-.556 1.147.2 1.06a.5.5 0 0 0 .432-.617c-.077-.33-.343-.42-.605-.418" fill="#42210B"/>
            <path d="m14.277 10.764.114-.016c.002 0 .004.004.006.005-.036-.005-.08.006-.12.011m-.052-.54c-.003 0-.006-.006-.01-.005-.279.035-.663.045-.608.506a.65.65 0 0 0 .526.577c.764.126.7-.988.092-1.077M14.356 9.713h-.002a.177.177 0 0 0-.115.053c-.015.016-.018.04-.013.069-.06.188.202.476.352.313.142-.154-.038-.45-.222-.435M14.93 11.632c-.087.013-.109.066-.106.127-.278.175-.228.886.423.951.845.084.57-1.215-.318-1.078" fill="#42210B"/>
            <path d="M15.628 11.555a.676.676 0 0 1 .263-.138.518.518 0 0 1-.263.138m-.071-.715c-.084-.011-.032.134.057.243-.607.213-.445.972.278.832.866-.167.296-.99-.335-1.075M16.138 10.265c-.04-.04-.085-.056-.107 0-.048.122-.155.5.12.48.24-.016.203-.356.101-.482-.062-.078-.104-.05-.114.002M16.883 10.052c.058-.004.115-.007.178-.002-.09.1-.181.148-.178.002m-.382-.255c-.058.502.402 1.208.909.66.537-.58-.257-.932-.782-.89-.076.007-.095.067-.093.138a.169.169 0 0 0-.034.092M17.976 10.06c-.01-.002-.017-.01-.027-.009-.3.066-.148.51.121.462.29-.05.164-.506-.094-.453M17.602 11.23c.082-.132.206-.188.372-.168l.002-.003c.022.018.042.043.064.049a2.07 2.07 0 0 0-.438.121m.224-.586v.001c-.023-.017-.043-.042-.066-.046-.73-.13-.596.858-.06 1.032.903.293.782-.827.126-.987" fill="#42210B"/>
            <path d="M17.047 11.169c-.02.003-.027.017-.037.028-.033-.008-.065-.004-.083.04-.05.118-.073.26.028.359.1.097.327.116.44.033.104-.078.114-.212.052-.321-.085-.15-.25-.162-.4-.14M16.887 11.982a.194.194 0 0 1-.027.211c-.125.05-.142.008-.052-.129.1.008.013-.225-.083-.232-.33-.026-.26.528.008.597.376.096.437-.341.244-.575-.106-.129-.172.029-.09.128M18.79 11.98c-.104.01-.15.052-.135.125.052-.086-.03-.233-.124-.32.027.007.053.024.082.016.35.042.41.102.178.179m-.434-.581c-.12.035-.052.218.063.326-.031-.003-.062-.005-.08.026-.276.458.406.969.85.558.53-.488-.235-1.086-.833-.91M18.794 10.941c-.04.028-.032.09-.007.142-.021.035-.019.099.026.148.116.128.446.3.438-.024-.006-.237-.259-.405-.457-.266M19.336 10.348c-.043.014-.056.05-.057.09-.076.076-.12.17-.075.282.042.1.151.177.254.121.214-.117.158-.58-.122-.493M19.71 9.928c-.015.003-.02.02-.019.044-.016.009-.024.031-.002.088.049.12.323.46.406.17.068-.24-.21-.342-.384-.302" fill="#42210B"/>
            <path d="M13.904 9.886c-.034-.01-.043.01-.044.04-.037-.042-.077-.063-.087-.012-.034.19.13.37.321.288a.041.041 0 0 0 .018-.03.279.279 0 0 0-.208-.286M20.3 10.693l-.015.08c-.018.091.147.276.171.153l.016-.079c.018-.092-.147-.276-.171-.154M20.134 11.08c-.124 0-.04.236.075.236.123 0 .039-.236-.075-.236M20.685 11.037h-.03c-.068 0 .024.226.094.226h.031c.068 0-.025-.226-.095-.226M20.848 10.781c-.105 0-.014.233.082.233.105 0 .014-.233-.082-.233M20.344 11.416c-.083 0 .01.228.09.228.084 0-.01-.228-.09-.228M19.844 11.464c-.034 0-.032.047-.014.098-.011-.007-.022-.02-.032-.02h-.156c-.08 0 .013.229.091.229h.156c.036 0 .034-.048.017-.099.01.007.02.019.03.019.078 0-.016-.227-.092-.227M18.871 10.729c.103 0 .01-.233-.083-.233-.103 0-.011.233.083.233M19.274 10.116c-.116 0-.027.235.078.235.116 0 .028-.235-.078-.235M20.516 10.277h-.125c-.08 0 .013.228.09.228h.126c.08 0-.013-.228-.091-.228M18.836 11.777c-.111 0-.022.234.08.234.112 0 .022-.234-.08-.234M17.903 11.997v.015c0 .085.167.255.167.111v-.016c0-.084-.167-.254-.167-.11M19.115 11.43c-.017 0-.021.013-.028.024a.201.201 0 0 0-.07.027c-.02.011-.017.043-.007.078-.012-.007-.023-.019-.035-.019-.103 0-.012.233.083.233.04 0 .046-.039.038-.082.014.009.03.018.042.011l.081-.027c.03-.002.028-.04.017-.083-.008-.069-.062-.162-.121-.162M19.826 11.324l.047-.015c.053-.018-.05-.246-.121-.222l-.047.016c-.053.018.05.246.121.221M17.477 10.26h-.031c-.1 0-.009.231.084.231h.03c.101 0 .009-.231-.083-.231M17.839 10.463h-.094c-.118 0-.03.236.078.236h.094c.117 0 .03-.236-.078-.236M16.897 10.91c-.086 0 .007.228.089.228.086 0-.007-.229-.09-.229M16.15 11.588c-.099 0-.006.232.085.232.099 0 .006-.232-.085-.232M16.641 11.558l.064-.045c.09-.067-.03-.28-.12-.222.058-.012-.028-.222-.097-.222-.065 0 .023.218.093.224l-.107.078c-.068.049-.017.18.05.22a.212.212 0 0 0-.05.077c-.035.083.112.278.147.197.014-.057.048-.089.1-.096.068-.023-.001-.181-.08-.21M15.944 11.938c-.077 0 .016.227.092.227.077 0-.016-.227-.092-.227M15.296 10.542h-.03c-.122 0-.035.236.076.236h.031c.12 0 .034-.236-.077-.236M14.84 11.02c-.097 0-.004.23.085.23.096 0 .003-.23-.086-.23M14.368 11.627c.07 0-.023-.226-.094-.226h-.016c-.07 0 .022.226.094.226h.016zM14.368 11.638c-.076 0 .017.227.092.227.076 0-.017-.227-.092-.227M14.586 11.434l-.015.016c-.074.074.068.28.155.192l.015-.016c.074-.074-.068-.28-.155-.192M15.172 11.333c-.123 0-.038.236.076.236.123 0 .038-.236-.076-.236M15.622 10.353c-.112 0-.022.234.08.234.113 0 .023-.234-.08-.234M13.56 10.75c-.096 0-.003.231.086.231.095 0 .003-.23-.086-.23M14.422 10.54c.118 0 .03-.235-.078-.235-.118 0-.03.236.078.236M14.95 10.478h.22c.123 0 .038-.237-.076-.237h-.218c-.124 0-.04.237.075.237M15.335 10.23c-.07 0 .022.227.093.227.07 0-.022-.226-.093-.226M13.051 10.541c-.126 0-.043.238.074.238.127 0 .043-.238-.074-.238M12.785 10.92c.11 0 .02-.235-.08-.235-.111 0-.021.234.08.234M12.154 11.052c-.061 0-.03.112.02.178h-.005l-.015.015c-.057.058.082.261.12.222l.016-.016c.035-.035-.002-.117-.045-.172.08-.007-.01-.227-.09-.227M12.486 11.223c-.11 0-.021.234.08.234.112 0 .022-.234-.08-.234" fill="#FC4D10"/>
            <path d="M12.872 10.915a.216.216 0 0 0-.13.073c-.012.01-.012.027-.017.041-.023-.055-.065-.106-.114-.106h-.03c-.113 0-.024.234.079.234h.031c.024 0 .034-.015.042-.03.028.065.084.12.13.082a.214.214 0 0 1 .13-.073c.097-.034-.017-.258-.121-.221M13.36 10.699c-.147 0-.103.239.018.239.147 0 .103-.24-.019-.24M13.53 10.298c0-.129-.198-.2-.198-.035v.079c0 .129.198.2.198.035v-.08zM12.45 10.504c.066 0-.026-.225-.096-.225-.004 0-.002.005-.005.007a.151.151 0 0 0-.033-.06l-.047-.047c-.115-.116-.125.1-.05.175l.046.047c.05.052.08.038.091 0 .024.053.06.103.093.103" fill="#FC4D10"/>
            <path d="M12.038 9.956c-.13 0-.047.238.072.238.13 0 .047-.238-.072-.238M11.518 9.99c-.104 0-.012.233.082.233.104 0 .012-.233-.082-.233M11.006 10.32c-.12 0-.033.237.077.237.12 0 .033-.236-.077-.236M11.222 10.544c-.107 0-.016.233.082.233.107 0 .016-.233-.082-.233M10.892 10.624c-.097 0-.004.23.085.23.097 0 .005-.23-.085-.23" fill="#FC4D10"/>
            <path d="M14.055 9.892c-.034-.01-.043.011-.044.04-.037-.042-.077-.063-.087-.012-.034.19.129.37.32.289a.04.04 0 0 0 .018-.03.278.278 0 0 0-.207-.287M20.451 10.7l-.015.079c-.018.092.147.276.171.154l.016-.08c.017-.091-.147-.275-.172-.153M20.284 11.086c-.123 0-.038.237.076.237.123 0 .038-.237-.076-.237M20.836 11.044h-.03c-.068 0 .024.226.094.226h.03c.068 0-.024-.226-.094-.226M20.998 10.788c-.104 0-.013.232.083.232.105 0 .013-.232-.083-.232M20.495 11.422c-.083 0 .01.229.09.229.084 0-.01-.229-.09-.229M19.995 11.47c-.034 0-.032.048-.015.098-.01-.007-.02-.019-.03-.019h-.157c-.08 0 .013.228.09.228h.157c.036 0 .034-.047.017-.098.01.007.02.019.03.019.077 0-.016-.228-.092-.228M19.022 10.735c.103 0 .01-.232-.084-.232-.102 0-.01.232.084.232M19.425 10.122c-.117 0-.028.235.078.235.116 0 .027-.235-.078-.235M20.666 10.284h-.124c-.08 0 .013.228.09.228h.125c.08 0-.013-.228-.09-.228M18.987 11.783c-.112 0-.022.234.08.234.112 0 .022-.234-.08-.234M18.054 12.003v.016c0 .085.167.254.167.11v-.015c0-.084-.167-.255-.167-.11M19.265 11.437c-.016 0-.02.013-.027.023a.191.191 0 0 0-.07.028c-.02.01-.017.042-.007.078-.012-.007-.023-.019-.035-.019-.103 0-.012.232.083.232.04 0 .046-.038.037-.082.015.01.03.019.043.012l.08-.027c.031-.003.03-.041.017-.084-.007-.068-.061-.161-.12-.161M19.977 11.33l.046-.015c.054-.018-.05-.246-.12-.221l-.047.015c-.053.018.05.246.12.222M17.627 10.266h-.03c-.1 0-.009.232.083.232h.031c.101 0 .009-.232-.084-.232M17.99 10.47h-.094c-.118 0-.03.235.078.235h.093c.118 0 .03-.235-.078-.235M17.048 10.916c-.086 0 .007.229.089.229.086 0-.007-.229-.09-.229M16.301 11.595c-.099 0-.007.231.085.231.099 0 .006-.231-.085-.231M16.792 11.565l.064-.046c.09-.066-.031-.28-.12-.221.058-.012-.029-.222-.097-.222-.066 0 .023.218.092.224l-.106.077c-.068.05-.017.181.05.22a.212.212 0 0 0-.05.078c-.036.082.112.278.147.196.014-.056.048-.088.1-.095.068-.024-.002-.182-.08-.211M16.095 11.945c-.077 0 .016.227.091.227.078 0-.015-.227-.091-.227M15.447 10.549h-.031c-.12 0-.034.235.077.235h.03c.12 0 .035-.235-.076-.235M14.99 11.026c-.096 0-.003.23.086.23.095 0 .002-.23-.086-.23M14.518 11.634c.07 0-.022-.226-.094-.226h-.015c-.07 0 .022.226.094.226h.015zM14.519 11.644c-.076 0 .017.228.092.228.076 0-.017-.228-.092-.228M14.737 11.44l-.016.016c-.073.075.069.28.155.193l.016-.017c.074-.074-.068-.28-.155-.191M15.323 11.339c-.124 0-.039.237.075.237.124 0 .039-.237-.075-.237M15.773 10.36c-.112 0-.023.234.08.234.112 0 .023-.234-.08-.234M13.71 10.757c-.095 0-.002.23.086.23.096 0 .003-.23-.085-.23M14.573 10.547c.118 0 .03-.235-.078-.235-.118 0-.03.235.078.235M15.102 10.485h.218c.124 0 .039-.237-.075-.237h-.219c-.123 0-.038.237.076.237M15.485 10.237c-.07 0 .023.227.094.227.07 0-.022-.227-.094-.227M13.202 10.548c-.127 0-.044.238.073.238.127 0 .044-.238-.073-.238M12.936 10.926c.11 0 .02-.234-.08-.234-.112 0-.022.234.08.234M12.305 11.058c-.061 0-.031.112.02.18-.001 0-.004-.003-.005-.002l-.015.016c-.057.058.082.26.12.221l.016-.015c.034-.035-.002-.117-.045-.173.08-.006-.01-.227-.091-.227M12.637 11.23c-.111 0-.022.234.08.234.112 0 .022-.234-.08-.234" fill="#953D17"/>
            <path d="M13.022 10.921a.218.218 0 0 0-.13.073c-.012.01-.011.027-.016.042-.023-.055-.066-.107-.114-.107h-.031c-.112 0-.023.234.08.234h.031c.024 0 .034-.014.041-.03.029.066.085.12.13.082a.215.215 0 0 1 .13-.072c.097-.034-.016-.258-.12-.222M13.51 10.705c-.147 0-.102.24.019.24.147 0 .103-.24-.019-.24M13.68 10.305c0-.13-.197-.2-.197-.035v.079c0 .128.198.2.198.035v-.08zM12.6 10.51c.067 0-.026-.225-.095-.225-.004 0-.002.006-.005.007a.163.163 0 0 0-.033-.059l-.047-.047c-.115-.117-.125.1-.051.175l.046.047c.05.051.08.037.092 0 .024.052.06.103.093.103" fill="#953D17"/>
            <path d="M12.188 9.962c-.129 0-.046.238.073.238.13 0 .047-.238-.073-.238M11.668 9.997c-.103 0-.011.232.083.232.104 0 .012-.232-.083-.232M11.157 10.327c-.12 0-.034.236.076.236.12 0 .034-.236-.076-.236M11.373 10.55c-.108 0-.017.233.082.233.106 0 .016-.233-.082-.233M11.043 10.63c-.097 0-.005.231.085.231.097 0 .005-.23-.085-.23" fill="#953D17"/>
            <g transform="translate(5.143 5.48)">
                <mask id="fl9m1e7mie" fill="#fff">
                    <use xlink:href="#a14rpcvmid"/>
                </mask>
                <path d="M1.19 3.901C1.19 2.385 5.264.85 10.428.868c5.164.02 9.173 1.517 9.173 3.033s-3.7 2.995-9.216 2.995C4.87 6.896 1.19 5.417 1.19 3.9zm-1.164 0c-.46 2.7 5.337 4.218 10.36 4.218 5.022 0 10.74-1.506 10.359-4.218C20.37 1.244 15.408 0 10.385 0 5.363 0 .478 1.244.025 3.901z" fill="#FFE086" mask="url(#fl9m1e7mie)"/>
            </g>
            <path d="M11.962 12.314c-2.012-.116-3.083-.528-4.182-1.163-.116-.067-.6-.208-.687-.099-.158.2.129.618.47.796 1.261.658 2.737 1.126 4.74 1.268.19.013.582-.132.552-.383-.039-.322-.737-.41-.893-.419" fill="#FFF"/>
            <path d="m23.295 12.233-.512 7.138c-.148 2.067-.644 4-1.412 5.66-.544 1.178-1.208 2.128-1.944 2.857a9.218 9.218 0 0 0 3.67-3.24 11.245 11.245 0 0 0 1.807-5.06l.98-9.542v-.665c0 1.198-1.02 2.155-2.59 2.852" fill="#893903"/>
            <path d="m8.12 19.378-.522-7.218c-1.479-.69-2.433-1.621-2.433-2.778v.79l.974 9.422a11.242 11.242 0 0 0 1.812 5.061 9.25 9.25 0 0 0 3.4 3.102c-.685-.71-1.303-1.612-1.816-2.718-.768-1.659-1.265-3.593-1.415-5.66" fill="#D65803"/>
            <path d="M21.371 25.032c.768-1.66 1.264-3.594 1.412-5.661l.512-7.138c-.83.37-1.815.665-2.882.886l-.29 6.252c-.096 2.067-.417 4.001-.914 5.66-.477 1.597-1.097 2.777-1.785 3.548a8.931 8.931 0 0 0 2.002-.692c.737-.728 1.4-1.678 1.945-2.855" fill="#A84502"/>
            <path d="M11.553 25.04c-.497-1.66-.82-3.594-.915-5.662l-.296-6.322c-1.021-.228-1.956-.528-2.744-.896l.522 7.218c.15 2.068.647 4.002 1.415 5.661.513 1.106 1.131 2.009 1.816 2.718a8.888 8.888 0 0 0 1.909.737c-.657-.77-1.247-1.921-1.707-3.455" fill="#F96806"/>
            <path d="m13.684 19.378-.098-5.852a22.855 22.855 0 0 1-3.244-.47l.295 6.322c.097 2.068.419 4.002.916 5.661.46 1.534 1.05 2.684 1.706 3.455.476.124.96.207 1.446.252-.268-.761-.51-1.996-.693-3.707a64.056 64.056 0 0 1-.328-5.66" fill="#E86105"/>
            <path d="M17.078 19.37a64.28 64.28 0 0 1-.327 5.662c-.185 1.733-.43 2.979-.702 3.739a8.962 8.962 0 0 0 1.375-.192c.688-.771 1.308-1.951 1.786-3.547.496-1.66.817-3.594.913-5.661l.29-6.252a23.452 23.452 0 0 1-3.238.426l-.097 5.826z" fill="#BA4E04"/>
            <path d="m17.078 19.37.097-5.825a25.845 25.845 0 0 1-3.589-.02l.098 5.853c.035 2.068.15 4.002.328 5.661.183 1.711.425 2.945.693 3.707.447.04.896.051 1.344.025.272-.76.517-2.006.702-3.74a64.28 64.28 0 0 0 .327-5.66" fill="#D65803"/>
        </g>
        <g>
            <path d="M16.34 22.908a7.31 7.31 0 1 1 14.618 0 7.31 7.31 0 0 1-14.619 0" stroke="#E79B24" fill="#FFD816"/>
            <path d="M17.61 22.485a6.25 6.25 0 1 1 12.5 0 6.25 6.25 0 0 1-12.5 0" fill="#FFCD00"/>
            <path d="M26.883 17.506c.63.978.995 2.14.995 3.388 0 3.475-2.831 6.291-6.324 6.291a6.318 6.318 0 0 1-3.308-.929 6.327 6.327 0 0 0 5.329 2.902c3.492 0 6.323-2.816 6.323-6.29a6.28 6.28 0 0 0-3.015-5.362" fill="#FDBE11"/>
            <path d="M18.236 23.795c0-3.126 2.49-5.66 5.56-5.66 1.795 0 3.391.866 4.408 2.21-.96-1.697-2.76-2.84-4.822-2.84-3.07 0-5.56 2.535-5.56 5.66a5.7 5.7 0 0 0 1.153 3.451 5.712 5.712 0 0 1-.739-2.82" fill="#FFDC53"/>
            <path d="M24.294 19.2v.795c.334.052.607.157.82.317.211.159.414.404.606.733l-.828.442c-.249-.432-.574-.648-.976-.648a.92.92 0 0 0-.62.21.665.665 0 0 0-.246.527c0 .192.066.352.2.479.13.124.393.271.789.442.342.148.625.288.849.42.224.13.392.257.505.378.32.33.48.728.48 1.196 0 .46-.144.865-.433 1.216-.286.349-.668.584-1.146.706v.839h-.743v-.815c-.555-.087-.978-.269-1.27-.547-.291-.279-.507-.708-.645-1.29l.934-.186c.127.41.283.704.467.88.192.167.449.251.768.251.312 0 .572-.096.782-.288a.95.95 0 0 0 .31-.734c0-.267-.087-.482-.26-.644a2.403 2.403 0 0 0-.388-.266 6.788 6.788 0 0 0-.656-.322c-.55-.235-.91-.451-1.083-.648a1.498 1.498 0 0 1-.411-1.059c0-.194.032-.375.097-.543.065-.167.16-.32.283-.456.123-.136.275-.255.456-.355.181-.1.386-.178.616-.235v-.794h.743z" fill="#E79B24"/>
        </g>
    </g>
</svg>
