<svg width="24" height="21" viewBox="0 0 24 21" xmlns="http://www.w3.org/2000/svg">
    <path d="M11.166 2.016a.766.766 0 0 1 .342-.568c.288-.202.576-.213.878-.034.24.143.367.334.395.602h-1.615zm2.04 17.09v.482H6.17v-.485c2.296.19 4.605.192 7.038.003zm2.028-7.194v.435h-3.573V11.11c0-1.104 0-2.245-.004-3.368 0-.033.003-.05.004-.056a.24.24 0 0 1 .046-.03c.286-.157.574-.321.851-.48.286-.163.581-.332.874-.49a.14.14 0 0 1 .039-.002 54.75 54.75 0 0 1 1.745.995c.004.004.01.01.013.017.008 1.405.006 2.834.005 4.216zm-3.619 6.031c-1.053.01-2.124.008-3.16.006l-.82-.002a6.318 6.318 0 0 1-6.274-5.391 5.874 5.874 0 0 1-.062-.881c-.004-2.175-.004-4.386-.004-6.523v-1.83H12.81c0 .074 0 2.17-.004 2.24a.472.472 0 0 1-.02.012l-.196.113a81.55 81.55 0 0 1-1.729.981c-.332.181-.485.446-.484.834.006 1.277.006 2.576.005 3.832v1.468c0 .6.224.823.825.823h4.502c.583 0 .81-.229.81-.814v-1.505c0-1.252-.001-2.547.004-3.82.002-.37-.153-.636-.475-.812-.281-.155-.565-.318-.84-.476-.328-.189-.667-.383-1.007-.567-.13-.07-.126-.09-.116-.16.005-.039.009-2.102.01-2.139h3.974l.003 2.424c.005 2.02.01 4.108-.016 6.16-.017 1.385-.566 2.761-1.545 3.875-.977 1.112-2.274 1.842-3.653 2.055a8.69 8.69 0 0 1-1.242.097zm7.753-12.155V5.61h3.35l.002.907c.002.805.004 1.637-.004 2.455a3.345 3.345 0 0 1-1.047 2.4 3.36 3.36 0 0 1-2.338.948h-.015l.013-.176.04-6.357zm4.63.606c-.002-.412-.004-.838-.002-1.257.001-.226-.02-.458-.182-.621-.172-.173-.416-.187-.632-.187H19.351v-.842c0-.12 0-.226.002-.322.004-.482.006-.747-.189-.942-.195-.196-.466-.194-.956-.19l-.297.002h-3.842A2.119 2.119 0 0 0 12.485.086c-.086-.022-.17-.04-.253-.056a11.19 11.19 0 0 1-.109-.023L12.09 0h-.223l-.034.008c-.043.01-.086.018-.13.027a4.07 4.07 0 0 0-.314.074 2.111 2.111 0 0 0-1.506 1.926h-.846c-2.684 0-5.46 0-8.19-.004-.176 0-.643 0-.828.5L0 2.585V11.9l.002.035.019.174c.013.128.027.261.047.394.435 2.964 2.052 5.05 4.806 6.201-.008.433-.006.872-.003 1.296v.126c.003.502.251.757.738.757a3949.681 3949.681 0 0 0 8.148 0c.494 0 .734-.248.736-.756l.002-.315c.003-.349.005-.71-.006-1.066a.43.43 0 0 1 0-.036.442.442 0 0 1 .043-.02c2.184-.894 3.68-2.482 4.444-4.718a7.83 7.83 0 0 0 .113-.367l.13-.005c.255-.01.496-.02.745-.048 2.095-.24 3.885-2.107 3.99-4.161.052-1 .048-2.015.043-2.997z" fill="#FFF" fill-rule="evenodd"/>
</svg>
