<svg width="19" height="20" viewBox="0 0 19 20" xmlns="http://www.w3.org/2000/svg">
    <g fill="none" fill-rule="evenodd">
        <path d="M9.235 20c-.133 0-.266-.014-.397-.043C.515 18.152-.01 7.437 0 4.592a.791.791 0 0 1 .674-.78c4.78-.706 7.248-2.722 8.151-3.64a.572.572 0 0 1 .821 0c.903.918 3.372 2.934 8.151 3.64.387.057.673.39.674.78.01 2.846-.514 13.56-8.839 15.365-.13.029-.263.043-.397.043z" fill="#428f66"/>
        <path d="M13.342 8.51 8.852 13a.67.67 0 0 1-.947 0l-2.138-2.138a.67.67 0 1 1 .946-.946l1.665 1.664 4.018-4.017a.67.67 0 0 1 .946.946z" fill="#FFF"/>
    </g>
</svg>
