<svg width="20" height="21" viewBox="0 0 20 21" xmlns="http://www.w3.org/2000/svg">
    <g fill-rule="evenodd">
        <path d="M18.436 10.05c0-1.392.01-2.785-.006-4.178a4.872 4.872 0 0 0-.146-1.097c-.195-.79-.68-1.4-1.25-1.965-.81-.803-1.768-1.21-2.906-1.21-2.754.002-5.507 0-8.26.004-.247 0-.497.012-.738.058-1.474.28-2.458 1.205-3.17 2.463-.279.494-.394 1.046-.394 1.614-.004 2.864-.013 5.728.009 8.592.003.432.116.876.248 1.293.219.686.695 1.208 1.205 1.702.776.752 1.697 1.145 2.775 1.147 2.799.005 5.598.006 8.397-.005.347 0 .7-.058 1.04-.14.805-.193 1.43-.682 1.999-1.265.788-.807 1.204-1.757 1.199-2.892-.007-1.373-.002-2.747-.002-4.12M20 5.35v9.374c-.072.348-.122.703-.218 1.044-.29 1.045-.905 1.883-1.674 2.633-1.092 1.065-2.385 1.628-3.908 1.633-2.798.008-5.596.002-8.394.002-.577 0-1.139-.09-1.69-.264-.981-.309-1.775-.898-2.483-1.63C.564 17.042 0 15.739 0 14.197c.002-2.772 0-5.544.003-8.317 0-.272.02-.546.05-.817C.307 2.828 2.369.81 4.118.308c.404-.116.822-.18 1.234-.269h9.295c.362.072.73.123 1.084.22 1.095.296 1.963.948 2.724 1.766.65.697 1.129 1.487 1.364 2.414.076.3.12.608.18.912"/>
        <path d="M8.113 9.257h5.695c.556.001.925.453.801.97-.084.35-.393.59-.776.591-.8.003-1.6.001-2.401.001H8.068c.072.076.117.125.164.172l1.532 1.533c.242.243.329.528.21.856-.192.535-.854.685-1.278.283-.345-.327-.675-.669-1.01-1.005-.664-.662-1.327-1.324-1.989-1.988-.413-.414-.414-.848-.003-1.26.98-.98 1.961-1.959 2.94-2.941.246-.247.528-.354.867-.239.553.187.701.868.28 1.303-.445.457-.9.904-1.353 1.354-.11.11-.228.213-.342.319l.027.05"/>
    </g>
</svg>
