<svg width="19" height="20" viewBox="0 0 19 20" xmlns="http://www.w3.org/2000/svg">
    <path d="M.666 19v-.55c.058-.004.102-.01.147-.01h17.853V19h-18zm15.197-2.838h2.216V1.569h-2.216v14.593zm-.574-7.293V1.413c0-.338.076-.413.416-.413h2.55c.321 0 .41.087.41.408.002 1.372.001 2.743.001 4.115v10.73c0 .071.001.143-.009.213-.026.175-.12.267-.297.267-.922.004-1.844.004-2.765 0-.21 0-.305-.12-.305-.36V8.87zm-4.203 7.294h2.22V4.952h-2.22v11.211zm-.574-5.615v-5.76c0-.334.088-.423.415-.423h2.552c.312 0 .412.1.412.414v11.538c0 .328-.092.419-.42.419h-2.568c-.3 0-.391-.092-.391-.394v-5.794zm-4.346 5.615h2.217V8.32H6.166v7.842zm2.791-3.92v4.08c0 .327-.083.413-.404.413H5.987c-.314 0-.409-.096-.409-.414V8.145c0-.31.092-.401.402-.401h2.582c.313 0 .395.085.395.402v4.097zm-7.42 3.917h2.222v-4.473H1.537v4.473zm2.792-2.227v2.436c0 .269-.097.366-.366.366H1.33c-.273 0-.376-.1-.376-.378-.002-1.623-.002-3.247 0-4.87 0-.276.105-.377.38-.377H3.95c.287 0 .38.095.38.388v2.435z" stroke-width=".5" fill-rule="evenodd"/>
</svg>
