<svg width="16" height="12" viewBox="0 0 16 12" xmlns="http://www.w3.org/2000/svg" xmlns:xlink="http://www.w3.org/1999/xlink">
    <defs>
        <path id="a" d="M0 .003h15.973v10.643H0z"/>
    </defs>
    <g fill="none" fill-rule="evenodd">
        <g transform="translate(0 .028)">
            <mask id="b" fill="#fff">
                <use xlink:href="#a"/>
            </mask>
            <path d="M7.641.003c.24.041.482.07.717.127 1.39.339 2.426 1.14 3.091 2.408.063.121.127.155.26.147 2.032-.118 3.754 1.193 4.178 3.172.478 2.23-1.097 4.46-3.364 4.743-.41.05-.83.044-1.245.037a.647.647 0 0 1-.632-.675.662.662 0 0 1 .669-.643c.445-.008.893.025 1.333-.088 1.255-.324 2.073-1.488 1.978-2.827-.085-1.212-1.1-2.25-2.337-2.385-.111-.013-.224-.018-.346-.027.011.248.034.474.03.7-.005.325-.253.583-.583.63a.659.659 0 0 1-.704-.446 1.077 1.077 0 0 1-.042-.291c-.06-1.926-1.652-3.367-3.58-3.24-1.48.1-2.755 1.254-3.005 2.73.036.013.072.03.111.04.413.104.79.285 1.132.537.327.24.405.635.187.943-.221.313-.63.37-.965.135-.728-.511-1.609-.536-2.305-.066a1.997 1.997 0 0 0-.808 2.216A2.004 2.004 0 0 0 3.3 9.316c.457.009.914-.001 1.372.004.339.004.596.24.647.58a.659.659 0 0 1-.673.743c-.514 0-1.03.012-1.543-.011C1.555 10.562.21 9.297.03 7.757c-.005-.04-.02-.079-.03-.118v-.623c.01-.04.023-.078.028-.118.198-1.405 1.182-2.492 2.553-2.813.085-.02.122-.051.14-.147C3.109 1.972 4.26.698 6.194.15c.267-.076.55-.1.825-.148h.623z" fill="#F22623" mask="url(#b)"/>
        </g>
        <path d="M8.907 10c.306.303.588.572.86.851.276.285.276.685.01.95-.264.264-.668.263-.95-.012-.279-.271-.55-.55-.867-.868-.059.078-.104.155-.165.217-.213.22-.43.437-.65.65-.283.275-.683.278-.95.014-.27-.267-.264-.674.02-.96.27-.274.543-.544.826-.827-.039-.043-.071-.08-.107-.116l-.705-.705c-.295-.298-.31-.696-.038-.972.273-.278.68-.264.984.036.232.23.463.463.695.694.036.035.074.068.129.119.282-.287.558-.569.835-.848a.639.639 0 0 1 .58-.2.637.637 0 0 1 .531.448.633.633 0 0 1-.158.676c-.238.247-.483.486-.727.728-.04.04-.087.072-.153.125" fill="#F22623"/>
    </g>
</svg>
