<svg width="17" height="20" viewBox="0 0 17 20" xmlns="http://www.w3.org/2000/svg" xmlns:xlink="http://www.w3.org/1999/xlink">
    <defs>
        <path id="3x0oa9wc9a" d="M0 0h16.241v20H0z"/>
    </defs>
    <g fill="none" fill-rule="evenodd">
        <mask id="y5np8t5pwb" fill="#fff">
            <use xlink:href="#3x0oa9wc9a"/>
        </mask>
        <path d="M0 15.598v-.767c.013-.044.034-.088.038-.132a4.4 4.4 0 0 1 .473-1.614c.364-.728.868-1.36 1.386-1.979.524-.626.687-1.341.58-2.129-.048-.354-.139-.702-.214-1.07 1.062.634 2.105 1.27 2.445 2.592a.558.558 0 0 0 .024-.2 9.068 9.068 0 0 1 .256-2.48c.229-.928.72-1.712 1.307-2.451.267-.336.496-.703.748-1.052.673-.932.831-1.949.497-3.042C7.408.845 7.254.424 7.11 0c.065.033.133.06.195.099 1.25.763 2.24 1.787 3.06 2.996.666.982 1.135 2.038 1.33 3.21.052.313.078.63.118.959.88-.833 1.111-1.86.986-3.008.034.024.05.044.063.066.673 1.1 1.305 2.224 1.832 3.403.616 1.376 1.142 2.781 1.403 4.273.06.35.097.703.144 1.055v.808c-.045.332-.074.668-.14.996-.537 2.694-2.87 4.817-5.651 5.124.663-.35 1.088-.876 1.342-1.537a4.716 4.716 0 0 0 .23-2.599c-.24-1.283-.821-2.423-1.531-3.503-.011-.017-.035-.024-.075-.05.06.566-.057 1.045-.489 1.448-.113-1.629-1.05-2.686-2.292-3.582 0 .356.005.672-.001.987-.021 1.156-.467 2.12-1.299 2.92-.412.396-.817.803-1.196 1.23-1.334 1.51-.977 3.631.774 4.668.005.003.002.02.004.037l-.183-.016c-.067-.007-.133-.016-.2-.025-1.14-.145-2.245-.42-3.262-.974-.998-.545-1.769-1.295-2.091-2.42-.09-.314-.122-.644-.181-.967" fill="#428F65" mask="url(#y5np8t5pwb)"/>
    </g>
</svg>
