<svg width="17" height="14" viewBox="0 0 17 14" xmlns="http://www.w3.org/2000/svg">
    <g fill="#428F65" fill-rule="evenodd">
        <path d="M6.388 0c.125.112.255.22.374.338.818.814 1.634 1.631 2.45 2.448.039.038.075.078.12.126-.034.04-.062.077-.095.11l-2.63 2.63c-.132.133-.274.222-.47.16-.192-.062-.294-.205-.295-.43-.002-.522 0-1.044 0-1.564-2.606-.366-4.133 1.402-4.085 3.3.042 1.674 1.45 3.06 3.148 3.09.536.01.92.357.935.845a.868.868 0 0 1-.908.904c-1.842-.054-3.279-.855-4.225-2.431-1.824-3.038.064-6.944 3.578-7.432.503-.07 1.018-.05 1.556-.074v-.194c0-.42.011-.839-.004-1.258-.01-.256.064-.448.296-.568h.255zM16.346 7.402c-.06.309-.102.623-.185.925a4.955 4.955 0 0 1-4.722 3.631c-.303.004-.605 0-.929 0v1.067c0 .17.001.34 0 .51-.002.224-.089.364-.266.433-.19.075-.341.01-.477-.125-.764-.766-1.529-1.53-2.294-2.294-.15-.15-.307-.293-.467-.447.044-.05.069-.083.098-.112l2.642-2.642.052-.051c.132-.122.282-.166.453-.094.176.075.258.213.259.402v1.58c2.118.27 3.653-.787 4.028-2.597.365-1.765-.928-3.547-2.713-3.762a5.718 5.718 0 0 0-.454-.033.88.88 0 0 1-.86-.883.877.877 0 0 1 .874-.868c2.357-.036 4.52 1.784 4.888 4.111.023.15.049.298.073.447v.802z"/>
    </g>
</svg>
