<svg width="28" height="28" viewBox="0 0 28 28" xmlns="http://www.w3.org/2000/svg">
    <g fill="none" fill-rule="evenodd">
        <rect stroke="#D8D7D7" x=".5" y=".5" width="27" height="27" rx="13.5"/>
        <path d="M12.46 4.808c.154.11.327.203.46.336 1.43 1.42 2.852 2.847 4.277 4.271.131.131.242.269.259.464.032.363-.196.672-.56.698-.378.026-.76.014-1.14.016-.28.002-.56 0-.864 0v.24c0 2.227-.01 4.453.006 6.678.004.555-.326.831-.806.797-.267-.019-.536-.003-.772-.003l2.864 2.865 2.867-2.865h-.837c-.496-.001-.75-.248-.75-.743-.002-1.652-.002-3.304 0-4.955.002-.516.386-.834.83-.698.282.085.454.328.455.656.003.732.001 1.464.001 2.196V17.008c.073.004.134.01.196.01.556 0 1.113-.004 1.67.001.436.005.735.288.692.68a.775.775 0 0 1-.2.431 931.325 931.325 0 0 1-4.455 4.465c-.294.292-.664.281-.965-.019-1.471-1.469-2.94-2.94-4.411-4.41-.217-.216-.299-.464-.183-.75.114-.283.35-.396.644-.397.556-.002 1.113 0 1.67-.001.062 0 .124-.006.205-.01v-6.951c0-.51.242-.75.755-.75h.843L12.32 6.42 9.444 9.296c.014.002.055.01.097.01.28.002.562-.003.843.002.357.007.606.237.646.59.007.058.01.117.01.175 0 1.635 0 3.269-.002 4.903 0 .11-.01.225-.043.328a.629.629 0 0 1-.672.425.646.646 0 0 1-.565-.583c-.006-.064-.004-.129-.004-.193v-4.359h-.203c-.544 0-1.089.003-1.634-.001-.459-.004-.77-.289-.72-.688a.788.788 0 0 1 .203-.43 859.981 859.981 0 0 1 4.445-4.45c.092-.091.221-.146.333-.217h.281z" fill="#606060"/>
    </g>
</svg>
