<svg width="14" height="14" viewBox="0 0 14 14" xmlns="http://www.w3.org/2000/svg">
    <g fill="none" fill-rule="evenodd">
        <path d="M.756 2.381c1.914.009 3.827.004 5.74.005.335 0 .56.157.64.444a.59.59 0 0 1-.471.736 1.541 1.541 0 0 1-.23.015H1.202v8.342h8.342V6.651c0-.328.134-.55.387-.645a.595.595 0 0 1 .8.482c.01.063.009.128.009.192 0 1.896-.005 3.793.004 5.69.001.374-.121.636-.49.755H.487A.68.68 0 0 1 0 12.638V2.871c.119-.37.382-.491.756-.49zM12.436 0c.453 0 .689.233.69.684l-.001 4.626c0 .366-.202.607-.538.65a.588.588 0 0 1-.642-.495 1.77 1.77 0 0 1-.013-.23v-3.19c-.062.058-.099.091-.134.126C9.82 4.15 7.84 6.128 5.863 8.107c-.174.174-.363.284-.617.23a.592.592 0 0 1-.336-.956c.04-.05.086-.095.132-.14l5.908-5.909c.036-.035.082-.06.123-.09l-.022-.048h-.143c-1.017 0-2.033.001-3.05-.003a.96.96 0 0 1-.349-.059.57.57 0 0 1-.339-.626.59.59 0 0 1 .524-.501L7.77 0h4.666z" fill="#428F65"/>
    </g>
</svg>
