<svg width="32" height="32" viewBox="0 0 32 32" xmlns="http://www.w3.org/2000/svg" xmlns:xlink="http://www.w3.org/1999/xlink">
    <defs>
        <path id="ao21phlkza" d="M0 0h22.558v30H0z"/>
    </defs>
    <g fill="none" fill-rule="evenodd">
        <path d="M0 0h32v32H0z"/>
        <g opacity=".65">
            <g transform="translate(5 1)">
                <mask id="cyotfooocb" fill="#fff">
                    <use xlink:href="#ao21phlkza"/>
                </mask>
                <path d="M17.815 12.186c.008-.097.019-.168.019-.238-.001-1.275.002-2.55-.01-3.825a4.605 4.605 0 0 0-.085-.833c-.7-3.61-3.928-5.863-7.569-5.289-3.077.486-5.398 3.151-5.44 6.265-.017 1.223-.006 2.447-.005 3.67 0 .079.015.158.024.25h13.066zm-6.543 1.89H3.048c-.846 0-1.141.292-1.141 1.137-.002 3.927-.002 7.855 0 11.782 0 .827.3 1.127 1.125 1.127H19.54c.803 0 1.111-.306 1.111-1.11.002-3.937.002-7.875 0-11.813 0-.822-.304-1.123-1.125-1.123h-8.254zM0 27.512V14.638c.02-.045.051-.088.06-.135.217-1.169 1.008-1.989 2.17-2.24.189-.04.382-.057.59-.087 0-1.19-.022-2.36.008-3.528.017-.66.054-1.33.192-1.973C4.115 1.56 9.558-1.357 14.411.626c3.186 1.302 4.968 3.746 5.268 7.178.117 1.337.045 2.69.06 4.036.001.12.01.238.016.347 1.315.095 2.208.7 2.645 1.918.07.193.106.396.158.595v12.812c-.02.057-.049.113-.06.171-.207 1.101-.846 1.827-1.904 2.188-.134.046-.27.086-.404.129H2.368c-.114-.04-.227-.083-.343-.117-.966-.285-1.589-.917-1.893-1.868-.053-.165-.089-.335-.132-.503z" fill="#FFF" mask="url(#cyotfooocb)"/>
            </g>
            <path d="M16.274 21.616c.56.001.942-.375.94-.926-.001-.55-.394-.933-.946-.925-.546.007-.917.374-.924.915-.007.553.373.934.93.936m-.931 2.878c0-.29-.013-.58.003-.87.012-.213-.05-.32-.261-.412a2.743 2.743 0 0 1-1.584-3.034c.252-1.292 1.276-2.214 2.548-2.294 1.37-.086 2.523.681 2.916 1.94.436 1.394-.197 2.82-1.526 3.402-.191.084-.23.188-.227.373.01.59.009 1.18.001 1.77-.006.578-.368.946-.922.954-.562.008-.937-.37-.947-.96-.005-.29 0-.58-.001-.87" fill="#FFF"/>
        </g>
    </g>
</svg>
