<svg width="15" height="20" viewBox="0 0 15 20" xmlns="http://www.w3.org/2000/svg" xmlns:xlink="http://www.w3.org/1999/xlink">
    <defs>
        <path id="oxitz2w9ca" d="M0 0h14.984v20H0z"/>
    </defs>
    <g fill="none" fill-rule="evenodd">
        <mask id="0dxxgf0jtb" fill="#fff">
            <use xlink:href="#oxitz2w9ca"/>
        </mask>
        <path d="M6.663 14.975v.41c0 .162-.004.325.003.487.02.448.38.796.824.798a.818.818 0 0 0 .826-.793c.013-.572.01-1.145.002-1.717a.36.36 0 0 1 .167-.336c.653-.48.853-1.331.498-2.055a1.644 1.644 0 0 0-1.93-.868c-.643.184-1.053.617-1.187 1.268-.14.68.094 1.244.645 1.664.11.084.16.163.155.303-.01.279-.003.559-.003.839zm4.156-7.48c0-.651.005-1.288-.002-1.924-.005-.383.004-.77-.053-1.147-.263-1.74-2.02-3.001-3.752-2.713-1.692.28-2.837 1.623-2.846 3.34-.003.723 0 1.445 0 2.167v.277h6.653zm4.165 1.611V18.4c-.014.041-.031.082-.042.124-.174.69-.595 1.153-1.265 1.389-.096.034-.195.059-.293.088H1.6c-.015-.01-.03-.026-.047-.03C.54 19.724 0 19.04 0 17.995v-8.53c.001-1.156.806-1.957 1.965-1.96h.533c0-.817-.008-1.61.003-2.402a6.8 6.8 0 0 1 .078-.97C2.994 1.519 5.61-.365 8.222.06c2.507.409 4.26 2.465 4.265 5.005V7.506c.242 0 .456-.004.67.001a1.88 1.88 0 0 1 1.74 1.306c.03.097.058.195.087.293z" fill="#C28058" mask="url(#0dxxgf0jtb)"/>
    </g>
</svg>
