<svg width="32" height="32" viewBox="0 0 32 32" xmlns="http://www.w3.org/2000/svg" xmlns:xlink="http://www.w3.org/1999/xlink">
    <defs>
        <path id="dxdlk7xx6a" d="M0 0h18.913v17.681H0z"/>
        <path id="luo9xptq2c" d="M0 0h30.013v28.143H0z"/>
    </defs>
    <g fill="none" fill-rule="evenodd">
        <path d="M0 0h32v32H0z"/>
        <g opacity=".7">
            <g transform="translate(12.1 13.319)">
                <mask id="teo2g2iceb" fill="#fff">
                    <use xlink:href="#dxdlk7xx6a"/>
                </mask>
                <path d="M1.644 14.521c.029-.178.02-.354.013-.524l-.002-.054c1.04.464 2.24.68 3.66.658 1.274-.018 2.335-.225 3.31-.648v.109c0 .325 0 .633-.003.94 0 .101-.07.16-.23.27l-.014.01c-.404.28-.888.465-1.522.583-1.578.294-2.976.214-4.274-.243-.056-.02-.112-.044-.172-.07a4.891 4.891 0 0 0-.112-.047c-.542-.219-.731-.504-.654-.984m-.009-3.473c-.007-.067-.019-.17-.015-.231.046.018.113.056.158.08.086.05.175.1.27.129 2.342.727 4.495.673 6.575-.165v.117c0 .324.001.63-.002.941 0 .096-.067.153-.221.263-.431.307-.965.508-1.68.63-1.519.259-2.863.173-4.109-.261a2.68 2.68 0 0 1-.15-.057c-.774-.322-.811-.378-.807-1.201 0-.08-.01-.164-.019-.245m6.988-2.23c0 .116-.073.179-.242.295l-.01.006c-.446.308-.985.501-1.748.628-1.361.226-2.601.16-3.792-.204a.903.903 0 0 0-.05-.014c-.01-.002-.02-.004-.029-.008-1.028-.34-1.1-.439-1.1-1.507v-.008c0-.077 0-.157.002-.217.054.019.122.045.188.071l.019.007c1.227.479 2.593.652 4.176.53.965-.074 1.815-.274 2.586-.61V8.818m-.157-5.935c-.466.364-1.023.523-1.555.64-.566.123-1.152.19-1.569.178h-.005C4.05 3.7 3.152 3.545 2.334 3.188a1.858 1.858 0 0 1-.569-.357c-.063-.063-.099-.12-.098-.156 0-.035.036-.087.097-.145.356-.33.803-.48 1.194-.584a8.603 8.603 0 0 1 2.21-.296c.85 0 1.686.135 2.5.405.322.107.583.244.799.42.146.118.16.184.16.207 0 .023-.016.088-.16.201m.162 2.18c.003.036 0 .078-.001.122-.004.074-.008.158.008.245.06.325-.071.53-.466.735-.709.365-1.512.556-2.529.6a6.084 6.084 0 0 1-.343.002h-.169c-.978.012-1.815-.117-2.557-.397a5.654 5.654 0 0 1-.188-.073c-.609-.229-.83-.558-.74-1.1.029-.168.02-.334.012-.494v-.015c2.095.844 4.321.897 6.618.156l.018-.005a1.287 1.287 0 0 0 .286-.13c.022-.013.05-.03.076-.043-.001.045-.008.103-.012.143-.01.082-.019.168-.013.254m8.474 3.985c-.489.385-1.086.544-1.551.64-1.429.294-2.814.243-4.12-.154a3.205 3.205 0 0 1-.812-.367c-.3-.192-.322-.297-.322-.324 0-.028.024-.134.333-.327.243-.153.52-.274.872-.382a7.493 7.493 0 0 1 2.2-.309h.01c1.156.008 2.013.153 2.778.47.271.112.462.222.617.355.094.08.147.154.146.203-.001.05-.056.12-.151.195m-.136 3.184c-.437.273-.951.459-1.572.57-1.518.27-2.873.188-4.142-.248-.077-.027-.153-.059-.233-.093l-.076-.032c-.556-.23-.74-.504-.658-.978.033-.19.027-.378.02-.578.526.23 1.042.384 1.567.471 2.059.34 3.824.181 5.396-.485-.007.256-.01.548.002.845.01.234-.078.387-.304.528m.302 2.7c0 .12-.058.206-.224.325-.496.358-1.089.516-1.655.633-.437.09-.945.138-1.508.142-1.13-.003-1.979-.139-2.753-.44-.087-.034-.173-.076-.264-.12a9.487 9.487 0 0 0-.088-.043c-.4-.19-.543-.416-.49-.778.033-.218.024-.436.014-.647l-.003-.063c2.039.826 4.233.888 6.525.186.157-.049.31-.116.446-.182-.005.334-.003.665 0 .987m.55-7.809a4.65 4.65 0 0 0-.835-.414c-1.527-.557-3.17-.68-5.022-.38a7.063 7.063 0 0 0-1.667.492v-.938c-.002-1.04-.004-2.021.004-3.025a2.026 2.026 0 0 0-.715-1.604C9.204.921 8.738.665 8.158.471 6.855.034 5.436-.1 3.938.073c-1.226.142-2.11.42-2.866.905C.347 1.442-.003 2.068 0 2.891.02 6.904.02 10.908 0 14.79c-.004.82.343 1.447 1.063 1.918.528.345 1.1.534 1.59.672.297.085.6.131.893.176.22.034.449.069.666.12l.023.004h1.779l.021-.004c.214-.047.437-.08.653-.112.308-.045.626-.092.938-.18.573-.163 1.236-.389 1.809-.827a.691.691 0 0 1 .028-.02s.002 0 .003.002c.995.742 2.156.962 3.161 1.08l.066.006c.055.005.103.009.13.026l.05.03h1.814l.024-.006c.218-.052.438-.085.67-.12.29-.043.59-.087.886-.173a7.103 7.103 0 0 0 1.27-.482c.69-.357 1.137-.846 1.364-1.494l.012-.033V8.482l-.012-.033a2.53 2.53 0 0 0-1.082-1.326" fill="#FFF" mask="url(#teo2g2iceb)"/>
            </g>
            <g transform="translate(1 1)">
                <mask id="kij9b4kkmd" fill="#fff">
                    <use xlink:href="#luo9xptq2c"/>
                </mask>
                <path d="M30.005 13.902c-.053-.187-.069-.382-.085-.59-.01-.124-.02-.252-.039-.38-.449-3.046-1.664-5.679-3.612-7.828C22.673 1.137 18.189-.53 12.94.147 9.01.654 5.74 2.536 3.224 5.74.527 9.175-.486 13.116.215 17.455c.556 3.44 2.198 6.403 4.882 8.804.747.668 1.57 1.259 2.449 1.755a.967.967 0 0 0 .474.13.79.79 0 0 0 .798-.744c.039-.47-.271-.712-.545-.872a12.8 12.8 0 0 1-3.714-3.225c-2.473-3.19-3.374-6.8-2.678-10.727.544-3.065 2.03-5.65 4.417-7.68 3.226-2.744 6.972-3.762 11.133-3.025 3.331.589 6.098 2.297 8.225 5.075a13.043 13.043 0 0 1 2.583 6.226c.072.526.098 1.068.123 1.592l.01.203c.026.55.355.754.626.827.514.14.809-.228.985-.517l.03-.049V13.93l-.008-.027z" fill="#FFF" mask="url(#kij9b4kkmd)"/>
            </g>
            <path d="M10.423 8.116a9.514 9.514 0 0 1 7.17-1.628c3.46.595 5.942 2.588 7.377 5.923.442 1.03.673 2.191.703 3.552a.906.906 0 0 0 .28.656.785.785 0 0 0 .581.205c.472-.028.777-.39.778-.922a10.683 10.683 0 0 0-.544-3.383 11.533 11.533 0 0 0-2.376-4.108 11.24 11.24 0 0 0-3.651-2.7c-2.812-1.304-5.956-1.38-8.853-.214-2.163.87-3.869 2.156-5.07 3.82-1.189 1.647-1.89 3.672-2.083 6.02-.202 2.448.44 4.798 1.906 6.987.57.85 1.262 1.622 2.057 2.293a.878.878 0 0 0 .567.216c.218 0 .43-.09.594-.266.311-.336.29-.812-.05-1.157a4.116 4.116 0 0 0-.181-.17l-.06-.054C7.494 21.29 6.41 18.92 6.352 16.142c.021-.65.045-1.189.134-1.721a9.62 9.62 0 0 1 3.938-6.305" fill="#FFF"/>
        </g>
    </g>
</svg>
