<svg width="32" height="32" viewBox="0 0 32 32" xmlns="http://www.w3.org/2000/svg" xmlns:xlink="http://www.w3.org/1999/xlink">
    <defs>
        <path id="kshylaiefa" d="M0 0h30v29.929H0z"/>
    </defs>
    <g fill="none" fill-rule="evenodd">
        <path d="M0 0h32v32H0z"/>
        <g opacity=".7" transform="translate(1 2)">
            <mask id="p5idxbntqb" fill="#fff">
                <use xlink:href="#kshylaiefa"/>
            </mask>
            <path d="M28.731 16.618c-.699.4-1.396.804-2.14 1.232 0-.69.054-1.335-.015-1.966-.068-.615.157-.932.712-1.151.513-.203.99-.498 1.537-.78v2.5a.17.17 0 0 1-.094.165m-2.829-2.584-2.078-1.082c.71-.408 1.381-.793 2.051-1.182.074-.042.14-.066.218-.022l2.084 1.203c-.733.38-1.424.736-2.113 1.096-.061.032-.107.016-.162-.013m-.491 10.485c0 .506-.162.681-.652.736h-5.306c-.471-.017-.471-.017-.471-.477 0-.283-.004-.565 0-.848.009-.505-.21-.878-.645-1.13-.844-.486-1.686-.977-2.534-1.456-.165-.093-.235-.192-.228-.387.015-.496.013-.994 0-1.49-.004-.181.06-.278.215-.366.815-.459 1.618-.94 2.436-1.393.522-.289.792-.698.758-1.302-.013-.233.003-.468-.004-.702-.004-.128.046-.167.17-.167.89.004 1.778.005 2.666 0 .152-.002.178.069.176.195a23.15 23.15 0 0 0 0 .76c.006.51.225.892.675 1.147.847.482 1.688.975 2.537 1.454.157.088.212.19.212.368-.007 1.686-.002 3.372-.005 5.058m-7.766 2.675c-.626.358-1.252.716-1.873 1.082-.18.107-.206.04-.205-.13.005-.77.002-1.54.003-2.31 0-.096-.01-.188.105-.247.692-.354 1.38-.714 2.128-1.102 0 .863-.003 1.662.003 2.46 0 .13-.06.19-.16.247m-3.292-2.882c-.477-.31-1.005-.54-1.55-.825.713-.41 1.38-.79 2.044-1.176.084-.048.154-.067.243-.015.67.389 1.343.776 2.062 1.19-.55.288-1.078.52-1.558.826-.438.28-.8.286-1.241 0m.014 4.061c-.73-.42-1.403-.81-2.078-1.195a.217.217 0 0 1-.121-.211c.002-.75.003-1.5-.001-2.251-.001-.183.062-.192.207-.115.611.323 1.226.64 1.84.957.091.047.156.1.155.22-.004.846-.002 1.692-.002 2.595m-2.67-5.62c-.502.28-.745.69-.73 1.262.007.311-.015.624.006.935.015.236-.047.316-.3.311-.907-.016-1.815-.006-2.723-.006H5.287c-.492-.001-.711-.218-.712-.716-.003-1.694.001-3.389-.005-5.084 0-.166.05-.262.197-.345.823-.464 1.633-.95 2.461-1.404.548-.3.805-.733.786-1.352-.009-.26-.113-.596.046-.76.16-.167.499-.05.76-.053.633-.008 1.268.004 1.902-.006.184-.003.266.04.25.24-.016.213.002.428-.004.642-.017.571.222.984.725 1.265.833.466 1.654.954 2.485 1.423.155.088.22.186.215.367-.012.487-.013.974 0 1.46.006.2-.054.314-.235.414-.824.46-1.635.946-2.46 1.407m-7.812-8.725c-.671-.351-1.344-.7-2.065-1.076.72-.415 1.388-.797 2.052-1.184.098-.057.175-.046.27.009.663.386 1.33.77 2.032 1.174-.72.372-1.41.729-2.1 1.089-.072.038-.126.02-.189-.012M3.4 17.843c-.735-.422-1.416-.816-2.1-1.205-.097-.055-.128-.126-.128-.234.004-.798.002-1.595.002-2.389.098-.048.155.02.22.053.595.308 1.187.625 1.787.925.16.08.226.168.223.352-.01.815-.004 1.63-.004 2.498m1.176-2.494c0-.1-.037-.215.092-.282.698-.36 1.395-.722 2.14-1.11 0 .552.003 1.054 0 1.555-.002.35.104.766-.05 1.031-.151.264-.564.38-.866.557-.419.244-.84.483-1.28.736-.06-.14-.036-.265-.037-.384-.002-.701-.002-1.402 0-2.103m0-9.542c0-.533.208-.736.748-.736h2.664c.908 0 1.815.006 2.723-.005.203-.002.282.05.262.259-.017.183.002.37-.004.555-.022.583.223 1.002.737 1.288.825.46 1.636.945 2.46 1.407.167.094.235.195.229.388-.015.487-.014.974 0 1.461.005.19-.053.297-.223.392-.824.462-1.635.948-2.46 1.407-.514.286-.764.7-.744 1.285.008.214-.005.429.004.643.005.147-.042.209-.199.208-.859-.006-1.718-.005-2.576-.001-.14 0-.19-.055-.187-.19.005-.244 0-.488 0-.731.003-.533-.218-.93-.69-1.198-.847-.48-1.686-.975-2.535-1.452-.158-.089-.214-.185-.214-.363.007-1.539.003-3.078.005-4.617m7.584-.308c.042-.6.015-1.207.008-1.81-.002-.19.048-.22.216-.13.61.325 1.224.642 1.837.961.081.042.149.084.149.193-.003.853-.002 1.707-.002 2.613-.599-.344-1.14-.688-1.712-.97-.383-.19-.526-.429-.496-.857m.854-3.178c.61-.343 1.215-.694 1.819-1.048.106-.062.188-.066.294-.004.654.383 1.312.76 2.029 1.174-.73.379-1.409.73-2.086 1.085-.095.05-.166.012-.244-.029-.603-.315-1.205-.632-1.81-.941-.175-.09-.17-.143-.002-.237M17.806 3.7c-.007.72-.005 1.441-.001 2.162 0 .127-.025.213-.148.283-.629.353-1.253.715-1.874 1.08-.157.092-.22.086-.216-.116.008-.39.002-.78.002-1.17 0-.38.006-.76-.003-1.139-.003-.146.047-.23.178-.296a93.032 93.032 0 0 0 1.842-.953c.2-.106.221-.035.22.149M15.57 15.314c0-.097-.009-.19.105-.248.692-.353 1.38-.713 2.128-1.1 0 .87-.003 1.679.002 2.486 0 .123-.072.167-.159.217-.625.36-1.25.718-1.872 1.084-.178.105-.208.044-.207-.13.005-.77.002-1.54.003-2.31m-2.767-2.347c.72-.414 1.378-.79 2.034-1.172.093-.054.168-.071.268-.013.664.387 1.33.77 2.015 1.163-.179.173-.395.24-.588.342-.455.244-.914.48-1.373.715-.083.043-.159.114-.27.056-.677-.356-1.356-.71-2.086-1.091m1.564 4.884-2.11-1.215c-.093-.053-.088-.142-.087-.23 0-.73.003-1.461-.003-2.192-.001-.185.044-.224.216-.132.601.32 1.208.63 1.813.946.085.045.173.081.173.208-.003.854-.002 1.708-.002 2.615m11.023-.013c-.74-.427-1.42-.82-2.1-1.21-.082-.047-.099-.11-.099-.192v-2.473l.906.468c.37.192.74.387 1.111.58.097.05.185.09.184.228-.004.844-.002 1.689-.002 2.6M18.982 5.873a.382.382 0 0 1 0-.059c.02-.24-.105-.546.053-.701.144-.142.446-.04.678-.041.762-.005 1.523-.002 2.285-.002h2.724c.466.001.685.207.687.677.006 1.579 0 3.157.007 4.736 0 .17-.087.238-.211.309-.83.474-1.652.96-2.487 1.424-.505.28-.742.694-.728 1.264.005.224-.006.448.002.672.005.15-.05.206-.203.205-.869-.004-1.738-.004-2.607 0-.15.002-.21-.046-.202-.2.01-.224-.007-.449.004-.673.029-.579-.23-.979-.73-1.26-.816-.456-1.62-.935-2.435-1.393-.173-.098-.252-.2-.245-.407.017-.497.013-.994.002-1.491-.004-.167.05-.262.197-.345.824-.465 1.636-.949 2.462-1.408.522-.29.79-.706.747-1.307m10.105 6.224c-.769-.422-1.52-.873-2.285-1.302-.155-.087-.21-.186-.21-.366.009-1.548.006-3.097.005-4.646-.001-1.162-.733-1.893-1.902-1.895-1.796-.002-3.591-.007-5.387.007-.279.002-.353-.085-.33-.344.02-.232.003-.467.004-.7.001-.469-.197-.83-.6-1.066-.934-.544-1.87-1.084-2.81-1.62-.396-.226-.801-.22-1.197.007a454.43 454.43 0 0 0-2.81 1.622c-.395.23-.579.592-.594 1.041-.009.243-.019.489.002.73.022.253-.054.331-.319.33-1.678-.014-3.357-.008-5.036-.007-.185 0-.371-.004-.556.006-.94.054-1.658.801-1.66 1.74-.006 1.56-.009 3.118.004 4.677.002.262-.065.416-.306.547-.736.4-1.45.84-2.185 1.241-.405.222-.744.487-.915.928v3.802c.147.43.455.701.847.917.777.427 1.537.886 2.311 1.318.187.104.248.224.247.436-.01 1.686-.006 3.371-.005 5.057 0 1.146.722 1.873 1.885 1.877 1.777.007 3.554.008 5.331-.004.276-.002.387.057.356.349-.072.7.232 1.178.86 1.51.818.432 1.61.914 2.409 1.38.186.11.387.178.583.259h.352c1.126-.535 2.172-1.21 3.25-1.83.415-.238.569-.641.559-1.118-.011-.512-.002-.512.495-.547h5.312c.986.032 1.8-.767 1.803-1.789.006-1.715.006-3.43-.003-5.146-.001-.214.066-.33.252-.432.766-.427 1.517-.88 2.285-1.303.399-.22.722-.491.871-.934v-3.802c-.172-.44-.509-.708-.913-.93" fill="#FFF" mask="url(#p5idxbntqb)"/>
        </g>
    </g>
</svg>
