<svg width="16" height="17" viewBox="0 0 16 17" xmlns="http://www.w3.org/2000/svg" xmlns:xlink="http://www.w3.org/1999/xlink">
    <defs>
        <path id="8tzcglyg3a" d="M0 0h16v16.043H0z"/>
    </defs>
    <g fill="none" fill-rule="evenodd">
        <mask id="tki5mshv5b" fill="#fff">
            <use xlink:href="#8tzcglyg3a"/>
        </mask>
        <path d="M0 7.485C.064 7.09.108 6.69.197 6.3.936 3.03 3.56.588 6.87.117c1.965-.28 3.794.134 5.472 1.198l.176.11c.005.004.013.001.044.001l-.075-.255a.906.906 0 0 1 .58-1.12c.455-.156.97.058 1.132.516.323.915.633 1.836.921 2.763a.864.864 0 0 1-.806 1.132c-.93.027-1.861.019-2.791.003-.43-.007-.75-.306-.837-.714-.078-.37.112-.747.482-.952l.111-.06a5.417 5.417 0 0 0-1.344-.633A6.225 6.225 0 0 0 1.89 6.842c-.684 3.396 1.663 6.774 5.084 7.319 3.47.552 6.632-1.742 7.182-5.22.049-.307.046-.622.07-.934.032-.433.312-.772.702-.85.398-.08.81.106.974.47.066.147.099.321.098.482-.016 3.72-2.658 6.97-6.294 7.751a8.01 8.01 0 0 1-9.57-6.346C.079 9.215.045 8.912 0 8.611V7.485z" fill="#428F65" mask="url(#tki5mshv5b)"/>
    </g>
</svg>
