<svg width="20" height="20" viewBox="0 0 20 20" xmlns="http://www.w3.org/2000/svg" xmlns:xlink="http://www.w3.org/1999/xlink">
    <defs>
        <path id="50yh0f8bpa" d="M0 0h18.95v18.937H0z"/>
    </defs>
    <g fill="none" fill-rule="evenodd">
        <g transform="translate(1.045)">
            <mask id="39xdv1y0tb" fill="#fff">
                <use xlink:href="#50yh0f8bpa"/>
            </mask>
            <path d="M15.312 5.723a2.093 2.093 0 0 0-2.09-2.082 2.092 2.092 0 0 0-2.077 2.075 2.093 2.093 0 0 0 2.08 2.093 2.094 2.094 0 0 0 2.087-2.086zm3.639-4.431c-.049.392-.089.785-.148 1.176-.272 1.801-.896 3.481-1.779 5.068a15.377 15.377 0 0 1-3.098 3.94c-.115.105-.118.22-.125.349-.136 2.668-1.126 4.97-2.975 6.898a.758.758 0 0 1-.361.206c-.223.05-.42-.142-.458-.4l-.449-3.14-.343.305c-.3.267-.484.263-.769-.022L3.283 10.51c-.287-.287-.292-.47-.025-.768l.307-.345c-.518-.075-.997-.145-1.476-.213l-1.7-.24C.216 8.917.08 8.83.025 8.66c-.062-.184 0-.339.139-.475a10.535 10.535 0 0 1 4.256-2.558 10.43 10.43 0 0 1 2.778-.483.447.447 0 0 0 .28-.13C9.697 2.647 12.39 1.097 15.54.336c.932-.224 1.881-.33 2.842-.336.263-.002.454.074.568.315v.977z" fill="#E77836" mask="url(#39xdv1y0tb)"/>
        </g>
        <path d="M.311 20c-.306-.174-.368-.312-.265-.637.477-1.504.963-3.005 1.663-4.426.325-.66.773-1.18 1.482-1.442a2.583 2.583 0 0 1 3.043.988 2.578 2.578 0 0 1-.28 3.2c-.36.374-.827.583-1.287.795-1.27.589-2.597 1.02-3.927 1.444-.067.02-.13.052-.194.078H.31z" fill="#E77836"/>
    </g>
</svg>
