<svg width="30" height="30" viewBox="0 0 30 30" xmlns="http://www.w3.org/2000/svg">
    <g fill="none" fill-rule="evenodd">
        <rect stroke="#D8D7D7" x=".5" y=".5" width="29" height="29" rx="14.5"/>
        <path d="M20 16.896c-.185.216-.356.445-.556.646-1.246 1.256-2.499 2.507-3.75 3.758-.529.528-.856.528-1.386-.001-1.298-1.297-2.597-2.594-3.89-3.895-.154-.155-.28-.338-.418-.508v-.39c.435-.636.827-.67 1.384-.114 1.104 1.101 2.205 2.204 3.307 3.306.098.098.2.19.37.352.107-.148.178-.277.278-.377 1.09-1.096 2.183-2.19 3.277-3.281.557-.556.946-.522 1.384.113v.39zm0-6c-.185.216-.356.445-.556.646-1.246 1.256-2.499 2.507-3.75 3.758-.529.528-.856.528-1.386-.001-1.298-1.297-2.597-2.594-3.89-3.895-.154-.155-.28-.338-.418-.508v-.39c.435-.636.827-.67 1.384-.114 1.104 1.101 2.205 2.204 3.307 3.306.098.098.2.19.37.352.107-.148.178-.277.278-.377 1.09-1.096 2.183-2.19 3.277-3.281.557-.556.946-.522 1.384.113v.39z" fill="#606060"/>
    </g>
</svg>
