<svg width="32" height="32" viewBox="0 0 32 32" xmlns="http://www.w3.org/2000/svg" xmlns:xlink="http://www.w3.org/1999/xlink">
    <defs>
        <path id="nvzcwqrppa" d="M0 0h8.395v9.342H0z"/>
        <path id="18xc6kxjxc" d="M0 0h9.349v8.395H0z"/>
        <path id="odzrx5v9ye" d="M0 0h8.407v9.338H0z"/>
    </defs>
    <g fill="none" fill-rule="evenodd">
        <path d="M0 0h32v32H0z"/>
        <g opacity=".7">
            <g transform="translate(21.605 2)">
                <mask id="6zzygejl6b" fill="#fff">
                    <use xlink:href="#nvzcwqrppa"/>
                </mask>
                <path d="M1.57.986c.156.147.257.237.351.333.986.994 1.507 2.192 1.567 3.589.007.158-.005.346-.086.47-.082.127-.26.19-.408.29l1.95 2.439 2.006-2.51h-.22c-.675-.007-.743-.09-.783-.774-.062-1.076-.46-2.02-1.223-2.785C3.87 1.183 2.842.813 1.57.986zm6.825 4.32-2.98 3.72c-.334.418-.607.42-.939.007-.934-1.165-1.865-2.333-2.8-3.497-.15-.186-.25-.377-.137-.611.115-.236.329-.276.567-.26.124.007.25 0 .453 0-.091-.375-.147-.725-.262-1.054C1.951 2.62 1.306 1.868.39 1.353c-.21-.118-.404-.237-.39-.52C.016.549.215.429.443.355.835.227 1.235.117 1.632 0H2.74c.033.017.065.044.1.05C4.515.34 5.677 1.31 6.384 2.815c.268.569.392 1.205.594 1.85.214 0 .495.015.774-.004.276-.018.493.058.644.295v.35z" fill="#FFF" mask="url(#6zzygejl6b)"/>
            </g>
            <path d="M24.404 28.543v-.358c.001-.475.147-.621.62-.64.222-.01.447-.021.664-.066 1.498-.307 2.612-1.103 3.17-2.566.207-.544.284-1.112.133-1.727-.093.099-.157.17-.223.238-1.011 1.046-2.245 1.599-3.697 1.658-.462.02-.576-.072-.71-.521l-2.467 1.975 2.51 2.007zM30 24.331c-.05.195-.091.392-.151.583-.62 1.973-2.01 3.067-3.984 3.493-.161.035-.326.052-.53.083 0 .306-.006.623.001.94.006.221-.048.404-.26.508-.21.102-.391.04-.564-.099-1.205-.966-2.413-1.927-3.616-2.895-.312-.25-.32-.559-.009-.81 1.21-.975 2.42-1.948 3.646-2.904.128-.1.368-.131.531-.092.215.052.286.266.272.492-.009.153-.002.306-.002.478a3.82 3.82 0 0 0 1.634-.47 4.087 4.087 0 0 0 1.677-1.653c.117-.212.236-.406.52-.393.284.014.405.212.48.44.128.394.237.794.355 1.191v1.108z" fill="#FFF"/>
            <g transform="translate(2.006 2)">
                <mask id="1q4ig9w4gd" fill="#fff">
                    <use xlink:href="#18xc6kxjxc"/>
                </mask>
                <path d="m1.012 6.8.22-.233c.995-1.031 2.207-1.588 3.637-1.66.17-.01.37-.006.503.076.133.081.2.27.304.42l2.439-1.952-2.511-2.007v.376c-.002.45-.155.602-.61.622-.221.01-.447.02-.664.064-1.442.288-2.536 1.04-3.126 2.42-.25.585-.344 1.201-.192 1.873zM5.313 0 9.06 3c.384.31.386.595 0 .904-1.173.942-2.35 1.879-3.523 2.821-.187.15-.383.243-.613.127-.219-.11-.269-.313-.253-.543.01-.134.002-.268.002-.46-.315.066-.6.104-.872.187-1.078.33-1.895.995-2.446 1.98-.12.214-.247.398-.528.378-.268-.02-.37-.215-.462-.426C-.533 5.92.272 3.53 2.282 2.288c.722-.445 1.51-.695 2.391-.785 0-.284.014-.573-.004-.86-.018-.275.057-.492.295-.643h.35z" fill="#FFF" mask="url(#1q4ig9w4gd)"/>
            </g>
            <path d="M16.016 9.462c-3.609.008-6.538 2.938-6.54 6.544-.003 3.549 2.947 6.516 6.477 6.516 3.682-.002 6.588-2.922 6.582-6.614-.005-3.506-2.987-6.454-6.519-6.446m-.006 13.994c-4.12 0-7.465-3.327-7.466-7.43a7.454 7.454 0 0 1 7.489-7.495c4.12.002 7.44 3.345 7.436 7.488-.004 4.108-3.342 7.436-7.459 7.437" fill="#FFF"/>
            <g transform="translate(2 20.655)">
                <mask id="0lzkvbu7kf" fill="#fff">
                    <use xlink:href="#odzrx5v9ye"/>
                </mask>
                <path d="M6.84 8.329c-.113-.097-.189-.155-.257-.22-1.04-1.001-1.599-2.223-1.664-3.665-.007-.167.006-.365.09-.499.077-.125.261-.183.41-.278L3.465 1.225 1.457 3.736c.204 0 .346-.003.487 0 .293.01.468.168.503.458.011.096.003.194.01.291.112 1.455.73 2.623 1.986 3.402.712.442 1.495.609 2.397.442M1.514 4.666c-.329 0-.65.028-.965-.01a.793.793 0 0 1-.474-.25c-.144-.174-.06-.382.08-.556C1.12 2.646 2.082 1.438 3.05.236c.254-.316.576-.315.834.005a286.417 286.417 0 0 1 2.885 3.624c.1.128.131.368.092.531-.052.215-.266.286-.493.272-.144-.009-.29-.002-.5-.002.06.304.093.588.175.857a4.094 4.094 0 0 0 1.972 2.454c.212.12.404.24.39.522-.013.281-.218.387-.44.482-2.061.888-4.438.074-5.673-1.941-.442-.722-.687-1.51-.778-2.374" fill="#FFF" mask="url(#0lzkvbu7kf)"/>
            </g>
            <path d="M16.485 16.581v2.544c.496-.092.89-.666.92-1.215.03-.575-.348-1.13-.92-1.329m-.96-1.186V12.86a1.32 1.32 0 0 0-.915 1.252c-.003.613.439 1.19.916 1.283m.018-3.583v-.932h.915v.928c1.256.46 1.959 1.34 1.852 2.305h-.89c-.079-.569-.322-1.036-.95-1.286v2.733c.622.153 1.126.473 1.48 1.005.283.425.403.893.389 1.405-.028 1.01-.65 1.757-1.87 2.205v.932h-.916v-.928c-1.257-.461-1.962-1.343-1.851-2.305h.847c.106.261.17.543.323.764.145.213.381.363.578.54l.067-.049v-2.708c-.61-.15-1.12-.479-1.473-1.024a2.347 2.347 0 0 1-.372-1.38c.028-1.012.657-1.768 1.87-2.205" fill="#FFF"/>
        </g>
    </g>
</svg>
