<svg width="32" height="32" viewBox="0 0 32 32" xmlns="http://www.w3.org/2000/svg" xmlns:xlink="http://www.w3.org/1999/xlink">
    <defs>
        <path id="7lw5teak7a" d="M0 0h8.227v18.682H0z"/>
        <path id="s8oymuxjlc" d="M0 0h21.062v11.085H0z"/>
    </defs>
    <g fill="none" fill-rule="evenodd">
        <path d="M0 0h32v32H0z"/>
        <g opacity=".7">
            <g transform="translate(21.803 11.318)">
                <mask id="gwdtc7d13b" fill="#fff">
                    <use xlink:href="#7lw5teak7a"/>
                </mask>
                <path d="M4.162 15.18c-.847 0-1.694-.002-2.54 0-.311.001-.413.101-.415.406-.003.482-.006.965 0 1.447.005.424.062.477.475.477h4.754c.1 0 .2.001.3-.004.183-.01.295-.109.297-.291.005-.555 0-1.11 0-1.665-.001-.275-.134-.38-.412-.375-.82.013-1.64.005-2.46.005zm-.026-3.501H1.649c-.353 0-.434.071-.44.43-.01.5-.005 1.002-.002 1.502.002.3.092.396.392.396 1.694.003 3.388 0 5.082.004.227 0 .342-.094.345-.32.005-.528.016-1.056.013-1.584-.001-.35-.088-.427-.444-.428h-2.46zm-.023-3.501h-2.46c-.357 0-.438.07-.444.426-.01.51-.006 1.02-.001 1.53.002.277.098.372.387.372 1.694.003 3.388 0 5.082.003.224.001.346-.086.348-.316.006-.527.016-1.055.014-1.583-.001-.354-.086-.431-.44-.432H4.113zm.003-1.171h2.459c.396 0 .444-.029.46-.43.021-.49.01-.983.004-1.475-.004-.347-.09-.425-.447-.425H1.646c-.35 0-.431.072-.438.433-.008.482-.003.965-.001 1.448 0 .368.079.447.45.448.82.002 1.64.001 2.459.001zm-.023-3.501h2.54c.198 0 .391-.035.395-.275.008-.6-.003-1.2-.014-1.8-.004-.177-.118-.255-.29-.255H1.56c-.233 0-.352.125-.353.357-.001.52-.008 1.038.002 1.557.007.35.08.414.425.415.82.002 1.64 0 2.459 0zM1.207 18.682c-.18-.085-.373-.149-.535-.26-.372-.254-.606-.611-.62-1.07-.02-.601-.034-1.204-.004-1.804.016-.324.126-.644.212-1.05-.356-.634-.355-2.68.057-3.396C-.1 10.308-.101 8.288.315 7.61c-.408-.803-.409-2.744.005-3.533-.277-.314-.279-.713-.287-1.104-.01-.492-.01-.985.006-1.477C.067.597.65.015 1.553.01c1.714-.012 3.429-.012 5.143 0 .925.006 1.512.62 1.513 1.539.001.538.031 1.078-.011 1.613-.026.323-.278.658-.223.95.056.304.239.595.235.933-.005.565.028 1.133-.013 1.695-.02.287-.235.565-.235.847 0 .282.216.56.235.847.04.59.04 1.186 0 1.776-.022.305-.236.6-.237.9-.001.291.216.579.236.874.04.59.013 1.185.013 1.777 0 .055.009.114-.009.163-.083.23-.24.456-.242.684 0 .227.219.45.23.682.034.71.052 1.424.004 2.131-.038.545-.375.935-.886 1.154-.082.035-.163.072-.244.108H1.207z" fill="#FFF" mask="url(#gwdtc7d13b)"/>
            </g>
            <path d="M16.006 26.498c-.838 0-1.675-.002-2.513.001-.3 0-.391.093-.393.39-.004.5-.008 1 0 1.501.006.393.057.438.45.438h4.998c.241 0 .372-.1.369-.36-.008-.519.003-1.038-.005-1.556-.005-.35-.076-.413-.42-.414h-2.486zm.001-3.501c-.838 0-1.675-.001-2.513 0-.312.001-.387.068-.392.385-.009.51-.005 1.02-.003 1.53.002.342.072.414.42.414 1.666.002 3.333.002 5 0 .322 0 .387-.059.392-.382.009-.51.005-1.02.003-1.529-.001-.333-.085-.417-.421-.417-.829-.002-1.657-.001-2.486-.001zm-.013-3.501h-2.486c-.33 0-.401.063-.406.398-.009.51-.005 1.02-.003 1.53.002.324.075.4.406.4 1.675.003 3.35 0 5.026.005.267 0 .385-.108.383-.371-.003-.51.002-1.02 0-1.53 0-.35-.082-.431-.434-.432h-2.486zm-.015-1.17h.382l2.158-.001c.194 0 .386-.03.39-.277.009-.582.005-1.165-.002-1.747-.002-.19-.097-.306-.304-.306l-5.163.001c-.233 0-.345.122-.342.36.004.519-.005 1.038.003 1.557.005.358.064.41.42.411.819.003 1.638.001 2.458.001zM13.052 30c-.136-.066-.278-.123-.408-.199-.432-.252-.7-.64-.716-1.129-.025-.726-.048-1.464.055-2.179a3.56 3.56 0 0 0 .005-1.132c-.115-.721-.078-1.47-.056-2.206.008-.248.236-.492.236-.738s-.228-.49-.235-.738c-.022-.745-.041-1.498.053-2.234.045-.355.067-.656.014-1.024-.114-.792-.098-1.616-.033-2.419.054-.66.623-1.128 1.29-1.16.692-.032 1.385-.016 2.078-.017a649.19 649.19 0 0 1 3.144 0c1.034.003 1.626.595 1.622 1.633-.003.619-.028 1.237-.043 1.856-.001.027.004.06-.01.08-.246.36-.053.706-.018 1.076.076.819.077 1.658-.019 2.473-.039.334-.068.605.007.945.115.525.07 1.085.084 1.63.013.457.025.914-.243 1.321-.025.04-.017.129.012.17.206.304.226.65.23.996.007.483.004.966.001 1.449-.005.737-.362 1.238-1.056 1.49-.03.012-.057.037-.085.056h-5.909zM6.097 26.498c-.838 0-1.676.002-2.514-.002-.231 0-.404.065-.408.326-.007.537-.017 1.075.003 1.61.014.364.07.395.438.396h2.677c.765 0 1.53-.002 2.295.001.243.001.415-.07.416-.348 0-.528.008-1.056-.004-1.584-.008-.327-.096-.398-.417-.399H6.097zm-.043-1.17c.847 0 1.694-.002 2.541 0 .23 0 .404-.065.407-.328.005-.537.01-1.074-.003-1.611-.008-.322-.097-.391-.423-.392H5.653c-.693 0-1.385.003-2.077-.002-.235-.001-.399.074-.402.333-.006.528-.018 1.056.002 1.583.015.384.068.415.447.416h2.431zm.007-3.506c1.559.04 2.9-1.257 2.941-2.843.04-1.597-1.254-2.945-2.863-2.982-1.593-.036-2.91 1.23-2.962 2.848-.05 1.612 1.23 2.934 2.884 2.977zM2 18.731c.082-.38.127-.773.252-1.14.615-1.813 2.318-2.894 4.277-2.74 1.706.136 3.235 1.556 3.55 3.332.218 1.223-.078 2.329-.85 3.305-.084.106-.174.208-.253.302.22.115.45.2.64.34.329.243.529.584.541 1 .019.61.034 1.22.005 1.83-.015.325-.126.646-.209 1.044.206.23.215.617.222 1 .009.51.01 1.02-.003 1.53-.02.778-.465 1.228-1.169 1.466H3.15A1.7 1.7 0 0 1 2 28.851V26.5c.079-.168.16-.335.234-.505.018-.043.026-.105.008-.145-.074-.169-.16-.333-.242-.499v-2.407c.218-.568.573-.992 1.238-1.12-.562-.582-.927-1.223-1.1-1.965-.058-.245-.093-.496-.138-.744v-.383z" fill="#FFF"/>
            <g transform="translate(5.46 2)">
                <mask id="x2tlbvq61d" fill="#fff">
                    <use xlink:href="#s8oymuxjlc"/>
                </mask>
                <path d="m11.722 6.836 6.976-5.565h-1.049c-.406.001-.666-.234-.66-.598.005-.3.221-.552.522-.566.965-.044 1.93-.084 2.897-.107.499-.011.742.317.625.812-.105.442-.225.88-.338 1.32-.118.458-.233.917-.356 1.373-.104.386-.382.568-.725.484-.328-.08-.492-.365-.418-.744.035-.178.085-.353.128-.53l.141-.57c-.265.209-.482.376-.696.548l-6.483 5.202c-.453.364-.615.37-1.085.035L7.66 5.402 6.43 6.426l-5.213 4.336c-.084.07-.171.137-.26.2-.284.198-.625.153-.827-.105-.205-.263-.17-.593.105-.826.529-.448 1.063-.889 1.595-1.332C3.554 7.263 5.278 5.829 7 4.392c.516-.431.649-.438 1.19-.054 1.128.803 2.257 1.604 3.386 2.406.044.03.092.057.146.092" fill="#FFF" mask="url(#x2tlbvq61d)"/>
            </g>
        </g>
    </g>
</svg>
