<svg width="16" height="15" viewBox="0 0 16 15" xmlns="http://www.w3.org/2000/svg">
    <path d="M10.313 1.207c.592.955 1.142 1.936 1.705 2.908 1.186 2.05 2.367 4.101 3.553 6.15.384.663.525 1.361.362 2.117-.283 1.317-1.445 2.244-2.838 2.248-1.51.005-3.022.001-4.532.001H2.92c-.91 0-1.675-.33-2.262-1.036a2.854 2.854 0 0 1-.63-1.44c-.006-.04-.019-.079-.028-.118v-.5c.08-.728.465-1.326.821-1.936.302-.517.6-1.036.9-1.554 1.257-2.177 2.516-4.352 3.77-6.53C5.948.723 6.608.223 7.516.046c1.03-.2 2.245.27 2.797 1.161zm-3.693.928C5.224 4.573 3.812 7.001 2.407 9.434c-.32.554-.654 1.1-.95 1.667-.27.522-.22 1.05.1 1.542.324.498.805.699 1.385.698h5.047c1.677 0 3.354.006 5.03-.006.255-.002.528-.043.758-.143.87-.377 1.183-1.392.703-2.231-.601-1.053-1.21-2.1-1.817-3.15-1.087-1.883-2.175-3.766-3.26-5.65-.198-.345-.457-.616-.835-.762-.666-.258-1.505-.039-1.948.736zm1.392 8.15c.447.005.792.365.795.83a.81.81 0 0 1-.814.808.82.82 0 0 1-.808-.82.824.824 0 0 1 .827-.818zm.327-5.72c.387.18.502.514.478.915l-.192 3.287c-.008.15-.001.303-.026.45a.6.6 0 0 1-.606.503c-.297-.004-.553-.201-.587-.5-.046-.408-.06-.82-.086-1.23-.052-.835-.099-1.672-.155-2.507-.046-.7.577-1.195 1.174-.918z" fill="#FF3167" fill-rule="evenodd"/>
</svg>
