<svg width="14" height="13" viewBox="0 0 14 13" xmlns="http://www.w3.org/2000/svg" xmlns:xlink="http://www.w3.org/1999/xlink">
    <defs>
        <path id="zoqioh3xsa" d="M0 0h14v12.872H0z"/>
    </defs>
    <g fill="none" fill-rule="evenodd">
        <mask id="hr0fylghsb" fill="#fff">
            <use xlink:href="#zoqioh3xsa"/>
        </mask>
        <path d="M6.17 10.297c-.037.454.316.847.793.882.437.032.826-.319.866-.781.037-.433-.303-.844-.73-.882a.83.83 0 0 0-.93.78m.002-4.946c.004.05.003.1.012.15.178 1.054.357 2.109.538 3.163.031.183.133.28.278.28.148 0 .248-.096.28-.28.1-.58.2-1.161.297-1.742.086-.519.183-1.036.25-1.558.06-.471-.338-.88-.825-.882a.821.821 0 0 0-.83.869M14 11.835v.328c-.083.228-.19.445-.415.564-.125.066-.27.098-.405.145H.82c-.245-.048-.478-.128-.627-.343-.078-.112-.13-.243-.193-.366v-.328c.057-.127.106-.26.173-.381 1.329-2.416 2.66-4.831 3.99-7.246C4.84 2.978 5.519 1.75 6.194.52c.121-.22.281-.39.524-.471.434-.145.849.037 1.094.483 1.751 3.179 3.504 6.357 5.252 9.537.32.584.624 1.178.936 1.766" fill="#C28058" mask="url(#hr0fylghsb)"/>
    </g>
</svg>
