<svg width="32" height="32" viewBox="0 0 32 32" xmlns="http://www.w3.org/2000/svg">
    <g fill="none" fill-rule="evenodd">
        <path d="M0 0h32v32H0z"/>
        <path d="M18.558 1.896a2.64 2.64 0 0 1-1.722 3.284c-.23.075-.315.171-.294.41.023.266.005.535.005.793 3.177.578 3.177.578 5.843 2.414l.777-.801c-.897-1.544-.18-2.98.717-3.613 1.062-.748 2.545-.623 3.456.31a2.663 2.663 0 0 1 .216 3.478c-.663.887-2.104 1.507-3.565.643l-.805.807c1.435 1.642 2.237 3.57 2.395 5.8.343 0 .673.01 1.002-.01.064-.003.15-.114.178-.193.396-1.133 1.19-1.78 2.38-1.912 1.243-.138 2.47.767 2.789 2.026.017.068.046.133.07.2v.873c-.024.066-.053.131-.07.2-.323 1.26-1.55 2.163-2.788 2.025-1.192-.132-1.984-.778-2.38-1.91-.028-.08-.114-.191-.179-.195-.328-.02-.659-.01-.981-.01-.548 3.08-.548 3.08-2.418 5.836l.806.771c1.5-.882 2.947-.204 3.58.669.783 1.076.683 2.542-.253 3.475a2.687 2.687 0 0 1-3.458.272c-.914-.655-1.571-2.111-.653-3.661l-.675-.625c-.044-.04-.09-.08-.151-.132-1.672 1.46-3.617 2.257-5.833 2.412 0 .293.017.554-.005.811-.02.237.06.335.292.411a2.65 2.65 0 0 1 1.018 4.44c-.4.392-.898.58-1.415.743h-.875c-.066-.024-.131-.053-.2-.07-1.261-.32-2.166-1.542-2.03-2.783.132-1.19.78-1.98 1.916-2.376.079-.027.19-.113.194-.177.02-.328.01-.658.01-.98-3.086-.55-3.086-.55-5.82-2.395l-.795.791c.855 1.445.254 2.877-.648 3.552a2.677 2.677 0 0 1-3.507-.237 2.677 2.677 0 0 1-.29-3.426c.653-.923 2.107-1.6 3.623-.715l.816-.793a9.758 9.758 0 0 1-1.698-2.705 9.96 9.96 0 0 1-.718-3.11c-.28 0-.531.016-.78-.003-.253-.02-.37.056-.454.32-.353 1.091-1.405 1.824-2.54 1.81a2.692 2.692 0 0 1-2.515-1.857L0 16.405v-.874l.126-.378a2.69 2.69 0 0 1 2.514-1.857 2.647 2.647 0 0 1 2.54 1.81c.086.263.202.34.456.32.248-.019.498-.004.78-.004.156-2.213.957-4.153 2.419-5.82l-.833-.783c-.688.41-1.465.541-2.282.265a2.606 2.606 0 0 1-1.414-1.118 2.661 2.661 0 0 1 .447-3.359 2.669 2.669 0 0 1 3.44-.167c.838.628 1.527 2.025.627 3.583l.81.78c1.64-1.423 3.566-2.237 5.82-2.396 0-.341.01-.69-.01-1.036-.004-.058-.138-.127-.223-.158-1.03-.365-1.669-1.066-1.85-2.15a2.65 2.65 0 0 1 2.03-2.998c1.392-.305 2.766.49 3.16 1.831zM16.05 27.69c-.91-.014-1.62.662-1.634 1.558a1.584 1.584 0 1 0 3.168.038 1.573 1.573 0 0 0-1.534-1.596zm9.376-3.887c-.886.005-1.576.7-1.575 1.584.001.89.688 1.567 1.587 1.564a1.554 1.554 0 0 0 1.574-1.58 1.554 1.554 0 0 0-1.586-1.568zm-18.853-.015a1.58 1.58 0 0 0-1.585 1.586 1.553 1.553 0 0 0 1.58 1.577c.892 0 1.597-.696 1.593-1.574a1.593 1.593 0 0 0-1.588-1.589zm9.432-16.324c-4.728 0-8.533 3.797-8.526 8.511.007 4.706 3.821 8.513 8.511 8.496 4.743-.017 8.52-3.788 8.528-8.513.008-4.69-3.804-8.494-8.513-8.494zm-.015 1.04c4.142.02 7.482 3.357 7.487 7.481.004 4.072-3.362 7.434-7.456 7.448-4.116.014-7.5-3.355-7.5-7.466 0-4.096 3.389-7.483 7.47-7.463zm.126 1.09c-3.62-.024-6.48 2.769-6.502 6.352-.02 3.523 2.813 6.373 6.362 6.395 3.5.023 6.38-2.803 6.408-6.288.029-3.537-2.783-6.434-6.268-6.458zm-.132 1.582c.254-.006.434.122.52.368.013.04.038.083.03.12-.1.505.184.709.598.93.646.344.954.957.993 1.56.006.504-.188.739-.507.75-.317.01-.517-.198-.555-.578-.058-.575-.455-.974-1.004-1.006-.526-.032-.964.299-1.095.826a1.035 1.035 0 0 0 .951 1.268c.627.034 1.182.213 1.626.676 1.028 1.07.668 2.855-.706 3.42-.239.098-.316.212-.293.45.012.132-.002.271-.034.4-.064.268-.257.405-.524.4-.252-.006-.427-.145-.498-.396-.009-.03-.028-.063-.023-.09.1-.505-.183-.708-.595-.931-.653-.353-.98-.969-.996-1.723-.008-.349.195-.576.505-.588.309-.012.522.195.558.543.055.54.361.92.817 1.015.48.102.947-.103 1.172-.512.383-.694-.07-1.503-.876-1.56-1.113-.08-1.869-.658-2.115-1.617-.262-1.019.256-2.087 1.232-2.476.241-.096.311-.216.292-.452a1.268 1.268 0 0 1 .042-.43c.064-.237.246-.362.485-.367zm-13.33 3.212a1.584 1.584 0 0 0-1.586 1.584c.003.872.708 1.57 1.594 1.578.879.008 1.59-.693 1.592-1.57a1.57 1.57 0 0 0-1.6-1.592zm26.72 0c-.887-.019-1.615.664-1.63 1.53-.015.906.66 1.612 1.564 1.632a1.588 1.588 0 0 0 1.623-1.548 1.587 1.587 0 0 0-1.556-1.613zM6.57 4.979c-.89 0-1.58.69-1.582 1.578 0 .895.68 1.569 1.585 1.568.901-.001 1.594-.686 1.588-1.57A1.575 1.575 0 0 0 6.57 4.977zm18.87-.002a1.582 1.582 0 0 0-1.606 1.59c.008.886.699 1.559 1.6 1.558.9-.002 1.58-.675 1.58-1.568a1.56 1.56 0 0 0-1.575-1.58zm-9.43-3.91a1.587 1.587 0 0 0-1.595 1.608c0 .864.696 1.566 1.558 1.572a1.57 1.57 0 0 0 1.61-1.582 1.583 1.583 0 0 0-1.573-1.597z" fill="#FFF" opacity=".65"/>
    </g>
</svg>
