<svg width="9" height="12" viewBox="0 0 9 12" xmlns="http://www.w3.org/2000/svg">
    <path d="M8.727 4.56c-.074.22-.224.292-.44.288-.614-.009-1.227-.003-1.84-.003h-.17v.174c0 1.7 0 3.399-.002 5.099 0 .118-.012.237-.03.354-.019.126-.097.187-.22.187-1.104 0-2.208.003-3.312-.002-.28-.001-.476-.23-.476-.53V4.844h-.432c-.454 0-.909-.007-1.363.003-.217.005-.367-.07-.442-.289v-.086c.069-.103.124-.222.208-.309 1.293-1.336 2.59-2.668 3.885-4 .211-.218.329-.219.541 0 1.296 1.332 2.593 2.664 3.885 4 .085.087.14.206.208.31v.085zm-4.364 6.764c.545 0 1.09-.003 1.635.002.078 0 .164.019.233.057.126.069.17.196.143.34-.025.137-.105.232-.24.257a1.102 1.102 0 0 1-.203.02H2.797a1.01 1.01 0 0 1-.175-.015.319.319 0 0 1-.275-.347.326.326 0 0 1 .3-.312c.04-.004.082-.002.122-.002h1.594" fill="#428f65" fill-rule="evenodd"/>
</svg>
