<svg width="32" height="32" viewBox="0 0 32 32" xmlns="http://www.w3.org/2000/svg" xmlns:xlink="http://www.w3.org/1999/xlink">
    <defs>
        <path id="59fp3xwjba" d="M0 0h31v22H0z"/>
    </defs>
    <g fill="none" fill-rule="evenodd">
        <path d="M0 0h32v32H0z"/>
        <g opacity=".7">
            <g transform="translate(1 5)">
                <mask id="lzrtprzggb" fill="#fff">
                    <use xlink:href="#59fp3xwjba"/>
                </mask>
                <path d="m14.8 12.466-.112 2.204 1.175.055v-2.212l-1.063-.047zm1.133 3.53c-.49-.03-.932-.045-1.371-.086-.2-.018-.289.044-.385.23-.285.549-.608 1.077-.917 1.613-.037.065-.076.13-.146.248l2.819.242v-2.247zM13.532 8.9c.31.713.616 1.43.937 2.14a.336.336 0 0 0 .241.16c.473.03.947.044 1.42.046.088 0 .182-.063.263-.113.35-.219.677-.487 1.047-.658 1.216-.562 2.52-.767 3.838-.894.449-.043.9-.067 1.361-.1V7.898c-2.965 1.263-6.048 1.273-9.107 1.003zm9.132-4.442c-4.245 1.478-8.45 1.485-12.645.086 0 .434.006.924-.003 1.413-.003.18.072.256.228.338.516.273 1.016.58 1.525.866.147.083.3.171.461.206 2.702.588 5.407.576 8.1-.027.65-.146 1.266-.452 1.889-.707.283-.115.436-.365.442-.676.011-.509.003-1.018.003-1.499zm7.11 9.488c-4.215 1.458-8.414 1.474-12.621.05 0 .508.01 1.057-.005 1.606-.005.224.074.384.259.477.35.176.696.382 1.068.494 2.918.877 5.869.862 8.833.282.723-.142 1.428-.36 2.064-.759.215-.134.394-.302.399-.575.01-.538.002-1.077.002-1.575zm-12.57 3.55c0 .452.017.942-.005 1.431-.015.32.108.547.374.671.464.217.926.465 1.417.593 2.75.72 5.525.718 8.302.167.742-.147 1.467-.367 2.118-.782.249-.159.392-.353.364-.677-.028-.335-.006-.674-.006-1.011v-.478c-4.209 1.473-8.366 1.464-12.564.087zm6.073-3.708c1.536-.01 2.952-.115 4.34-.464.684-.173 1.365-.369 1.94-.812.255-.197.268-.323.003-.492-.33-.21-.68-.402-1.045-.536-1.332-.487-2.724-.64-4.127-.707-1.72-.082-3.43-.01-5.107.409a8.8 8.8 0 0 0-1.697.621c-.638.31-.626.555.001.908.306.172.635.314.968.422 1.572.512 3.198.633 4.724.651zM16.274 1.257c-1.459.013-2.871.096-4.242.476-.616.17-1.218.421-1.792.709-.42.21-.417.446-.008.674.456.253.937.49 1.436.624 2.924.78 5.868.756 8.808.094.572-.129 1.134-.365 1.662-.629.59-.295.58-.507.015-.832a5.13 5.13 0 0 0-.881-.399c-1.634-.563-3.332-.69-4.998-.717zM1.226 13.21c-.002 3.431 2.751 6.231 6.137 6.241 3.397.01 6.178-2.79 6.184-6.228.007-3.452-2.752-6.24-6.188-6.253-3.367-.014-6.132 2.8-6.133 6.24zM31 11.976v7.49c-.202.577-.582 1.017-1.118 1.264-.639.294-1.294.584-1.972.75-2.706.663-5.438.659-8.17.175-.965-.171-1.91-.435-2.759-.96-.393-.243-.75-.538-.905-.995-.071-.213-.186-.23-.372-.249a91.538 91.538 0 0 1-3.304-.365c-.266-.036-.446.006-.657.16-1.774 1.291-3.745 1.75-5.88 1.283C1.91 19.663-.544 15.956.104 11.9.703 8.161 4.217 5.396 7.95 5.73c.266.024.53.064.755.092 0-.94.038-1.861-.012-2.777-.037-.694.212-1.212.755-1.565.445-.289.929-.54 1.426-.72 1.321-.478 2.704-.652 4.098-.723 2.024-.104 4.034.003 6.005.525.793.21 1.57.47 2.219 1.006.472.39.713.894.712 1.52-.005 2.005-.002 4.01-.002 6.015v.342c.779.069 1.514.114 2.244.204 1.144.14 2.27.37 3.33.852.678.31 1.258.725 1.521 1.476z" fill="#FFF" mask="url(#lzrtprzggb)"/>
            </g>
            <path d="M7.85 21.931c-.382-.231-.743-.401-1.04-.64a2.086 2.086 0 0 1-.797-1.572c-.024-.445.209-.724.607-.743.41-.02.656.214.703.666.058.57.491.988 1.078 1.038a1.176 1.176 0 0 0 1.213-.776c.23-.684-.28-1.374-1.066-1.41-1.02-.048-1.81-.442-2.279-1.309-.659-1.218-.062-2.69 1.293-3.203.188-.071.294-.132.295-.354.001-.374.287-.623.647-.628.358-.005.649.24.662.613.008.218.093.306.3.39.91.37 1.405 1.038 1.516 1.958.053.445-.178.76-.582.8-.408.039-.69-.216-.739-.67-.063-.59-.502-1.005-1.103-1.043a1.177 1.177 0 0 0-1.202.832c-.181.627.286 1.273.978 1.353.267.03.54.04.8.103 1.06.257 1.77 1.081 1.86 2.127.079.938-.543 1.888-1.518 2.265-.244.094-.335.213-.3.446a.915.915 0 0 1-.011.272.637.637 0 0 1-.657.554.64.64 0 0 1-.655-.591c-.016-.18-.003-.363-.003-.478" fill="#FFF"/>
        </g>
    </g>
</svg>
