<svg width="32" height="32" viewBox="0 0 32 32" xmlns="http://www.w3.org/2000/svg" xmlns:xlink="http://www.w3.org/1999/xlink">
    <defs>
        <path id="drfrer4pya" d="M0 0h28v28H0z"/>
    </defs>
    <g fill="none" fill-rule="evenodd">
        <path d="M0 0h32v32H0z"/>
        <g opacity=".65">
            <g transform="translate(2 2)">
                <mask id="c6me5eu6ub" fill="#fff">
                    <use xlink:href="#drfrer4pya"/>
                </mask>
                <path d="M0 13.127c.071-.494.129-.99.216-1.48a14.295 14.295 0 0 1 3.153-6.77C5.368 2.485 7.895.954 10.945.31a13.59 13.59 0 0 1 4.928-.154c3.152.489 5.905 1.797 8.18 4.052 1.915 1.897 3.111 4.194 3.59 6.847.172.954.239 1.928.357 2.924h-1.695c-.122-4.025-1.711-7.338-4.908-9.812-2.296-1.776-4.931-2.604-7.828-2.51C7.7 1.85 2.916 6.104 1.862 11.688.706 17.808 4.2 23.517 9.67 25.582c5.347 2.019 11.619-.067 14.651-4.906l-1.033-.605 3.524-2.045v4.082l-1.03-.587c-.412.538-.792 1.082-1.22 1.586-1.894 2.222-4.233 3.755-7.075 4.455-.806.199-1.644.265-2.468.393-.08.012-.16.03-.239.044h-1.745c-.078-.018-.155-.042-.234-.052-.476-.064-.958-.097-1.427-.191-2.852-.568-5.33-1.855-7.383-3.927-2.12-2.139-3.396-4.707-3.834-7.69C.1 15.737.052 15.333 0 14.93v-1.804z" fill="#FFF" mask="url(#c6me5eu6ub)"/>
            </g>
            <path d="m11.608 21.44-1.09-1.094 9.757-9.783 1.082 1.103-9.749 9.774M12.692 13.539a.839.839 0 0 0 .814-.82.839.839 0 0 0-.817-.816.839.839 0 0 0-.814.82.839.839 0 0 0 .817.816m.007 1.64a2.465 2.465 0 0 1-2.461-2.464 2.465 2.465 0 0 1 2.445-2.453 2.465 2.465 0 0 1 2.46 2.464A2.465 2.465 0 0 1 12.7 15.18M18.42 19.26c-.016.43.356.824.794.84.429.016.822-.357.838-.795.015-.43-.357-.824-.794-.84-.43-.016-.822.357-.838.795m3.269.011a2.465 2.465 0 0 1-2.456 2.47 2.465 2.465 0 0 1-2.45-2.447 2.465 2.465 0 0 1 2.455-2.47 2.465 2.465 0 0 1 2.45 2.447" fill="#FFF"/>
        </g>
    </g>
</svg>
