<svg width="32" height="32" viewBox="0 0 32 32" xmlns="http://www.w3.org/2000/svg">
    <g fill="none" fill-rule="evenodd">
        <path d="M0 0h32v32H0z"/>
        <g opacity=".65" fill="#FFF">
            <path d="M2 15.147c.053-.419.098-.838.159-1.256.486-3.325 1.981-6.112 4.459-8.361 1.918-1.74 4.16-2.874 6.707-3.302 4.704-.792 8.799.484 12.251 3.798.388.372.405.889.065 1.226-.34.336-.822.318-1.2-.058-1.726-1.713-3.763-2.86-6.148-3.325-3.883-.756-7.373.135-10.394 2.696-2.354 1.995-3.76 4.567-4.155 7.634-.5 3.903.634 7.304 3.319 10.182.146.156.276.365.322.57.081.367-.117.694-.435.848-.326.157-.684.092-.962-.191a13.62 13.62 0 0 1-1.97-2.535c-1.162-1.934-1.828-4.024-1.968-6.281-.005-.08-.033-.157-.05-.236v-1.409zM15.333 30c-.57-.09-1.148-.147-1.708-.28a55.796 55.796 0 0 1-2.793-.754c-.484-.143-.702-.605-.548-1.046.154-.438.607-.651 1.083-.489 1.131.384 2.283.676 3.467.842a10.65 10.65 0 0 0 4.77-.418c4.584-1.469 7.446-4.568 8.492-9.254.677-3.037.153-5.929-1.399-8.63-.182-.316-.277-.63-.089-.969.314-.564 1.094-.549 1.44.03.64 1.064 1.149 2.19 1.445 3.395.201.82.307 1.662.456 2.494.011.06.034.119.051.178v2.059c-.018.087-.041.174-.054.262-.066.454-.107.913-.197 1.363-.524 2.628-1.703 4.928-3.548 6.875-2.09 2.206-4.644 3.573-7.636 4.121-.495.09-.996.148-1.494.221h-1.738z"/>
            <path d="M25.021 15.771c-.15-5.057-4.345-8.938-9.279-8.788-5.053.153-8.914 4.365-8.761 9.304.158 5.126 4.595 9.178 9.858 8.696 4.588-.42 8.288-4.344 8.182-9.212M15.97 26.706C10.083 26.698 5.283 21.884 5.294 16c.011-5.922 4.823-10.72 10.735-10.706 5.899.015 10.69 4.833 10.677 10.735-.014 5.897-4.828 10.685-10.737 10.677"/>
            <path d="M17.199 20.85c0 .314.003.608 0 .902-.008.487-.346.841-.791.836-.432-.005-.76-.36-.767-.833-.004-.221-.012-.443.002-.664.012-.176-.05-.247-.206-.314-1.161-.497-1.806-1.409-1.89-2.747-.034-.545.285-.946.75-.966.44-.018.789.362.816.887.037.728.514 1.266 1.187 1.338.646.07 1.225-.37 1.393-1.06a1.387 1.387 0 0 0-1.316-1.73c-1.147-.044-2.005-.607-2.528-1.687-.787-1.624-.063-3.576 1.555-4.235.186-.075.258-.162.24-.373-.019-.238-.005-.48-.004-.72.003-.535.322-.899.786-.896.46.003.77.368.773.91 0 .249.009.499-.003.747-.008.172.041.248.202.316 1.164.495 1.808 1.407 1.893 2.745.035.547-.279.947-.744.972-.436.023-.794-.36-.82-.88-.04-.742-.525-1.283-1.208-1.348-.642-.06-1.224.396-1.38 1.082a1.39 1.39 0 0 0 1.317 1.71c1.316.055 2.42.993 2.718 2.311.353 1.56-.404 3.07-1.828 3.643-.04.016-.08.03-.147.054"/>
        </g>
    </g>
</svg>
