<svg width="32" height="32" viewBox="0 0 32 32" xmlns="http://www.w3.org/2000/svg" xmlns:xlink="http://www.w3.org/1999/xlink">
    <defs>
        <path id="ewzbuifn3a" d="M0 0h28.023v28H0z"/>
    </defs>
    <g fill="none" fill-rule="evenodd">
        <path d="M0 0h32v32H0z"/>
        <g transform="translate(2 2)">
            <mask id="yj40qncwhb" fill="#fff">
                <use xlink:href="#ewzbuifn3a"/>
            </mask>
            <path d="m3.788 16.246 1.524.001c.5 0 .77.266.776.767.003.174.003.349.003.523v.111l1.699-.576.586-.2c.538-.183 1.093-.374 1.645-.55.197-.063.423-.07.604-.016 1.736.508 3.176.938 4.534 1.355 1.242.381 2.06 1.217 2.432 2.485l.357-.103c.421-.123.84-.244 1.258-.367l1.498-.438c1.195-.348 2.43-.707 3.639-1.08.855-.262 1.709-.165 2.404.274a2.7 2.7 0 0 1 1.223 1.805.426.426 0 0 1 .016.023l.037.057v.851l-.011.035-.052.166c-.04.126-.08.256-.13.384-.28.705-.786 1.224-1.505 1.544-1.802.801-3.603 1.604-5.404 2.407l-1.665.742-.796.354c-.794.353-1.616.719-2.421 1.084a1.211 1.211 0 0 1-.508.116c-.11 0-.222-.016-.339-.048-2.47-.683-4.983-1.373-7.413-2.04l-1.69-.463c.001.108.001.213-.001.319-.009.49-.277.76-.754.76l-1.473.002H2.345L.768 26.53C.274 26.528 0 26.25 0 25.747v-8.728c0-.504.268-.771.775-.772 1.484-.002 3.01-.002 4.536 0zm6.716 1.456a.503.503 0 0 0-.274.003c-.692.23-1.394.469-2.073.699-.654.222-1.331.452-1.999.674a.217.217 0 0 0-.069.032c.001 0-.005.018-.005.07.008.576.007 1.16.006 1.726l-.001.63v1.901c0 .289 0 .497.045.558.046.061.264.121.516.19 1.194.328 2.39.654 3.584.98 1.651.45 3.359.917 5.037 1.379a.634.634 0 0 0 .474-.04c1.456-.655 2.94-1.314 4.373-1.952a3207.103 3207.103 0 0 0 5.7-2.542c.514-.232.79-.633.82-1.193a1.314 1.314 0 0 0-.49-1.119c-.365-.29-.854-.374-1.342-.232-2.392.697-4.81 1.41-7.283 2.141a.591.591 0 0 0-.211.112c-1.287 1.109-2.876 1.464-4.859 1.087a.708.708 0 0 1-.465-.295.685.685 0 0 1-.093-.526c.076-.359.397-.57.797-.524.105.012.21.027.312.041.164.023.319.045.475.056 1.085.077 1.976-.153 2.724-.703.092-.068.104-.095.081-.198-.19-.867-.683-1.412-1.504-1.665a401.983 401.983 0 0 0-4.276-1.29zm-5.81-.064H1.4v7.5h3.294v-7.5zm-2.136.438c.33-.017.664-.016.995.003.364.021.612.289.616.666a.645.645 0 0 1-.594.68 2.415 2.415 0 0 1-.384.008l-.128.003c-.048 0-.097 0-.145.002l-.156.002c-.067 0-.135-.002-.205-.008a.685.685 0 0 1-.641-.674.668.668 0 0 1 .642-.682zM14.668 0l.024.005c.189.041.383.078.571.114.418.08.85.162 1.264.297 3.477 1.136 5.794 4.557 5.51 8.133-.148 1.87-.872 3.569-2.094 4.913a7.937 7.937 0 0 1-4.652 2.51 7.932 7.932 0 0 1-6.165-1.553 7.975 7.975 0 0 1-3.109-5.58C5.574 4.459 8.767.516 13.134.052a.833.833 0 0 0 .117-.025l.077-.02.026-.006h1.314zm-.64 1.38h-.014c-3.664 0-6.652 2.973-6.663 6.635A6.62 6.62 0 0 0 9.3 12.74a6.61 6.61 0 0 0 4.71 1.96c3.67 0 6.658-2.982 6.663-6.65.005-3.67-2.976-6.662-6.644-6.67zm.004 2.304c.55-.022.634.474.672.96l.047.021c.13.06.264.121.392.204.574.37.897.906.96 1.592.043.466-.191.797-.598.842-.412.046-.699-.207-.767-.675-.041-.278-.17-.5-.364-.624a.662.662 0 0 0-.557-.072.724.724 0 0 0-.523.758c.041.383.326.642.727.66.87.037 1.502.436 1.875 1.186.25.504.285 1.073.099 1.605a2.075 2.075 0 0 1-1.093 1.204c-.066.031-.134.059-.2.085v.142c-.002.29-.041.752-.65.823a.838.838 0 0 1-.098.006.505.505 0 0 1-.328-.106c-.18-.144-.251-.41-.307-.864-.689-.267-1.135-.744-1.327-1.42a2.174 2.174 0 0 1-.077-.474c-.023-.418.234-.732.624-.763.392-.032.676.21.742.633.076.493.31.749.698.761a.716.716 0 0 0 .754-.688c.02-.376-.281-.713-.672-.751l-.104-.01a2.877 2.877 0 0 1-.56-.088c-.841-.248-1.423-.996-1.483-1.906-.056-.847.447-1.655 1.25-2.01.052-.024.103-.044.156-.065l.001-.099c.003-.293.009-.84.711-.867z" fill="#FFF" mask="url(#yj40qncwhb)"/>
        </g>
    </g>
</svg>
