<svg width="32" height="32" viewBox="0 0 32 32" xmlns="http://www.w3.org/2000/svg">
    <g fill="none" fill-rule="evenodd">
        <path d="M0 0h32v32H0z"/>
        <path d="M28.136 8.341c1.005 0 1.595.389 1.859 1.222l.005.016v12.565l-.005.016c-.208.654-.577 1.036-1.129 1.17a2.055 2.055 0 0 1-.48.049l-8.978.001H3.62c-1.014 0-1.62-.611-1.62-1.634V10.003c0-1.035.622-1.652 1.663-1.652H18.925l6.142-.005 3.062-.005zM3.144 19.286v.634c-.002.641-.003 1.304.004 1.956.003.213.132.353.33.355.66.008 1.334.006 1.985.005l.64-.001c-.265-1.54-1.531-2.802-2.959-2.949zm25.712-.007c-1.685.27-2.798 1.675-2.95 2.956l.633.001c.65.001 1.322.003 1.982-.005.199-.002.329-.141.331-.355.007-.65.006-1.316.005-1.96zm-4.329-9.793c-2.708.004-5.442.005-8.153.006h-8.91c-.062 0-.126.005-.187.008h-.004l-.005.024a4.772 4.772 0 0 1-1.32 2.722 4.723 4.723 0 0 1-2.698 1.357c-.108.016-.11.027-.11.162.003.785.003 1.583.002 2.355v1.971c1.16.227 2.096.688 2.782 1.372.687.684 1.146 1.611 1.366 2.758h17.42c.224-1.15.684-2.08 1.37-2.763.684-.684 1.613-1.142 2.762-1.363v-4.472a.579.579 0 0 0-.05-.01 4.737 4.737 0 0 1-4.03-3.91c-.032-.192-.059-.217-.235-.217zm-8.51 1.188a5.186 5.186 0 0 1 3.673 1.538 5.132 5.132 0 0 1 1.514 3.668c-.013 2.862-2.343 5.186-5.196 5.186h-.012c-2.863-.007-5.196-2.337-5.2-5.194a5.149 5.149 0 0 1 1.528-3.676 5.165 5.165 0 0 1 3.67-1.522zm-.011 1.142a4.036 4.036 0 0 0-2.864 1.177 4.05 4.05 0 0 0-1.203 2.857 3.988 3.988 0 0 0 1.165 2.856 4.053 4.053 0 0 0 2.89 1.215h.013c2.218 0 4.035-1.807 4.055-4.035a3.992 3.992 0 0 0-1.171-2.86 4.042 4.042 0 0 0-2.885-1.21zm.56 1.642v1.825h1.843v1.15H16.58v1.84h-1.147v-1.828h-1.839v-1.148h1.836v-1.839h1.135zM5.089 9.495h-.377c-.408 0-.818.001-1.224.007-.206.004-.336.138-.339.35-.008.65-.006 1.316-.005 1.96v.641c1.47-.193 2.809-1.532 2.957-2.956l-.639-.001-.75-.002zm22.1-.002-.65.002h-.64c.22 1.508 1.485 2.772 2.955 2.955l.001-.634c.002-.649.003-1.32-.006-1.978-.003-.205-.137-.334-.35-.337-.65-.01-1.316-.008-1.96-.006zM13.274 4.782l-.49-.38h1.076c1.884-.002 3.832-.003 5.748 0 .32.001.448.132.454.466.004.184.003.37.002.551v.353h1.142v-.78c0-1.136-.605-1.737-1.747-1.737h-6.615l-.102-.003.5-.442-.72-.81h-.146l-1.83 1.728 1.894 1.881.834-.827zm5.45 22.127.493.425h-6.825c-.32-.001-.447-.132-.454-.466-.003-.182-.003-.369-.002-.55l.001-.251v-.11h-1.143V26.782c.002 1.093.606 1.695 1.701 1.695H19.337l-.597.436.801.827 1.831-1.848-1.805-1.797-.843.815zm1.36-19.278h1.106V6.519h-1.107v1.112zm-9.268 17.587h1.104V24.1h-1.104v1.117z" opacity=".7" fill="#FFF"/>
    </g>
</svg>
