<svg width="32" height="32" viewBox="0 0 32 32" xmlns="http://www.w3.org/2000/svg">
    <g fill="none" fill-rule="evenodd">
        <path d="M0 0h32v32H0z"/>
        <path d="M4.978 10.081c1.038.339 1.581 1.116 1.718 2.139.136 1.012.157 2.04.205 3.063.037.798.104 1.589.312 2.363.05.19.113.247.335.203.72-.142 1.423.018 2.112.223 1.388.415 2.655 1.06 3.733 2.04.682.62 1.201 1.346 1.353 2.284.017.104.028.21.028.316.002 2.043.002 4.087.002 6.13 0 .048-.004.095-.007.158H8.885c-.02-.42-.032-.832-.06-1.244a2.602 2.602 0 0 0-.959-1.88c-.417-.35-.85-.682-1.282-1.015-1.748-1.351-2.753-3.146-3.189-5.29a19.401 19.401 0 0 1-.384-3.681c-.019-1.922-.007-3.843-.008-5.764V9.92c.68-.014 1.336-.049 1.975.16zm23.04-.169v6.498l-.1 1.137c-.127 1.373-.37 2.72-.898 4.003-.618 1.5-1.668 2.643-2.948 3.6l-.717.55c-.807.605-1.183 1.424-1.197 2.421-.004.285 0 .57 0 .875h-5.914v-.279c0-1.832.038-3.665-.013-5.496-.035-1.27.46-2.262 1.363-3.079 1.36-1.23 2.967-1.98 4.77-2.292.376-.065.776-.019 1.162.012.155.013.212-.001.258-.153.217-.723.292-1.465.326-2.214.039-.87.05-1.741.106-2.61.024-.377.098-.76.211-1.121.358-1.141 1.286-1.804 2.54-1.846.35-.012.701-.004 1.051-.006zM4.495 11.488c0 1.563-.037 3.11.014 4.655.032.98.151 1.963.308 2.932.2 1.24.63 2.403 1.413 3.41.542.697 1.243 1.215 1.94 1.738.648.487 1.284.998 1.637 1.747.232.492.374 1.027.567 1.572h2.93c.004-.067.008-.108.008-.148l-.001-4.52c0-.088-.01-.178-.027-.266-.125-.653-.54-1.12-1.023-1.53-.945-.804-2.034-1.335-3.23-1.646-.286-.075-.58-.116-.87-.173l-.025.07c.62.832 1.51 1.285 2.46 1.686l-.525 1.366c-1.382-.532-2.57-1.29-3.413-2.518-.845-1.23-1.134-2.626-1.208-4.083-.045-.894-.049-1.79-.11-2.684-.026-.366-.127-.735-.243-1.086a.791.791 0 0 0-.602-.522zm22.058-.01c-.494.138-.701.503-.772.933a15.497 15.497 0 0 0-.155 1.551c-.058.917-.053 1.84-.153 2.752-.285 2.601-1.641 4.431-4.05 5.47-.153.067-.308.129-.475.198l-.522-1.368c.956-.403 1.841-.857 2.44-1.733-.432.059-.856.132-1.263.26-1.17.369-2.236.928-3.122 1.793-.523.51-.803 1.108-.783 1.87.035 1.36.01 2.72.01 4.08v.254h3.006c.27-1.383.61-2.027 1.519-2.816.325-.282.667-.547 1.019-.797 1.29-.917 2.195-2.11 2.659-3.632.362-1.19.55-2.412.586-3.65.049-1.643.04-3.289.056-4.933v-.232zM12.334 4c.1.026.2.056.3.079 1.081.239 1.93.854 2.672 1.644.064.07.111.156.173.244l.233-.245c.613-.652 1.303-1.196 2.159-1.496.265-.093.543-.152.815-.226h.928c.171.044.344.082.513.132 1.502.443 2.46 1.476 3.05 2.875.845 2.007.467 3.825-.89 5.485-.881 1.077-1.896 2.015-2.943 2.922-1.236 1.071-2.483 2.131-3.725 3.195-.03.026-.064.048-.112.085-.377-.324-.755-.644-1.126-.97-1.457-1.276-2.928-2.538-4.362-3.84a10.693 10.693 0 0 1-2.013-2.47c-1.499-2.521-.031-6.181 2.422-7.13.315-.122.651-.19.978-.284h.928zm-1.963 1.992c-1.193.856-2.155 3.188-.943 4.913.433.616.894 1.235 1.444 1.743 1.476 1.364 3.007 2.668 4.513 4 .124.11.193.048.286-.032.618-.53 1.24-1.054 1.858-1.584 1.137-.976 2.289-1.936 3.278-3.07.538-.615 1.053-1.26 1.243-2.072.288-1.233-.064-2.344-.825-3.313-.971-1.238-2.342-1.44-3.601-.582-.573.391-1.026.901-1.426 1.46-.225.317-.443.639-.689.992l-.566-.82c-.5-.722-1.064-1.382-1.847-1.814-.943-.52-1.854-.446-2.725.18zm5.86 3.93v1.443h1.46v1.468h-1.435v1.458h-1.468v-1.435H13.33V11.39h1.435V9.923h1.468z" opacity=".65" fill="#FFF"/>
    </g>
</svg>
