<svg width="16" height="16" viewBox="0 0 16 16" xmlns="http://www.w3.org/2000/svg">
    <path d="M15.622 9.074a.562.562 0 0 0-.47.102 5.999 5.999 0 0 1-1.82 1.063 5.699 5.699 0 0 1-2.065.368A6.013 6.013 0 0 1 7.013 8.85a6.013 6.013 0 0 1-1.758-4.253c0-.695.123-1.37.327-1.984A5.49 5.49 0 0 1 6.564.854a.522.522 0 0 0-.082-.736.562.562 0 0 0-.47-.102 8.251 8.251 0 0 0-4.335 2.903A8.098 8.098 0 0 0 0 7.847c0 2.229.9 4.253 2.372 5.725a8.067 8.067 0 0 0 5.725 2.372c1.881 0 3.62-.654 5.01-1.738a8.062 8.062 0 0 0 2.862-4.478c.103-.307-.06-.593-.347-.654zm-3.129 4.273a7.017 7.017 0 0 1-9.324-.552 7.017 7.017 0 0 1-2.065-4.968c0-1.616.532-3.088 1.452-4.274A7.03 7.03 0 0 1 4.907 1.59c-.102.225-.204.45-.286.695a6.804 6.804 0 0 0-.388 2.331c0 1.943.797 3.722 2.065 4.99a7.065 7.065 0 0 0 4.989 2.065c.859 0 1.677-.143 2.433-.43.266-.102.532-.204.777-.327a7.44 7.44 0 0 1-2.004 2.433z" fill="#606060" fill-rule="evenodd"/>
</svg>
