<svg width="32" height="32" viewBox="0 0 32 32" xmlns="http://www.w3.org/2000/svg">
    <g fill="none" fill-rule="evenodd">
        <path d="M0 0h32v32H0z"/>
        <path d="M16.335 14.423c1.939.068 3.642.773 5.104 2.049.073.063.144.127.223.198.7-.457 1.446-.77 2.259-.94 3.275-.69 6.578 1.632 7.023 4.945.007.055.037.107.056.16v2.513c-.277.743-.828 1-1.6.987-1.629-.027-3.258-.008-4.888-.008h-.344c-.02.261-.009.488-.057.702-.175.763-.815 1.232-1.662 1.232H9.716c-1.14 0-1.67-.433-1.898-1.573h-.312c-1.649 0-3.298-.019-4.947.008-.768.012-1.297-.263-1.559-.997v-2.513c.054-.234.104-.469.162-.702a5.9 5.9 0 0 1 5.008-4.446 5.844 5.844 0 0 1 3.717.728c.177.1.272.093.42-.048 1.685-1.608 3.705-2.377 6.028-2.295zm-2.445 1.282c-2.876.806-4.965 3.516-5.05 6.493-.022.778-.01 1.557-.01 2.335 0 .55.203.746.766.746H22.45c.502 0 .717-.208.72-.704.005-.71.005-1.42 0-2.13-.016-2-.741-3.714-2.203-5.069-2.027-1.88-4.42-2.415-7.076-1.671zm-7.16 1.263c-2.165.052-4.175 1.638-4.602 3.757-.165.818-.113 1.681-.145 2.524-.015.412.042.455.45.456l5.124-.001c.093 0 .186-.01.325-.018-.19-2.209.224-4.243 1.587-6.034-.867-.507-1.77-.707-2.739-.684zm17.685-.333a4.722 4.722 0 0 0-2.074.773c1.403 1.735 1.947 3.722 1.79 5.942H29.55c.412 0 .47-.059.47-.477 0-.525.024-1.052-.014-1.575a5.656 5.656 0 0 0-.22-1.285c-.715-2.269-2.988-3.693-5.371-3.378zM6.93 8.277c1.92-.002 3.503 1.567 3.494 3.463-.01 1.882-1.59 3.428-3.503 3.424-1.915-.003-3.467-1.548-3.465-3.448.001-1.897 1.558-3.438 3.474-3.44zm18.192-.235c1.887.01 3.428 1.57 3.42 3.461-.008 1.893-1.574 3.431-3.49 3.426-1.902-.006-3.48-1.572-3.478-3.452.003-1.907 1.592-3.445 3.548-3.435zM7.029 9.26c-1.446-.023-2.574 1.034-2.594 2.432a2.47 2.47 0 0 0 2.42 2.489c1.413.021 2.56-1.039 2.584-2.388.024-1.37-1.06-2.51-2.41-2.533zm18.031-.237c-1.378.001-2.495 1.092-2.5 2.443-.006 1.366 1.111 2.476 2.496 2.48 1.394.003 2.508-1.09 2.509-2.46 0-1.376-1.108-2.465-2.505-2.463zM16.234 5c.34.08.685.138 1.016.245 1.886.608 3.184 2.524 3.062 4.398-.137 2.096-1.68 3.845-3.803 4.166a4.477 4.477 0 0 1-5.122-3.803c-.337-2.352 1.444-4.664 3.808-4.947.074-.009.146-.039.22-.059h.82zm-3.896 4.335c-.09 1.84 1.433 3.456 3.342 3.551 1.912.096 3.566-1.413 3.655-3.334.083-1.815-1.437-3.466-3.277-3.56-1.995-.1-3.625 1.364-3.72 3.343z" fill="#FFF" fill-opacity=".7"/>
    </g>
</svg>
