<svg xmlns="http://www.w3.org/2000/svg" width="96" height="96"><circle cx="48" cy="48" r="48" fill="#fff"/><path d="M66.457 43.71a4.009 4.009 0 1 1 5.67-5.668 4.009 4.009 0 0 1-5.67 5.669ZM52.993 57.176a3.006 3.006 0 1 1 4.252-4.252 3.006 3.006 0 0 1-4.252 4.252Zm21.26-7.087a3.006 3.006 0 1 1 4.251-4.251 3.006 3.006 0 0 1-4.252 4.251Zm-7.087 7.087a3.006 3.006 0 1 1 4.252-4.252 3.006 3.006 0 0 1-4.252 4.252Zm14.881-.709a2.004 2.004 0 1 1 2.835-2.834 2.004 2.004 0 0 1-2.835 2.834Zm-7.086 7.086a2.004 2.004 0 1 1 2.835-2.834 2.004 2.004 0 0 1-2.835 2.834ZM59.37 50.797a4.009 4.009 0 1 1 5.67-5.67 4.009 4.009 0 0 1-5.67 5.67Zm0-14.173a4.009 4.009 0 1 1 5.67-5.669 4.009 4.009 0 0 1-5.67 5.67Zm-7.086 7.087a4.009 4.009 0 1 1 5.67-5.67 4.009 4.009 0 0 1-5.67 5.67Zm-14.239 0a4.009 4.009 0 1 1 5.67-5.67 4.009 4.009 0 0 1-5.67 5.67ZM24.582 57.175a3.006 3.006 0 1 1 4.252-4.252 3.006 3.006 0 0 1-4.252 4.252Zm21.26-7.087a3.006 3.006 0 1 1 4.251-4.251 3.006 3.006 0 0 1-4.252 4.251Zm-7.087 7.087a3.006 3.006 0 1 1 4.252-4.252 3.006 3.006 0 0 1-4.252 4.252Zm-27.637-.709a2.004 2.004 0 1 1 2.835-2.834 2.004 2.004 0 0 1-2.835 2.834Zm7.087 7.086a2.004 2.004 0 1 1 2.834-2.834 2.004 2.004 0 0 1-2.834 2.834Zm28.345 0a2.004 2.004 0 1 1 2.834-2.834 2.004 2.004 0 0 1-2.834 2.834ZM17.496 50.088a3.006 3.006 0 1 1 4.252-4.251 3.006 3.006 0 0 1-4.252 4.251Zm13.464.709a4.009 4.009 0 1 1 5.67-5.67 4.009 4.009 0 0 1-5.67 5.67Zm0-14.173a4.009 4.009 0 1 1 5.67-5.669 4.009 4.009 0 0 1-5.67 5.67Zm-7.086 7.087a4.009 4.009 0 1 1 5.67-5.67 4.009 4.009 0 0 1-5.67 5.67Z" fill="#1D222A"/></svg>