<?xml version="1.0" encoding="UTF-8"?>
<svg width="256px" height="256px" viewBox="0 0 256 256" version="1.1" xmlns="http://www.w3.org/2000/svg" xmlns:xlink="http://www.w3.org/1999/xlink">
    <title>chDAI</title>
    <defs>
        <polygon id="path-1" points="0 0 217.395712 0 217.395712 256 0 256"></polygon>
        <polygon id="path-3" points="0 0 41.8689046 0 41.8689046 164.461214 0 164.461214"></polygon>
    </defs>
    <g id="Page-1" stroke="none" stroke-width="1" fill="none" fill-rule="evenodd">
        <g id="chDAI">
            <g id="Group-7">
                <g id="Group-3">
                    <mask id="mask-2" fill="white">
                        <use xlink:href="#path-1"></use>
                    </mask>
                    <g id="Clip-2"></g>
                    <path d="M206.782131,209.069377 C162.614696,252.009708 91.7589768,251.638182 48.062506,207.940726 C3.9841976,163.861424 3.9841976,92.1400294 48.062506,48.0607277 C90.7438707,5.37840098 159.343277,4.02645934 203.667387,44.0039646 L214.290351,33.3807618 C164.100766,-12.4417097 85.9835673,-11.0907062 37.4479862,37.4459687 C-12.4826621,87.3777423 -12.4826621,168.623712 37.4479862,218.555485 C86.9977352,268.106351 167.375937,268.475062 217.395712,219.683198 L206.782131,209.069377 Z" id="Fill-1" fill="#BB643F" mask="url(#mask-2)"></path>
                </g>
                <g id="Group-6" transform="translate(214.128140, 44.128369)">
                    <mask id="mask-4" fill="white">
                        <use xlink:href="#path-3"></use>
                    </mask>
                    <g id="Clip-5"></g>
                    <path d="M0,10.6429049 C34.8898157,51.6195897 35.7932789,111.801164 2.71883314,153.777028 L13.4027779,164.461214 C52.257324,116.544687 51.3360355,46.8873249 10.6436032,0 L0,10.6429049 Z" id="Fill-4" fill="#DCAA93" mask="url(#mask-4)"></path>
                </g>
            </g>
            <g transform="translate(23.000000, 23.000000)" fill-rule="nonzero">
                <path d="M105,0 C162.99523,0 210,47.0142201 210,105 C210,162.99523 162.99523,210 105,210 C47.0142201,210 0,162.990505 0,105 C0,47.0142201 47.0142201,0 105,0 Z" id="Path" fill="#F5AC37"></path>
                <path d="M110.231195,112.637225 L151.23699,112.637225 C152.111107,112.637225 152.523885,112.637225 152.587015,111.49116 C152.922094,107.31968 152.922094,103.123919 152.587015,98.9475824 C152.587015,98.1365961 152.18395,97.801518 151.304977,97.801518 L69.6964506,97.801518 C68.68636,97.801518 68.4144125,98.1365961 68.4144125,99.0835561 L68.4144125,111.088095 C68.4144125,112.637225 68.4144125,112.637225 70.0315288,112.637225 L110.231195,112.637225 L110.231195,112.637225 Z M148.007614,83.7719415 C148.124163,83.4660005 148.124163,83.1309224 148.007614,82.8298377 C147.322889,81.3389827 146.511903,79.9161146 145.569799,78.5806582 C144.151787,76.2982418 142.481253,74.195505 140.57762,72.3064412 C139.679222,71.165233 138.639994,70.1405738 137.474505,69.2713131 C131.637347,64.3034152 124.69783,60.7875228 117.238698,59.0198641 C113.47514,58.1748844 109.629025,57.7718194 105.773198,57.8058128 L69.5556207,57.8058128 C68.54553,57.8058128 68.4095563,58.2088779 68.4095563,59.087851 L68.4095563,83.0289421 C68.4095563,84.0390327 68.4095563,84.3109802 69.6915944,84.3109802 L147.521993,84.3109802 C147.521993,84.3109802 148.197006,84.1750065 148.33298,83.7719415 L148.002758,83.7719415 L148.007614,83.7719415 Z M148.007614,126.666801 C146.86155,126.54054 145.705773,126.54054 144.559708,126.666801 L69.7644375,126.666801 C68.7543468,126.666801 68.4144125,126.666801 68.4144125,128.016826 L68.4144125,151.423735 C68.4144125,152.501812 68.4144125,152.77376 69.7644375,152.77376 L104.296912,152.77376 C105.948022,152.900021 107.599131,152.783472 109.216248,152.438681 C114.227851,152.079322 119.156899,150.991532 123.857706,149.199593 C125.56709,148.607136 127.2182,147.834999 128.777042,146.907464 L129.248094,146.907464 C137.343388,142.697134 143.918689,136.082983 148.065888,127.963408 C148.065888,127.963408 148.53694,126.943605 148.007614,126.676513 L148.007614,126.666801 Z M54.8607441,164.909416 L54.8607441,164.506351 L54.8607441,148.791671 L54.8607441,143.464414 L54.8607441,127.613761 C54.8607441,126.734788 54.8607441,126.60367 53.7826665,126.60367 L39.1460644,126.60367 C38.3350782,126.60367 38,126.60367 38,125.525593 L38,112.710068 L53.6466928,112.710068 C54.5208097,112.710068 54.8607441,112.710068 54.8607441,111.564003 L54.8607441,98.8844517 C54.8607441,98.0734655 54.8607441,97.874361 53.7826665,97.874361 L39.1460644,97.874361 C38.3350782,97.874361 38,97.874361 38,96.7962835 L38,84.9277183 C38,84.1847189 38,83.9856145 39.0780775,83.9856145 L53.5787059,83.9856145 C54.5887966,83.9856145 54.8607441,83.9856145 54.8607441,82.7035763 L54.8607441,46.350025 C54.8607441,45.2719475 54.8607441,45 56.2107691,45 L106.793001,45 C110.464292,45.1456862 114.111302,45.5487512 117.719463,46.2140513 C125.154313,47.5883573 132.29779,50.2447015 138.829386,54.0373977 C143.161121,56.5869053 147.148066,59.6657394 150.697952,63.2107691 C153.368864,65.9836622 155.777542,68.9847969 157.914272,72.1801799 C160.036434,75.4192687 161.799236,78.8817429 163.183255,82.4996157 C163.353222,83.4417195 164.256476,84.0778824 165.19858,83.9176276 L177.271106,83.9176276 C178.820235,83.9176276 178.820235,83.9176276 178.888222,85.4036264 L178.888222,96.4660616 C178.888222,97.5441391 178.485157,97.8160866 177.402223,97.8160866 L168.092878,97.8160866 C167.150774,97.8160866 166.878827,97.8160866 166.946814,99.0301379 C167.315885,103.138487 167.315885,107.261405 166.946814,111.369755 C166.946814,112.515819 166.946814,112.651793 168.233708,112.651793 L178.883366,112.651793 C179.354418,113.258819 178.883366,113.865844 178.883366,114.477726 C178.951353,115.259575 178.951353,116.051137 178.883366,116.832986 L178.883366,124.996266 C178.883366,126.142331 178.548288,126.482265 177.533341,126.482265 L164.785803,126.482265 C163.897117,126.312298 163.032713,126.880474 162.828752,127.764303 C159.793624,135.655637 154.937419,142.731127 148.663202,148.403175 C146.371073,150.467062 143.962395,152.409544 141.446881,154.201484 C138.746831,155.75547 136.119624,157.372586 133.351587,158.654624 C128.257428,160.946753 122.915602,162.636712 117.432947,163.709933 C112.227095,164.642325 106.9484,165.064815 101.65028,164.991972 L54.8413193,164.991972 L54.8413193,164.923985 L54.8607441,164.909416 Z" id="Shape" fill="#FFFFFF"></path>
            </g>
        </g>
    </g>
</svg>