<?xml version="1.0" encoding="UTF-8"?>
<svg width="256px" height="256px" viewBox="0 0 256 256" version="1.1" xmlns="http://www.w3.org/2000/svg" xmlns:xlink="http://www.w3.org/1999/xlink">
    <title>chUSDT Copy 2</title>
    <defs>
        <polygon id="path-1" points="0 0 217.395712 0 217.395712 256 0 256"></polygon>
        <polygon id="path-3" points="0 0 41.8689046 0 41.8689046 164.461214 0 164.461214"></polygon>
    </defs>
    <g id="Page-1" stroke="none" stroke-width="1" fill="none" fill-rule="evenodd">
        <g id="chUSDT">
            <g id="Group-7">
                <g id="Group-3">
                    <mask id="mask-2" fill="white">
                        <use xlink:href="#path-1"></use>
                    </mask>
                    <g id="Clip-2"></g>
                    <path d="M206.782131,209.069377 C162.614696,252.009708 91.7589768,251.638182 48.062506,207.940726 C3.9841976,163.861424 3.9841976,92.1400294 48.062506,48.0607277 C90.7438707,5.37840098 159.343277,4.02645934 203.667387,44.0039646 L214.290351,33.3807618 C164.100766,-12.4417097 85.9835673,-11.0907062 37.4479862,37.4459687 C-12.4826621,87.3777423 -12.4826621,168.623712 37.4479862,218.555485 C86.9977352,268.106351 167.375937,268.475062 217.395712,219.683198 L206.782131,209.069377 Z" id="Fill-1" fill="#BB643F" mask="url(#mask-2)"></path>
                </g>
                <g id="Group-6" transform="translate(214.128140, 44.128369)">
                    <mask id="mask-4" fill="white">
                        <use xlink:href="#path-3"></use>
                    </mask>
                    <g id="Clip-5"></g>
                    <path d="M0,10.6429049 C34.8898157,51.6195897 35.7932789,111.801164 2.71883314,153.777028 L13.4027779,164.461214 C52.257324,116.544687 51.3360355,46.8873249 10.6436032,0 L0,10.6429049 Z" id="Fill-4" fill="#DCAA93" mask="url(#mask-4)"></path>
                </g>
            </g>
            <g id="chNEAR" transform="translate(23.000000, 23.000000)">
                <circle id="Oval" fill="#000000" cx="105" cy="105" r="105"></circle>
                <g id="near-protocol-near-logo-(1)" transform="translate(41.086957, 41.086957)" fill="#FFFFFF" fill-rule="nonzero">
                    <path d="M102.544928,6.53333333 L75.8434783,46.1594203 C73.9971014,48.857971 77.5478261,52.1246377 80.1043478,49.8521739 L106.37971,26.9855072 C107.089855,26.4173913 108.084058,26.8434783 108.084058,27.8376812 L108.084058,99.2782609 C108.084058,100.272464 106.805797,100.698551 106.237681,99.9884058 L26.7014493,4.82898551 C24.1449275,1.70434783 20.4521739,0 16.3333333,0 L13.4927536,0 C6.10724638,0 0,6.10724638 0,13.6347826 L0,114.191304 C0,121.718841 6.10724638,127.826087 13.6347826,127.826087 C18.3217391,127.826087 22.7246377,125.411594 25.2811594,121.292754 L51.9826087,81.6666667 C53.8289855,78.9681159 50.2782609,75.7014493 47.7217391,77.973913 L21.4463768,100.698551 C20.7362319,101.266667 19.742029,100.84058 19.742029,99.8463768 L19.742029,28.5478261 C19.742029,27.5536232 21.0202899,27.1275362 21.5884058,27.8376812 L101.124638,122.997101 C103.681159,126.121739 107.515942,127.826087 111.492754,127.826087 L114.333333,127.826087 C121.86087,127.826087 127.968116,121.718841 127.968116,114.191304 L127.968116,13.6347826 C127.968116,6.10724638 121.86087,0 114.333333,0 C109.504348,0 105.101449,2.41449275 102.544928,6.53333333 Z" id="Path"></path>
                </g>
            </g>
        </g>
    </g>
</svg>