<?xml version="1.0" encoding="UTF-8"?>
<svg width="256px" height="256px" viewBox="0 0 256 256" version="1.1" xmlns="http://www.w3.org/2000/svg" xmlns:xlink="http://www.w3.org/1999/xlink">
    <title>chUSDT</title>
    <defs>
        <polygon id="path-1" points="0 0 217.395712 0 217.395712 256 0 256"></polygon>
        <polygon id="path-3" points="0 0 41.8689046 0 41.8689046 164.461214 0 164.461214"></polygon>
    </defs>
    <g id="Page-1" stroke="none" stroke-width="1" fill="none" fill-rule="evenodd">
        <g id="chUSDT">
            <g id="Group-7">
                <g id="Group-3">
                    <mask id="mask-2" fill="white">
                        <use xlink:href="#path-1"></use>
                    </mask>
                    <g id="Clip-2"></g>
                    <path d="M206.782131,209.069377 C162.614696,252.009708 91.7589768,251.638182 48.062506,207.940726 C3.9841976,163.861424 3.9841976,92.1400294 48.062506,48.0607277 C90.7438707,5.37840098 159.343277,4.02645934 203.667387,44.0039646 L214.290351,33.3807618 C164.100766,-12.4417097 85.9835673,-11.0907062 37.4479862,37.4459687 C-12.4826621,87.3777423 -12.4826621,168.623712 37.4479862,218.555485 C86.9977352,268.106351 167.375937,268.475062 217.395712,219.683198 L206.782131,209.069377 Z" id="Fill-1" fill="#BB643F" mask="url(#mask-2)"></path>
                </g>
                <g id="Group-6" transform="translate(214.128140, 44.128369)">
                    <mask id="mask-4" fill="white">
                        <use xlink:href="#path-3"></use>
                    </mask>
                    <g id="Clip-5"></g>
                    <path d="M0,10.6429049 C34.8898157,51.6195897 35.7932789,111.801164 2.71883314,153.777028 L13.4027779,164.461214 C52.257324,116.544687 51.3360355,46.8873249 10.6436032,0 L0,10.6429049 Z" id="Fill-4" fill="#DCAA93" mask="url(#mask-4)"></path>
                </g>
            </g>
            <g id="Group-34" transform="translate(23.000000, 23.000000)">
                <path d="M105,0 C162.99523,0 210,47.0142201 210,105 C210,162.99523 162.99523,210 105,210 C47.0142201,210 0,162.990505 0,105 C0,47.0142201 47.0142201,0 105,0 Z" id="Path" fill="#50AF95" fill-rule="nonzero"></path>
                <path d="M120.512634,110.142998 L120.512634,110.142998 C119.667788,110.206361 115.302752,110.466855 105.565906,110.466855 C97.8214872,110.466855 92.3229501,110.234523 90.3938858,110.142998 L90.3938858,110.142998 C60.4652283,108.826447 38.126101,103.616565 38.126101,97.3787881 C38.126101,91.141011 60.4652283,85.9381698 90.3938858,84.6004975 L90.3938858,104.954238 C92.3511116,105.095045 97.9552545,105.425943 105.699673,105.425943 C114.992975,105.425943 119.646667,105.038722 120.484472,104.961278 L120.484472,84.6145783 C150.349766,85.9452102 172.639611,91.1550918 172.639611,97.3787881 C172.639611,103.602484 150.356806,108.812366 120.484472,110.135958 L120.484472,110.135958 L120.512634,110.142998 Z M120.512634,82.5095045 L120.512634,64.2960402 L162.191686,64.2960402 L162.191686,36.5217391 L48.7148333,36.5217391 L48.7148333,64.2960402 L90.3868454,64.2960402 L90.3868454,82.5024641 C56.5155749,84.0583882 31.0434783,90.7678708 31.0434783,98.8079854 C31.0434783,106.8481 56.5155749,113.550542 90.3868454,115.113507 L90.3868454,173.478261 L120.505593,173.478261 L120.505593,115.092385 C154.29942,113.536461 179.729274,106.834019 179.729274,98.800945 C179.729274,90.7678708 154.320541,84.0654286 120.505593,82.5024641 L120.505593,82.5024641 L120.512634,82.5095045 Z" id="Shape" fill="#FFFFFF"></path>
            </g>
        </g>
    </g>
</svg>