<?xml version="1.0" encoding="UTF-8"?>
<svg width="256px" height="256px" viewBox="0 0 256 256" version="1.1" xmlns="http://www.w3.org/2000/svg" xmlns:xlink="http://www.w3.org/1999/xlink">
    <title>chUSN</title>
    <defs>
        <polygon id="path-1" points="0 0 217.395712 0 217.395712 256 0 256"></polygon>
        <polygon id="path-3" points="0 0 41.8689046 0 41.8689046 164.461214 0 164.461214"></polygon>
    </defs>
    <g id="Page-1" stroke="none" stroke-width="1" fill="none" fill-rule="evenodd">
        <g id="chUSDT">
            <g id="Group-7">
                <g id="Group-3">
                    <mask id="mask-2" fill="white">
                        <use xlink:href="#path-1"></use>
                    </mask>
                    <g id="Clip-2"></g>
                    <path d="M206.782131,209.069377 C162.614696,252.009708 91.7589768,251.638182 48.062506,207.940726 C3.9841976,163.861424 3.9841976,92.1400294 48.062506,48.0607277 C90.7438707,5.37840098 159.343277,4.02645934 203.667387,44.0039646 L214.290351,33.3807618 C164.100766,-12.4417097 85.9835673,-11.0907062 37.4479862,37.4459687 C-12.4826621,87.3777423 -12.4826621,168.623712 37.4479862,218.555485 C86.9977352,268.106351 167.375937,268.475062 217.395712,219.683198 L206.782131,209.069377 Z" id="Fill-1" fill="#BB643F" mask="url(#mask-2)"></path>
                </g>
                <g id="Group-6" transform="translate(214.128140, 44.128369)">
                    <mask id="mask-4" fill="white">
                        <use xlink:href="#path-3"></use>
                    </mask>
                    <g id="Clip-5"></g>
                    <path d="M0,10.6429049 C34.8898157,51.6195897 35.7932789,111.801164 2.71883314,153.777028 L13.4027779,164.461214 C52.257324,116.544687 51.3360355,46.8873249 10.6436032,0 L0,10.6429049 Z" id="Fill-4" fill="#DCAA93" mask="url(#mask-4)"></path>
                </g>
            </g>
            <g id="usn-(1)" transform="translate(23.000000, 23.000000)" fill-rule="nonzero">
                <rect id="Rectangle" fill="#000000" x="0" y="0" width="210" height="210" rx="105"></rect>
                <path d="M82.0038947,58.9110789 C79.6911316,55.8202105 75.5712632,54.5181553 71.8050789,55.6875789 C68.0394474,56.8575 65.4868421,60.2318684 65.4868421,64.0406053 L65.4868421,81.5949474 L44.2105263,81.5949474 L44.2105263,99.1487368 L65.4868421,99.1487368 L65.4868421,110.851816 L44.2105263,110.851816 L44.2105263,128.405605 L65.4868421,128.405605 L65.4868421,154.736842 L83.7236842,154.736842 L83.7236842,91.2438947 L127.996105,150.406974 C130.308868,153.497842 134.428737,154.799842 138.194921,153.629921 C141.960553,152.460553 144.513158,149.086184 144.513158,145.276895 L144.513158,128.405605 L165.789474,128.405605 L165.789474,110.851816 L144.513158,110.851816 L144.513158,99.1487368 L165.789474,99.1487368 L165.789474,81.5949474 L144.513158,81.5949474 L144.513158,55.2630646 L126.276316,55.2630646 L126.276316,118.074158 L82.0038947,58.9110789 Z" id="Path" fill="#FFFFFF"></path>
            </g>
        </g>
    </g>
</svg>