<?xml version="1.0" encoding="UTF-8"?>
<svg width="256px" height="256px" viewBox="0 0 256 256" version="1.1" xmlns="http://www.w3.org/2000/svg" xmlns:xlink="http://www.w3.org/1999/xlink">
    <title>chUSDT Copy 4</title>
    <defs>
        <polygon id="path-1" points="0 0 217.395712 0 217.395712 256 0 256"></polygon>
        <polygon id="path-3" points="0 0 41.8689046 0 41.8689046 164.461214 0 164.461214"></polygon>
    </defs>
    <g id="Page-1" stroke="none" stroke-width="1" fill="none" fill-rule="evenodd">
        <g id="chUSDT">
            <g id="Group-7">
                <g id="Group-3">
                    <mask id="mask-2" fill="white">
                        <use xlink:href="#path-1"></use>
                    </mask>
                    <g id="Clip-2"></g>
                    <path d="M206.782131,209.069377 C162.614696,252.009708 91.7589768,251.638182 48.062506,207.940726 C3.9841976,163.861424 3.9841976,92.1400294 48.062506,48.0607277 C90.7438707,5.37840098 159.343277,4.02645934 203.667387,44.0039646 L214.290351,33.3807618 C164.100766,-12.4417097 85.9835673,-11.0907062 37.4479862,37.4459687 C-12.4826621,87.3777423 -12.4826621,168.623712 37.4479862,218.555485 C86.9977352,268.106351 167.375937,268.475062 217.395712,219.683198 L206.782131,209.069377 Z" id="Fill-1" fill="#BB643F" mask="url(#mask-2)"></path>
                </g>
                <g id="Group-6" transform="translate(214.128140, 44.128369)">
                    <mask id="mask-4" fill="white">
                        <use xlink:href="#path-3"></use>
                    </mask>
                    <g id="Clip-5"></g>
                    <path d="M0,10.6429049 C34.8898157,51.6195897 35.7932789,111.801164 2.71883314,153.777028 L13.4027779,164.461214 C52.257324,116.544687 51.3360355,46.8873249 10.6436032,0 L0,10.6429049 Z" id="Fill-4" fill="#DCAA93" mask="url(#mask-4)"></path>
                </g>
            </g>
            <g id="chUSDC" transform="translate(23.000000, 23.000000)" fill-rule="nonzero">
                <path d="M105,210 C163.18785,210 210,163.18785 210,105 C210,46.81215 163.18785,0 105,0 C46.81215,0 0,46.81215 0,105 C0,163.18785 46.81215,210 105,210 Z" id="Path" fill="#2775CA"></path>
                <g id="Group-36" transform="translate(26.478261, 30.130435)" fill="#FFFFFF">
                    <path d="M107.324168,90.5651909 C107.324168,75.326087 98.1804966,70.1011319 79.8931539,67.9244156 C66.8307663,66.1824156 64.2182888,62.6994606 64.2182888,56.602983 C64.2182888,50.5065055 68.5727663,46.5888342 77.2806764,46.5888342 C85.118109,46.5888342 89.4725865,49.2013117 91.6493028,55.7325055 C92.085064,57.0387443 93.3913028,57.9092218 94.6975415,57.9092218 L101.663452,57.9092218 C103.405452,57.9092218 104.71169,56.602983 104.71169,54.862028 L104.71169,54.4262668 C102.96969,44.8468342 95.1322578,37.4451629 85.118109,36.5746853 L85.118109,26.1247752 C85.118109,24.3827752 83.8118702,23.0765365 81.6351539,22.6407752 L75.1039601,22.6407752 C73.3619601,22.6407752 72.0557213,23.947014 71.6199601,26.1247752 L71.6199601,36.1389241 C58.5575725,37.8809241 50.2854236,46.5888342 50.2854236,57.4745055 C50.2854236,71.8431319 58.9933337,77.5028032 77.2806764,79.6805645 C89.4725865,81.8572808 93.3913028,84.4697583 93.3913028,91.4367134 C93.3913028,98.4036684 87.2948252,103.192862 79.0226764,103.192862 C67.7012438,103.192862 63.7825275,98.4026234 62.4762888,91.8714296 C62.0415725,90.1304746 60.7353337,89.2589521 59.429095,89.2589521 L52.0263787,89.2589521 C50.2854236,89.2589521 48.9791849,90.5651909 48.9791849,92.3071909 L48.9791849,92.7429521 C50.7201399,103.627578 57.687095,111.465011 72.0557213,113.642772 L72.0557213,124.092682 C72.0557213,125.833637 73.3619601,127.139876 75.5386764,127.575637 L82.0698702,127.575637 C83.8118702,127.575637 85.118109,126.269399 85.5538702,124.092682 L85.5538702,113.642772 C98.6162578,111.465011 107.324168,102.32134 107.324168,90.5651909 L107.324168,90.5651909 Z" id="Path"></path>
                    <path d="M56.3808562,136.283548 C22.4186484,124.092682 5.00178321,86.2117583 17.6294546,52.6842667 C24.1606484,34.3969241 38.5292748,20.4640589 56.3808562,13.9328651 C58.1228562,13.0623876 58.9933337,11.7561489 58.9933337,9.5783876 L58.9933337,3.48295504 C58.9933337,1.74095502 58.1228562,0.43471626 56.3808562,0 C55.9450949,0 55.0746174,0 54.6388562,0.43471626 C13.274977,13.4971039 -9.36684317,57.4745055 3.69554445,98.8383847 C11.532977,123.22116 30.2560809,141.944264 54.6388562,149.781696 C56.3808562,150.652174 58.1228562,149.781696 58.5575725,148.039696 C58.9933337,147.60498 58.9933337,147.169219 58.9933337,146.298741 L58.9933337,140.202264 C58.9933337,138.896025 57.687095,137.15507 56.3808562,136.283548 Z M102.534974,0.43471626 C100.792974,-0.435761251 99.0509741,0.43471626 98.6162578,2.17671627 C98.1804966,2.61247752 98.1804966,3.04719378 98.1804966,3.91871629 L98.1804966,10.0141488 C98.1804966,11.7561489 99.4867353,13.4971039 100.792974,14.3686264 C134.755182,26.5594915 152.172047,64.4404156 139.544376,97.9679072 C133.013182,116.25525 118.644556,130.188115 100.792974,136.719309 C99.0509741,137.589786 98.1804966,138.896025 98.1804966,141.073786 L98.1804966,147.169219 C98.1804966,148.911219 99.0509741,150.217458 100.792974,150.652174 C101.228735,150.652174 102.099213,150.652174 102.534974,150.217458 C143.898853,137.15507 166.540673,93.1776684 153.478286,51.8137892 C145.640853,26.9952528 126.481988,8.27214883 102.534974,0.43471626 Z" id="Shape"></path>
                </g>
            </g>
        </g>
    </g>
</svg>