<?xml version="1.0" encoding="UTF-8"?>
<svg width="256px" height="256px" viewBox="0 0 256 256" version="1.1" xmlns="http://www.w3.org/2000/svg" xmlns:xlink="http://www.w3.org/1999/xlink">
    <title>chBTC</title>
    <defs>
        <polygon id="path-1" points="0 0 217.395712 0 217.395712 256 0 256"></polygon>
        <polygon id="path-3" points="0 0 41.8689046 0 41.8689046 164.461214 0 164.461214"></polygon>
    </defs>
    <g id="Page-1" stroke="none" stroke-width="1" fill="none" fill-rule="evenodd">
        <g id="chBTC">
            <g id="Group-7">
                <g id="Group-3">
                    <mask id="mask-2" fill="white">
                        <use xlink:href="#path-1"></use>
                    </mask>
                    <g id="Clip-2"></g>
                    <path d="M206.782131,209.069377 C162.614696,252.009708 91.7589768,251.638182 48.062506,207.940726 C3.9841976,163.861424 3.9841976,92.1400294 48.062506,48.0607277 C90.7438707,5.37840098 159.343277,4.02645934 203.667387,44.0039646 L214.290351,33.3807618 C164.100766,-12.4417097 85.9835673,-11.0907062 37.4479862,37.4459687 C-12.4826621,87.3777423 -12.4826621,168.623712 37.4479862,218.555485 C86.9977352,268.106351 167.375937,268.475062 217.395712,219.683198 L206.782131,209.069377 Z" id="Fill-1" fill="#BB643F" mask="url(#mask-2)"></path>
                </g>
                <g id="Group-6" transform="translate(214.128140, 44.128369)">
                    <mask id="mask-4" fill="white">
                        <use xlink:href="#path-3"></use>
                    </mask>
                    <g id="Clip-5"></g>
                    <path d="M0,10.6429049 C34.8898157,51.6195897 35.7932789,111.801164 2.71883314,153.777028 L13.4027779,164.461214 C52.257324,116.544687 51.3360355,46.8873249 10.6436032,0 L0,10.6429049 Z" id="Fill-4" fill="#DCAA93" mask="url(#mask-4)"></path>
                </g>
            </g>
            <g id="Group-37" transform="translate(23.000000, 23.000000)" fill-rule="nonzero">
                <path d="M206.858328,130.400011 C192.833237,186.65058 135.854121,220.883563 79.5905285,206.856462 C23.3505477,192.832954 -10.8863003,135.856677 3.14495077,79.6107275 C17.1638829,23.3539999 74.142999,-10.8815494 130.389139,3.14195895 C186.648625,17.1654673 220.88342,74.1479027 206.856788,130.401038 L206.857815,130.400011 L206.858328,130.400011 Z" id="Path" fill="#F7931A"></path>
                <path d="M156.52252,88.3489621 C158.848641,72.7961698 147.007817,64.4359585 130.81637,58.8588663 L136.068993,37.7912479 L123.24448,34.5956878 L118.131242,55.1086246 C114.759737,54.2677478 111.297404,53.4754272 107.856208,52.6899615 L113.006578,32.0416389 L100.190062,28.8460788 L94.9345826,49.9068422 C92.1446084,49.2716147 89.4043328,48.6438134 86.7457456,47.9823084 L86.760598,47.9160437 L69.0753378,43.4997271 L65.663846,57.1971065 C65.663846,57.1971065 75.1785491,59.3781306 74.9780412,59.5123738 C80.1712548,60.808535 81.1103862,64.2463042 80.9544355,66.9711561 L74.9711862,90.9721319 C75.3287873,91.0629603 75.7926405,91.1943473 76.3044785,91.3999965 C75.8766139,91.2937444 75.4213295,91.1777811 74.9489075,91.0646741 L66.5624188,124.686605 C65.9277625,126.264392 64.3168437,128.632214 60.6859928,127.73307 C60.8145235,127.919296 51.3649426,125.406949 51.3649426,125.406949 L44.9978148,140.086874 L61.6868189,144.247272 C64.7915506,145.025883 67.8340163,145.840482 70.830211,146.606525 L65.523319,167.915781 L78.3329794,171.111342 L83.5884591,150.028299 C87.087923,150.978285 90.4839911,151.854579 93.8086532,152.680603 L88.5708823,173.664248 L101.395966,176.859808 L106.702287,155.590539 C128.570795,159.729229 145.014162,158.060615 151.935401,138.280589 C157.512493,122.355343 151.657774,113.169678 140.152844,107.179574 C148.532478,105.247043 154.844194,99.7356443 156.52709,88.3506758 L156.523092,88.3478196 L156.52252,88.3489621 Z M127.221508,129.43653 C123.25819,145.361776 96.4449618,136.753072 87.751713,134.594327 L94.7940557,106.363261 C103.486733,108.533431 131.363625,112.828072 127.222079,129.43653 L127.221508,129.43653 Z M131.187681,88.118178 C127.572254,102.603879 105.255316,95.2444941 98.0158932,93.4399224 L104.40073,67.8360253 C111.640153,69.6405971 134.953918,73.008674 131.188823,88.118178 L131.187681,88.118178 Z" id="Shape" fill="#FFFFFF"></path>
            </g>
        </g>
    </g>
</svg>