<svg width="45" height="45" viewBox="0 0 45 45" xmlns="http://www.w3.org/2000/svg">
    <g fill="none" fill-rule="evenodd">
        <circle fill="#4B7D06" cx="22.5" cy="22.5" r="22.5"/>
        <path d="M38.881 24.14a5.435 5.435 0 0 1-5.128 4.926c.096-.726.146-1.465.146-2.21 0-2.78-.68-5.373-1.853-7.556h2.439c1.242 0 2.434.528 3.27 1.447a4.367 4.367 0 0 1 1.126 3.394m-8.508 9.819a1.49 1.49 0 0 1-1.293.735H15.142a1.49 1.49 0 0 1-1.293-.735c-1.008-1.751-1.616-3.762-1.786-5.875l-1.694-2.466v.002L6.35 19.756a.397.397 0 0 1-.024-.419.397.397 0 0 1 .359-.216h2.37c.108 0 .21.042.287.119l1.98 1.953c0 .004-.002.008-.004.011l.41.39.936.887c.338-1.09.8-2.106 1.363-3.024h16.17c1.263 2.064 2.013 4.626 2.013 7.398 0 2.56-.636 5.017-1.838 7.105M22.11 14.494c2.636 0 5.039 1.243 6.84 3.274H15.273c1.8-2.03 4.202-3.274 6.837-3.274m0-5.515c.988 0 1.792.804 1.792 1.792s-.804 1.792-1.792 1.792a1.794 1.794 0 0 1-1.792-1.792c0-.988.804-1.792 1.792-1.792m16.893 10.633a6.118 6.118 0 0 0-4.52-2h-3.503c-1.627-2.215-3.826-3.817-6.32-4.475.577-.622.93-1.453.93-2.366 0-1.92-1.56-3.481-3.48-3.481a3.485 3.485 0 0 0-3.48 3.48c0 .914.353 1.746.93 2.367-3.174.838-5.87 3.205-7.516 6.417l-1.508-1.508a2.081 2.081 0 0 0-1.481-.614h-2.37c-.78 0-1.49.428-1.854 1.118a2.09 2.09 0 0 0 .126 2.16l5.466 7.98c.24 2.19.904 4.276 1.962 6.113a3.184 3.184 0 0 0 2.756 1.581H29.08a3.184 3.184 0 0 0 2.756-1.581 15.296 15.296 0 0 0 1.6-4.04h.012a7.12 7.12 0 0 0 7.114-6.46 6.118 6.118 0 0 0-1.558-4.691" fill="#FFF"/>
        <g fill="#FFF">
            <path d="m21.026 31.563-.031-.692c-.007-.138-.132-3.407 1.834-5.75 1.966-2.343 5.206-2.787 5.344-2.805l.687-.089.032.693c.007.138.132 3.407-1.834 5.75-1.966 2.343-5.207 2.787-5.344 2.804l-.688.09zM20.299 31.818l.024-.533c.005-.106.102-2.62-1.41-4.422-1.513-1.803-4.006-2.144-4.111-2.158l-.53-.068-.024.533c-.005.106-.101 2.62 1.411 4.423 1.512 1.802 4.005 2.143 4.11 2.157l.53.068z"/>
        </g>
    </g>
</svg>
